<?xml version="1.0" encoding="utf-8"?>
<!-- Generator: Adobe Illustrator 26.0.1, SVG Export Plug-In . SVG Version: 6.00 Build 0)  -->
<svg version="1.1" id="Layer_1" xmlns="http://www.w3.org/2000/svg" xmlns:xlink="http://www.w3.org/1999/xlink" x="0px" y="0px"
	 viewBox="0 0 283.5 214" style="enable-background:new 0 0 283.5 214;" xml:space="preserve">
<style type="text/css">
	.st0{fill:#F15D5D;}
	.st1{fill:url(#SVGID_1_);stroke:#4D5F62;stroke-width:9.777867e-02;stroke-miterlimit:10;}
	.st2{fill:url(#SVGID_00000169551089163884681790000000992684723662596278_);}
	.st3{fill:url(#SVGID_00000105419193234945816590000000391580827869933500_);}
	.st4{fill:url(#SVGID_00000007389779929839603490000007176050274368824970_);}
	.st5{fill:#D0D2D3;}
	.st6{fill:url(#SVGID_00000072259723352543497460000000116311380021460902_);}
	.st7{opacity:0.5;}
	.st8{fill:#58595B;}
	.st9{fill:#6D6E70;}
	.st10{clip-path:url(#SVGID_00000050655476938655243100000007058189723172228780_);}
	
		.st11{fill:url(#SVGID_00000093152157266887366800000002331397401547988130_);stroke:#4D5F62;stroke-width:0.1662;stroke-miterlimit:10;}
	.st12{fill:url(#SVGID_00000018235871889821959460000005927916746949151400_);}
	.st13{fill:url(#SVGID_00000106104817279041593300000009489799030221414288_);}
	.st14{fill:url(#SVGID_00000125564269478078790700000005808225104448944560_);}
	.st15{fill:url(#SVGID_00000046337413644596032900000014882758708823402388_);}
	.st16{opacity:0.5;fill:url(#SVGID_00000098904803194482867050000008332636367032701059_);enable-background:new    ;}
	.st17{fill:#C61F48;}
	.st18{fill:#B2DDE8;}
	.st19{fill:#1A4A86;}
	.st20{fill:#2EA2C0;}
	.st21{fill:#58AB46;}
	.st22{fill:#8ABE3F;}
	.st23{fill:#FFFFFF;}
	.st24{fill:#EB8FBB;}
	.st25{fill:#D260A3;}
	.st26{fill:#EC7623;}
	.st27{fill:#FAAF40;}
	.st28{fill:#F8A03E;}
	.st29{opacity:0.18;enable-background:new    ;}
	.st30{fill:#E6F6F6;}
	.st31{fill:#404041;}
	.st32{fill:#FFCA38;}
	.st33{fill:#C2E8E9;}
</style>
<g>
	<g>
		<path class="st0" d="M219.9,59.4l-10-1.7l1.2-6.9c0.4-2.3,1.2-4.1,2.4-5.3c1.2-1.2,3.6-2.7,7.2-4.6c5.5-2.9,8.6-6.4,9.3-10.6
			c0.5-3.2,0-5.8-1.6-8s-3.9-3.5-7-4c-7.1-1.2-12.1,3-15,12.5l-10.9-3.9c1.9-7.2,5.6-12.4,11-15.8c5.4-3.4,11.4-4.5,18-3.4
			c6.5,1.1,11.6,4,15.2,8.6c3.6,4.6,4.9,9.8,3.9,15.6c-0.5,2.9-1.5,5.5-3.2,7.9c-1.6,2.4-3.3,4.2-5.1,5.3c-1.8,1.2-5.4,3.1-10.8,5.8
			c-1.5,0.8-2.6,1.6-3.1,2.5C221.1,54.3,220.5,56.3,219.9,59.4z M220.7,67.1l-2.2,12.8l-12.1-2.1l2.2-12.8L220.7,67.1z"/>
	</g>
	<g>
		
			<radialGradient id="SVGID_1_" cx="-136.0469" cy="-234.972" r="42.4289" gradientTransform="matrix(1 2.799325e-03 2.799325e-03 -1 217.6383 -76.0593)" gradientUnits="userSpaceOnUse">
			<stop  offset="0" style="stop-color:#BFB97F"/>
			<stop  offset="0.1836" style="stop-color:#BCBDB5"/>
			<stop  offset="0.7012" style="stop-color:#4D5F62"/>
		</radialGradient>
		<path class="st1" d="M52.6,130.6c0,0,15.7,1.4,22.5-0.8c0,0,10.6,7.2,6,9.1c-4.6,2.2-10.7,2.2-10.7,2.2S78,143,81,146.7
			c0,0-15.9,1.6-20.3-2.5C56.2,140.1,44.3,129.4,52.6,130.6z"/>
		
			<linearGradient id="SVGID_00000121258850172918275470000008769728451525873058_" gradientUnits="userSpaceOnUse" x1="-96.7334" y1="-224.9147" x2="-111.2832" y2="-191.3382" gradientTransform="matrix(1 2.799325e-03 2.799325e-03 -1 217.6383 -76.0593)">
			<stop  offset="0" style="stop-color:#A7A79F"/>
			<stop  offset="1" style="stop-color:#4D5F62"/>
		</linearGradient>
		<path style="fill:url(#SVGID_00000121258850172918275470000008769728451525873058_);" d="M85.7,129.2c0,0,7.4,6.5,18,4.4
			s22.8-13.1,33.2-7.5c0,0-16.4-8.6-14.1-15C125.2,104.7,82.8,127,85.7,129.2z"/>
		
			<linearGradient id="SVGID_00000170242290603751496040000017255717520801366706_" gradientUnits="userSpaceOnUse" x1="-141.0208" y1="-139.186" x2="-142.14" y2="-166.3271" gradientTransform="matrix(1 2.799325e-03 2.799325e-03 -1 217.6383 -76.0593)">
			<stop  offset="0" style="stop-color:#A7A79F"/>
			<stop  offset="1" style="stop-color:#4D5F62"/>
		</linearGradient>
		<path style="fill:url(#SVGID_00000170242290603751496040000017255717520801366706_);" d="M33.6,90.4c0,0,0.9-14.5,5.4-16.5
			s35.4-4.7,52.7-2.8c17.3,1.8,17.3,3.3,24.1,1.2c6.7-2.3-13,11.5-4.8,20.4C119.2,101.7,33.6,90.4,33.6,90.4z"/>
		
			<linearGradient id="SVGID_00000150098364084211393180000015892177172056351361_" gradientUnits="userSpaceOnUse" x1="-214.4923" y1="-182.9155" x2="-49.0473" y2="-182.9155" gradientTransform="matrix(1 2.799325e-03 2.799325e-03 -1 217.6383 -76.0593)">
			<stop  offset="0" style="stop-color:#A7A79F"/>
			<stop  offset="1" style="stop-color:#4D5F62"/>
		</linearGradient>
		<path style="fill:url(#SVGID_00000150098364084211393180000015892177172056351361_);" d="M109,84.3c-4-1.7-8.7-2.7-12.9-3.6
			C86,78.4,75.7,77,65.3,76.9c-12.3-0.1-24.9,1.8-36.2,7c-5.2,2.4-10.2,5.6-14.5,9.3C9.3,97.8,3.7,103,2.7,110.3
			c-0.4,3.5,0.6,7.5,4.7,7.8c30.9,2.7-3,2.4,5.2,9.9c8.4,7.5,59.6,14.3,91.2-2.5s17-17.6,28.2-15.7c16.1,2.7,19.1,23.8,29.1,19.1
			s11.2-49.7-9.5-49.2c-20.6,0.5-9.6,15.8-27.1,11.1C109.3,86.7,125.7,91.6,109,84.3z"/>
		<g>
			<path class="st5" d="M141.4,91.9c1.1-0.7,2.3-1.3,3.5-1.7c1.2-0.5,2.5-0.8,3.8-1.1c1.3-0.3,2.6-0.4,3.9-0.5
				c1.3-0.1,2.6,0,3.9,0.2c-1.3,0.3-2.5,0.6-3.8,0.8l-3.8,0.8l-3.8,0.8C144,91.4,142.8,91.7,141.4,91.9z"/>
		</g>
		<g>
			<path class="st5" d="M143.1,97.4c2.9-1,6-1.3,9-1.2c1.5,0.1,3,0.2,4.5,0.5s3,0.7,4.4,1.3c-1.5-0.1-3-0.2-4.5-0.3s-3-0.2-4.4-0.2
				C149.1,97.4,146.1,97.5,143.1,97.4z"/>
		</g>
		<g>
			<path class="st5" d="M142.6,102.3c1.8-0.3,3.6-0.5,5.4-0.5c1.8,0,3.6,0.1,5.4,0.4c1.8,0.3,3.6,0.6,5.3,1.1s3.4,1.1,5,1.9
				l-5.3-0.9c-1.8-0.3-3.5-0.6-5.2-0.8c-1.7-0.3-3.5-0.5-5.3-0.6L142.6,102.3z"/>
		</g>
		<g>
			<path class="st5" d="M142.5,108c1.8,0,3.6,0.2,5.4,0.5c1.8,0.3,3.5,0.6,5.3,1c1.7,0.4,3.5,0.9,5.2,1.5s3.4,1.2,5,2
				c-1.8-0.3-3.6-0.6-5.3-1c-1.8-0.4-3.5-0.8-5.2-1.2s-3.5-0.8-5.2-1.3C145.9,109.1,144.2,108.6,142.5,108z"/>
		</g>
		<g>
			<path class="st5" d="M147.1,113.8c2.5,1.1,4.9,2,7.3,3.1c1.2,0.6,2.4,1.2,3.5,2s2.1,1.8,2.8,2.9c-2.2-1.6-4.5-2.6-6.9-3.7
				c-1.2-0.6-2.4-1.1-3.6-1.8C149.1,115.6,148,114.8,147.1,113.8z"/>
		</g>
		<g>
			<path class="st5" d="M143,86.3c0.7-1.4,2.1-2.4,3.5-3c1.5-0.6,3.1-0.8,4.6-0.2c-1.5,0.5-2.8,0.9-4.2,1.4
				C145.7,85.1,144.5,85.7,143,86.3z"/>
		</g>
		<g>
			
				<linearGradient id="SVGID_00000094597360038402092000000001934285114107268250_" gradientUnits="userSpaceOnUse" x1="-126.6458" y1="-185.3823" x2="-178.136" y2="-195.4726" gradientTransform="matrix(1 2.799325e-03 2.799325e-03 -1 217.6383 -76.0593)">
				<stop  offset="0" style="stop-color:#A7A79F"/>
				<stop  offset="8.720139e-02" style="stop-color:#A7A79F"/>
				<stop  offset="1" style="stop-color:#4D5F62"/>
			</linearGradient>
			<path style="fill:url(#SVGID_00000094597360038402092000000001934285114107268250_);" d="M42.7,123.5c1.8-1.1,3.8-0.4,5.7,0.4
				c1.9,0.9,3.2,1.7,5.3,1.9c4.3,0.5,8.3,0.2,11.8-1.6c5-2.5,7.2-5.2,10.7-9.6c0.9-1.1,3.6-3.7,4.6-4.7c3.9-3.9,10.4-4.9,15.9-5.8
				c-4.4,0.1-8.8-0.4-13.2-0.9c-4.2-0.5-11-0.5-14-0.5c-3.9,0-8.5,0.7-12.2,1.9c-3.2,1-4.7,1.6-7.8,2.9c-2.6,1.1-2.9,1.2-5.4,1.3
				c-0.5,0-2.2-0.1-2.2-0.1c0.9,0.8,1.1,1.8,1.5,3.2C44.6,115.8,43.9,120.2,42.7,123.5z"/>
			<g class="st7">
				<path class="st8" d="M46.2,122c0.7,0.5,1.6,0.7,2.4,1c0.8,0.3,1.6,0.7,2.4,1.1c1.6,0.8,3.2,1.4,4.9,1.9
					c-1.7-0.4-3.3-1.1-4.9-1.8c-0.8-0.4-1.6-0.8-2.4-1.1C47.8,122.8,46.9,122.6,46.2,122z"/>
			</g>
			<g class="st7">
				<path class="st8" d="M65.4,124.3c-0.8,0.1-1.5-0.2-2.2-0.3l-2.2-0.5l-4.5-0.9c-3-0.6-5.9-1.3-8.9-2l4.4,1l4.5,0.9l4.4,1l2.2,0.5
					C63.9,124.1,64.6,124.4,65.4,124.3z"/>
			</g>
			<g class="st7">
				<path class="st8" d="M46.9,121.3c2.4,1.1,4.9,2.1,7.5,2.8s5.2,1.2,7.9,1.4C56.9,125.2,51.6,123.7,46.9,121.3z"/>
			</g>
			<g class="st7">
				<path class="st8" d="M72.1,119.5c-1,0.3-2,0.1-3.1,0.1c-1-0.1-2-0.2-3.1-0.3l-6.1-0.7c-2-0.3-4.1-0.4-6.1-0.5c-1,0-2,0-3.1,0.1
					c-0.5,0-1,0.1-1.5,0.1c-0.5,0.1-1,0.1-1.5,0.3c0.5-0.2,1-0.2,1.5-0.3s1-0.1,1.5-0.1c1-0.1,2-0.1,3.1-0.1c2.1,0,4.1,0.2,6.1,0.4
					l6.1,0.8c1,0.1,2,0.2,3.1,0.3C70,119.7,71.1,119.8,72.1,119.5z"/>
			</g>
			<g class="st7">
				<path class="st8" d="M47.6,119.5l5.4,0.6l2.7,0.3l2.7,0.5c1.8,0.4,3.5,0.7,5.3,1c0.9,0.1,1.8,0.3,2.7,0.3c0.9,0.1,1.8,0.1,2.7,0
					c-1.8,0.4-3.6,0-5.4-0.2c-1.8-0.3-3.6-0.6-5.3-1l-2.7-0.5l-2.7-0.3L47.6,119.5z"/>
			</g>
			<g class="st7">
				<path class="st8" d="M47.7,117.5c2.1-0.8,4.4-1.2,6.6-1.4c2.3-0.2,4.5,0.2,6.8,0.2c2.3,0.1,4.5,0.1,6.8,0.1s4.5,0,6.8,0.2
					c-2.3-0.1-4.5-0.1-6.8-0.1s-4.5,0-6.8,0s-4.5-0.4-6.8-0.2C52.1,116.3,49.8,116.7,47.7,117.5z"/>
			</g>
			<g class="st7">
				<path class="st8" d="M47.7,116.3c2.1-1.5,4.7-1.9,7.3-2.1c2.5-0.2,5.1-0.2,7.6-0.2s5.1-0.1,7.6-0.2c1.3-0.1,2.5-0.1,3.8-0.2
					c1.3-0.1,2.5-0.2,3.8-0.6c-2.5,0.7-5,0.8-7.6,1c-2.5,0.1-5.1,0.2-7.6,0.2s-5.1,0-7.6,0.2c-1.3,0.1-2.5,0.2-3.8,0.5
					C50,115.1,48.8,115.6,47.7,116.3z"/>
			</g>
			<g class="st7">
				<path class="st8" d="M47.4,115c2.6-1.4,5.4-2.3,8.2-2.9c2.9-0.6,5.8-0.9,8.7-1.2s5.8-0.6,8.7-0.9c2.9-0.3,5.8-0.7,8.7-0.8
					c-2.9,0.2-5.8,0.6-8.7,0.9c-2.9,0.3-5.8,0.7-8.7,1c-2.9,0.3-5.8,0.6-8.7,1.2C52.8,112.8,50,113.7,47.4,115z"/>
			</g>
			<g class="st7">
				<path class="st8" d="M46.9,113.6c3.3-1.5,6.6-2.8,10-3.8c3.5-0.9,7-1.6,10.5-2.1c3.5-0.6,7.1-0.9,10.7-1.2l10.7-0.8l-10.7,1
					c-3.6,0.3-7.1,0.7-10.6,1.2s-7.1,1.1-10.5,2c-1.7,0.4-3.4,1-5.1,1.6C50.2,112.3,48.5,112.9,46.9,113.6z"/>
			</g>
			<g class="st7">
				<path class="st8" d="M46.1,112.8c1.5-1,3-1.9,4.6-2.6c1.6-0.8,3.3-1.3,5-1.8c3.4-1.1,6.8-2.1,10.3-2.7c3.5-0.6,7-1.1,10.5-1.5
					s7.1-0.1,10.6-0.5c-3.5,0.5-7.1,0.2-10.6,0.6c-3.5,0.4-7,0.9-10.5,1.5s-6.9,1.5-10.3,2.6c-1.7,0.5-3.4,1-5,1.8
					C49.1,111,47.6,111.8,46.1,112.8z"/>
			</g>
			<g class="st7">
				<path class="st8" d="M45.5,111.5c1.9-1.2,3.8-2.3,5.8-3.3s4.1-1.7,6.3-2.3c4.3-1.2,8.6-2.2,13-3.1c-4.4,0.9-8.7,2-13,3.2
					c-2.1,0.6-4.3,1.3-6.3,2.3C49.4,109.2,47.5,110.3,45.5,111.5z"/>
			</g>
		</g>
		<path class="st5" d="M13.8,126.1c0,0,16.5,6.6,22.1,3.3c5.5-3.3,10.3-25.5-5.6-36.5c0,0,23.8,17.1,11.1,33.1
			C41.3,126.1,37.8,139.2,13.8,126.1z"/>
		<g>
			<path class="st9" d="M15.1,106.5c1.6,0,2.9,0.1,4.2-0.1c1.3-0.1,2.4-0.5,3.3-1s1.7-1.3,2.3-2.3c0.6-1,1-2.3,1.4-3.8
				c0.8,1.3,1.1,2.9,0.8,4.6c-0.3,1.6-1.5,3.2-3,4.1c-1.5,0.9-3.3,1.1-4.9,0.7C17.5,108.5,16.1,107.7,15.1,106.5z"/>
		</g>
	</g>
	<g>
		<g>
			<g>
				<defs>
					<circle id="SVGID_00000085236562526642971400000011386780737563616916_" cx="128.4" cy="97.7" r="58.8"/>
				</defs>
				<clipPath id="SVGID_00000183237528592053582570000017742712915618412210_">
					<use xlink:href="#SVGID_00000085236562526642971400000011386780737563616916_"  style="overflow:visible;"/>
				</clipPath>
				<g style="clip-path:url(#SVGID_00000183237528592053582570000017742712915618412210_);">
					
						<radialGradient id="SVGID_00000090292289689777546320000009276019660080500354_" cx="-118.2957" cy="-266.1086" r="72.1383" gradientTransform="matrix(1 2.799325e-03 2.799325e-03 -1 217.6383 -76.0593)" gradientUnits="userSpaceOnUse">
						<stop  offset="0" style="stop-color:#BFB97F"/>
						<stop  offset="0.1836" style="stop-color:#BCBDB5"/>
						<stop  offset="0.7012" style="stop-color:#4D5F62"/>
					</radialGradient>
					
						<path style="fill:url(#SVGID_00000090292289689777546320000009276019660080500354_);stroke:#4D5F62;stroke-width:0.1662;stroke-miterlimit:10;" d="
						M50.5,142.3c0,0,26.7,2.4,38.3-1.4c0,0,17.9,12.2,10.1,15.5c-7.8,3.7-18.2,3.7-18.2,3.7s12.9,3.2,18,9.6c0,0-27,2.7-34.4-4.2
						C56.6,158.3,36.3,140.3,50.5,142.3z"/>
					
						<linearGradient id="SVGID_00000158018776370463526080000017000152975699671456_" gradientUnits="userSpaceOnUse" x1="-51.3927" y1="-248.9823" x2="-76.1306" y2="-191.8949" gradientTransform="matrix(1 2.799325e-03 2.799325e-03 -1 217.6383 -76.0593)">
						<stop  offset="0" style="stop-color:#A7A79F"/>
						<stop  offset="1" style="stop-color:#4D5F62"/>
					</linearGradient>
					<path style="fill:url(#SVGID_00000158018776370463526080000017000152975699671456_);" d="M106.8,139.8c0,0,12.6,11,30.5,7.5
						c18.1-3.6,38.7-22.3,56.5-12.7c0,0-27.9-14.7-24-25.6C173.9,98.2,101.7,136.1,106.8,139.8z"/>
					
						<linearGradient id="SVGID_00000169534423588957939670000012785549223956777891_" gradientUnits="userSpaceOnUse" x1="-126.6335" y1="-103.2564" x2="-128.5364" y2="-149.402" gradientTransform="matrix(1 2.799325e-03 2.799325e-03 -1 217.6383 -76.0593)">
						<stop  offset="0" style="stop-color:#A7A79F"/>
						<stop  offset="1" style="stop-color:#4D5F62"/>
					</linearGradient>
					<path style="fill:url(#SVGID_00000169534423588957939670000012785549223956777891_);" d="M18.2,73.9c0,0,1.5-24.6,9.2-28.1
						c7.7-3.4,60.2-8,89.6-4.8c29.4,3.1,29.4,5.7,41,2.1c11.5-3.9-22.1,19.5-8.2,34.7C163.6,93.1,18.2,73.9,18.2,73.9z"/>
					
						<linearGradient id="SVGID_00000109000361376937963510000007400982504110941354_" gradientUnits="userSpaceOnUse" x1="-251.4852" y1="-177.7773" x2="30.0465" y2="-177.7773" gradientTransform="matrix(1 2.799325e-03 2.799325e-03 -1 217.6383 -76.0593)">
						<stop  offset="0" style="stop-color:#A7A79F"/>
						<stop  offset="1" style="stop-color:#4D5F62"/>
					</linearGradient>
					<path style="fill:url(#SVGID_00000109000361376937963510000007400982504110941354_);" d="M146.4,63.6c-6.9-3-14.7-4.5-21.9-6.2
						c-17.1-4-34.7-6.3-52.3-6.4c-21-0.1-42.4,3.1-61.5,11.9C1.9,67-6.6,72.4-14,78.8c-9,7.8-18.6,16.6-20.2,29.1
						c-0.8,6,1.1,12.7,8,13.3c52.6,4.7-5,4.1,8.9,16.9c14.3,12.7,101.4,24.3,155.1-4.2c53.8-28.6,28.9-30,47.9-26.8
						c27.3,4.7,32.5,40.4,49.6,32.5c17-8,19.1-84.6-16.1-83.7c-35,0.8-16.4,26.9-46.1,18.9C146.8,67.6,174.8,75.9,146.4,63.6z"/>
					<g>
						<path class="st5" d="M201.5,76.4c1.9-1.2,3.9-2.2,6-2.9c2.1-0.8,4.2-1.4,6.4-1.8s4.4-0.7,6.6-0.8c2.2-0.1,4.5,0,6.7,0.3
							c-2.2,0.6-4.3,1-6.5,1.4c-2.1,0.4-4.3,0.8-6.4,1.3c-2.1,0.4-4.2,0.9-6.4,1.3C205.9,75.6,203.7,76.1,201.5,76.4z"/>
					</g>
					<g>
						<path class="st5" d="M204.2,85.9c2.4-0.9,5-1.4,7.5-1.7c2.6-0.3,5.2-0.4,7.7-0.4c2.6,0.1,5.2,0.4,7.7,0.9s5,1.2,7.4,2.2
							c-2.6-0.1-5.1-0.3-7.6-0.5c-2.5-0.1-5-0.3-7.6-0.4c-2.5-0.1-5-0.1-7.6-0.1C209.4,85.9,206.8,85.9,204.2,85.9z"/>
					</g>
					<g>
						<path class="st5" d="M203.5,94.1c3-0.6,6.1-0.8,9.2-0.8c3.1,0,6.1,0.2,9.2,0.6c3,0.4,6.1,1.1,9,1.9c2.9,0.9,5.8,1.9,8.6,3.3
							c-3-0.5-6-1.1-9-1.6s-5.9-1-8.9-1.4s-6-0.8-9-1.1S206.6,94.5,203.5,94.1z"/>
					</g>
					<g>
						<path class="st5" d="M203.2,103.8c3.1,0.1,6.1,0.4,9.1,0.9c3,0.4,6,1.1,9,1.8s5.9,1.5,8.8,2.5c2.9,1,5.8,2,8.5,3.4
							c-3.1-0.4-6-1-9-1.7c-3-0.6-5.9-1.3-8.9-2c-2.9-0.7-5.9-1.4-8.8-2.2C209.1,105.6,206.2,104.8,203.2,103.8z"/>
					</g>
					<g>
						<path class="st5" d="M211,113.6c2.1,0.9,4.2,1.8,6.2,2.6c2.1,0.8,4.2,1.7,6.2,2.6c2.1,1,4.1,2.1,6,3.4c1.9,1.4,3.6,3,4.8,5
							c-1.9-1.3-3.8-2.4-5.8-3.5c-2-1-4-2-6-2.9c-2-1-4.1-1.9-6-3.1C214.5,116.7,212.6,115.3,211,113.6z"/>
					</g>
					<g>
						<path class="st5" d="M204.2,67c0.6-1.2,1.5-2.2,2.5-3.1s2.2-1.5,3.5-2s2.6-0.8,3.9-0.9c1.3-0.1,2.7,0,4,0.5
							c-1.3,0.5-2.5,0.8-3.6,1.2c-1.2,0.4-2.3,0.8-3.4,1.2c-1.1,0.4-2.2,0.9-3.4,1.4C206.6,65.9,205.4,66.4,204.2,67z"/>
					</g>
					<g>
						
							<linearGradient id="SVGID_00000035518523778572358980000010362029269551349918_" gradientUnits="userSpaceOnUse" x1="-102.2829" y1="-181.9434" x2="-189.8274" y2="-199.0991" gradientTransform="matrix(1 2.799325e-03 2.799325e-03 -1 217.6383 -76.0593)">
							<stop  offset="0" style="stop-color:#A7A79F"/>
							<stop  offset="8.720139e-02" style="stop-color:#A7A79F"/>
							<stop  offset="1" style="stop-color:#4D5F62"/>
						</linearGradient>
						<path style="fill:url(#SVGID_00000035518523778572358980000010362029269551349918_);" d="M33.6,130.1c3-1.9,6.5-0.7,9.7,0.8
							s5.4,2.9,9,3.3c7.3,0.9,14.1,0.3,20.1-2.7c8.6-4.2,12.2-8.9,18.2-16.3c1.5-1.9,6.2-6.3,7.9-8c6.7-6.7,17.7-8.3,27-9.8
							c-7.5,0.2-15-0.7-22.5-1.6C95.9,95,84.3,94.9,79.2,95c-6.7,0-14.4,1.1-20.7,3.2c-5.5,1.8-7.9,2.8-13.3,5c-4.5,1.8-5,2-9.2,2.2
							c-0.8,0-3.7-0.1-3.7-0.1c1.5,1.3,1.8,3.1,2.5,5.5C36.8,117.1,35.6,124.5,33.6,130.1z"/>
						<g class="st7">
							<path class="st8" d="M39.5,127.7c1.2,0.8,2.7,1.1,4.1,1.7c1.4,0.6,2.7,1.3,4.1,1.9c2.7,1.3,5.4,2.5,8.3,3.3
								c-1.4-0.4-2.9-0.8-4.3-1.4c-1.4-0.5-2.8-1.1-4.1-1.8c-1.3-0.6-2.7-1.3-4-1.9C42.3,128.9,40.8,128.6,39.5,127.7z"/>
						</g>
						<g class="st7">
							<path class="st8" d="M72.1,131.5c-1.3,0.1-2.6-0.3-3.8-0.5l-3.8-0.8l-7.6-1.6l-7.6-1.7c-2.5-0.6-5-1.2-7.5-1.8
								c2.5,0.5,5,1.1,7.6,1.7l7.6,1.6l7.6,1.6l3.8,0.8C69.6,131.2,70.8,131.6,72.1,131.5z"/>
						</g>
						<g class="st7">
							<path class="st8" d="M40.7,126.4c4.1,1.9,8.4,3.6,12.8,4.8s8.9,2,13.4,2.3c-4.6-0.2-9.1-1-13.5-2.1
								C49,130.1,44.7,128.5,40.7,126.4z"/>
						</g>
						<g class="st7">
							<path class="st8" d="M83.6,123.4c-0.8,0.3-1.7,0.3-2.6,0.3s-1.7,0-2.6-0.1c-1.7-0.1-3.5-0.3-5.2-0.5l-10.4-1.3
								c-3.5-0.5-6.9-0.8-10.4-0.8c-1.7,0-3.5,0-5.2,0.1c-0.9,0-1.7,0.1-2.6,0.2c-0.4,0-0.9,0.1-1.3,0.2c-0.4,0.1-0.9,0.1-1.2,0.3
								c0.4-0.2,0.8-0.3,1.2-0.4c0.4-0.1,0.9-0.1,1.3-0.2c0.9-0.1,1.7-0.2,2.6-0.2c1.7-0.1,3.5-0.2,5.2-0.1c3.5,0,7,0.3,10.4,0.7
								l10.4,1.3c1.7,0.2,3.5,0.4,5.2,0.5c0.9,0.1,1.7,0.1,2.6,0.1C81.8,123.7,82.7,123.7,83.6,123.4z"/>
						</g>
						<g class="st7">
							<path class="st8" d="M41.9,123.3c3.1,0.3,6.1,0.6,9.2,1c1.5,0.2,3,0.4,4.6,0.6c1.5,0.3,3,0.6,4.5,0.9c3,0.6,6,1.2,9.1,1.7
								c1.5,0.2,3,0.4,4.6,0.6c1.5,0.1,3.1,0.2,4.6-0.1c-1.5,0.4-3.1,0.3-4.6,0.2s-3.1-0.3-4.6-0.6c-3-0.5-6.1-1-9.1-1.6
								c-1.5-0.3-3-0.6-4.5-0.9c-1.5-0.3-3-0.5-4.6-0.7C48,124,45,123.6,41.9,123.3z"/>
						</g>
						<g class="st7">
							<path class="st8" d="M42.1,119.9c3.6-1.3,7.4-2.1,11.3-2.4c1.9-0.1,3.9-0.1,5.8,0.1c1.9,0.1,3.8,0.2,5.8,0.2
								c3.9,0.1,7.7,0.1,11.6,0.1s7.7,0,11.6,0.3c-1.9-0.1-3.9-0.1-5.8-0.1h-5.8c-3.9,0-7.7,0-11.6,0c-1.9-0.1-3.9-0.1-5.8-0.3
								c-1.9-0.2-3.8-0.2-5.8-0.1c-1.9,0.1-3.8,0.4-5.7,0.7C45.8,118.8,43.9,119.3,42.1,119.9z"/>
						</g>
						<g class="st7">
							<path class="st8" d="M42.1,117.9c0.9-0.6,1.8-1.2,2.8-1.6c1-0.4,2-0.8,3.1-1c2.1-0.5,4.3-0.8,6.4-1c4.3-0.3,8.7-0.3,13-0.4
								c4.3-0.1,8.7-0.1,13-0.3c2.2-0.1,4.3-0.2,6.5-0.4s4.3-0.4,6.4-1c-2.1,0.7-4.2,0.9-6.4,1.2c-2.2,0.2-4.3,0.4-6.5,0.5
								c-4.3,0.2-8.7,0.3-13,0.4c-4.3,0.1-8.7,0-13,0.3c-2.2,0.2-4.3,0.4-6.4,0.9c-1.1,0.2-2.1,0.5-3.1,1
								C44,116.8,43.1,117.4,42.1,117.9z"/>
						</g>
						<g class="st7">
							<path class="st8" d="M41.6,115.7c2.2-1.2,4.5-2.2,6.8-3c2.4-0.8,4.8-1.4,7.2-1.9c4.9-1,9.8-1.6,14.7-2.1
								c4.9-0.5,9.9-1,14.8-1.6c4.9-0.5,9.9-1.1,14.8-1.4c-2.5,0.2-4.9,0.5-7.4,0.7l-7.4,0.8c-4.9,0.6-9.8,1.2-14.8,1.7
								c-4.9,0.5-9.9,1-14.7,2C50.8,112,46,113.4,41.6,115.7z"/>
						</g>
						<g class="st7">
							<path class="st8" d="M40.7,113.4c5.5-2.5,11.2-4.8,17.1-6.4c5.9-1.6,11.9-2.7,17.9-3.6c6-0.9,12.1-1.5,18.1-2
								c6.1-0.5,12.1-1,18.2-1.4l-18.2,1.6c-6,0.6-12.1,1.1-18.1,2.1c-6,0.9-12,2-17.9,3.5c-2.9,0.7-5.8,1.7-8.7,2.8
								C46.3,111.1,43.5,112.2,40.7,113.4z"/>
						</g>
						<g class="st7">
							<path class="st8" d="M39.4,112c2.5-1.7,5.1-3.2,7.8-4.5s5.6-2.1,8.5-3.1c2.9-0.9,5.7-1.8,8.7-2.6c2.9-0.8,5.9-1.4,8.8-2
								c5.9-1.1,11.9-1.8,17.9-2.6c3-0.3,6-0.4,9-0.4c3-0.1,6-0.1,9-0.5c-6,0.8-12,0.4-18,1c-6,0.7-11.9,1.5-17.9,2.6
								c-3,0.5-5.9,1.1-8.8,1.9c-2.9,0.8-5.8,1.7-8.7,2.6c-2.9,0.9-5.8,1.7-8.5,3C44.6,108.9,41.9,110.3,39.4,112z"/>
						</g>
						<g class="st7">
							<path class="st8" d="M38.4,109.7c3.2-2,6.5-3.9,9.9-5.6c3.4-1.7,7-2.9,10.7-3.9s7.3-2,11-2.9s7.4-1.7,11.1-2.4
								c-3.7,0.7-7.4,1.6-11.1,2.5s-7.4,1.9-11,2.9s-7.3,2.2-10.7,3.9C45,105.9,41.7,107.8,38.4,109.7z"/>
						</g>
					</g>
					<path class="st5" d="M-15.6,134.6c0,0,28.1,11.2,37.5,5.6c9.4-5.7,17.5-43.3-9.4-62c0,0,40.5,29,18.8,56.3
						C31.3,134.6,25.2,156.9-15.6,134.6z"/>
					<g>
						<path class="st9" d="M-13.4,101.3c2.6,0,4.9,0.1,7.1-0.1c2.1-0.2,4-0.8,5.6-1.7s2.9-2.1,3.9-3.9c1-1.8,1.7-3.9,2.4-6.5
							c1.4,2.2,1.9,5,1.4,7.8c-0.6,2.8-2.5,5.5-5.1,6.9c-2.6,1.5-5.7,1.8-8.4,1.2C-9.3,104.6-11.6,103.2-13.4,101.3z"/>
					</g>
				</g>
			</g>
		</g>
		
			<linearGradient id="SVGID_00000152947143481341201250000001755528636239016382_" gradientUnits="userSpaceOnUse" x1="76.659" y1="116.4002" x2="179.6999" y2="116.4002" gradientTransform="matrix(1 0 0 -1 0 212)">
			<stop  offset="0" style="stop-color:#92C83E"/>
			<stop  offset="1" style="stop-color:#FFD54C;stop-opacity:0"/>
		</linearGradient>
		<path style="opacity:0.5;fill:url(#SVGID_00000152947143481341201250000001755528636239016382_);enable-background:new    ;" d="
			M105.8,56c3.2-2.1,6.2-4.4,9.8-6.3c5.1-2.7,11-3.1,16.6-3c9.5,0.3,19.6,1.8,26.7,8.4c3.3,3.1,5.8,7,8.5,10.6s6.5,5.9,9.3,9.5
			c4.1,5.1,2.8,10.4,1.9,16.4c-1.4,8.9,1,18.5-1.3,27.4c-2,8.1-8.4,11.8-15.5,14.3c-9.3,3.2-19.1,9.3-28.7,11
			c-8.5,1.5-14.8-5.3-22.2-8.4c-8.4-3.5-17.5,0.1-25.3-5.8c-8.6-6.6-9.2-18-9.1-28.2c0.1-13.1,4-23.1,10.4-34.3
			c2.8-4.8,5.6-6.1,10.6-7.6C100.7,59,103.3,57.6,105.8,56z"/>
		<g>
			<g>
				<path class="st17" d="M90.6,84.3c0,0.6,0.5,1.2,1.2,1.2c0.6,0,1.2-0.5,1.2-1.2c0-0.6-0.5-1.2-1.2-1.2
					C91.2,83.1,90.6,83.6,90.6,84.3z"/>
				<path class="st17" d="M78.7,93.8c0,0.6,0.5,1.2,1.2,1.2c0.6,0,1.2-0.5,1.2-1.2c0-0.6-0.5-1.2-1.2-1.2
					C79.2,92.7,78.7,93.2,78.7,93.8z"/>
				<path class="st17" d="M104,63.4c0,0.6,0.5,1.2,1.2,1.2c0.6,0,1.2-0.5,1.2-1.2c0-0.6-0.5-1.2-1.2-1.2
					C104.5,62.3,104,62.8,104,63.4z"/>
				<path class="st17" d="M166.1,81.2c0,0.6,0.5,1.2,1.2,1.2c0.6,0,1.2-0.5,1.2-1.2c0-0.6-0.5-1.2-1.2-1.2
					C166.6,80.1,166.1,80.6,166.1,81.2z"/>
				<path class="st17" d="M125.2,57.6c0,0.6,0.5,1.2,1.2,1.2c0.6,0,1.2-0.5,1.2-1.2c0-0.6-0.5-1.2-1.2-1.2
					C125.7,56.5,125.2,57,125.2,57.6z"/>
				<path class="st17" d="M137.5,56.5c0,0.6,0.5,1.2,1.2,1.2c0.6,0,1.2-0.5,1.2-1.2c0-0.6-0.5-1.2-1.2-1.2S137.5,55.8,137.5,56.5z"
					/>
				<path class="st17" d="M132.3,88.1c0,0.6,0.5,1.2,1.2,1.2c0.6,0,1.2-0.5,1.2-1.2c0-0.6-0.5-1.2-1.2-1.2
					C132.8,87,132.3,87.5,132.3,88.1z"/>
				<path class="st17" d="M176,79c0,0.6,0.5,1.2,1.2,1.2c0.6,0,1.2-0.5,1.2-1.2c0-0.6-0.5-1.2-1.2-1.2S176,78.3,176,79z"/>
				<path class="st17" d="M173,89.8c0,0.6,0.5,1.2,1.2,1.2c0.6,0,1.2-0.5,1.2-1.2c0-0.6-0.5-1.2-1.2-1.2
					C173.5,88.7,173,89.2,173,89.8z"/>
				<path class="st17" d="M131.3,122.9c0,0.6,0.5,1.2,1.2,1.2c0.6,0,1.2-0.5,1.2-1.2c0-0.6-0.5-1.2-1.2-1.2
					C131.9,121.8,131.3,122.3,131.3,122.9z"/>
				<path class="st17" d="M90.1,72.5c0,0.6,0.5,1.2,1.2,1.2c0.6,0,1.2-0.5,1.2-1.2c0-0.6-0.5-1.2-1.2-1.2S90.1,71.8,90.1,72.5z"/>
				<path class="st17" d="M141.3,120.7c0,0.6,0.5,1.2,1.2,1.2c0.6,0,1.2-0.5,1.2-1.2c0-0.6-0.5-1.2-1.2-1.2S141.3,120,141.3,120.7z"
					/>
				<path class="st17" d="M138.2,131.6c0,0.6,0.5,1.2,1.2,1.2c0.6,0,1.2-0.5,1.2-1.2c0-0.6-0.5-1.2-1.2-1.2
					C138.8,130.4,138.2,130.9,138.2,131.6z"/>
				<path class="st17" d="M134,64.2c0,0.6,0.5,1.2,1.2,1.2c0.6,0,1.2-0.5,1.2-1.2c0-0.6-0.5-1.2-1.2-1.2S134,63.5,134,64.2z"/>
				<path class="st17" d="M113.5,123.2c0,0.6,0.5,1.2,1.2,1.2c0.6,0,1.2-0.5,1.2-1.2c0-0.6-0.5-1.2-1.2-1.2
					C114.1,122,113.5,122.5,113.5,123.2z"/>
				<path class="st17" d="M82.7,124.3c0,0.6,0.5,1.2,1.2,1.2c0.6,0,1.2-0.5,1.2-1.2c0-0.6-0.5-1.2-1.2-1.2
					C83.3,123.2,82.7,123.7,82.7,124.3z"/>
				<path class="st17" d="M140.6,104.2c0,0.6,0.5,1.2,1.2,1.2c0.6,0,1.2-0.5,1.2-1.2c0-0.6-0.5-1.2-1.2-1.2S140.6,103.6,140.6,104.2
					z"/>
				<g>
					<g>
						<g>
							<path class="st18" d="M156.5,75.2L156.5,75.2c-0.8-0.2-1.4-1-1.2-1.8l1-5.2c0.2-0.8,1-1.4,1.8-1.2l0,0c0.8,0.2,1.4,1,1.2,1.8
								l-1,5.2C158.1,74.8,157.3,75.4,156.5,75.2z"/>
							<path class="st19" d="M156.7,75.7c-0.1,0-0.3,0-0.4,0l0,0c-0.5-0.1-1-0.4-1.3-0.8s-0.4-1-0.3-1.5l1-5.2
								c0.1-0.5,0.4-1,0.8-1.3c0.4-0.3,1-0.4,1.5-0.3s1,0.4,1.3,0.8s0.4,1,0.3,1.5l-1,5.2c-0.1,0.5-0.4,1-0.8,1.3
								C157.5,75.6,157.1,75.7,156.7,75.7z M157.7,67.4c-0.2,0-0.4,0.1-0.6,0.2c-0.2,0.2-0.4,0.4-0.5,0.7l-1,5.2
								c-0.1,0.3,0,0.6,0.2,0.8c0.2,0.2,0.4,0.4,0.7,0.5l0,0c0.3,0.1,0.6,0,0.8-0.2s0.4-0.4,0.5-0.7l1-5.2c0.1-0.3,0-0.6-0.2-0.8
								c-0.2-0.2-0.4-0.4-0.7-0.5C157.9,67.4,157.8,67.4,157.7,67.4z"/>
						</g>
						<g>
							<path class="st20" d="M157.9,67.1L157.9,67.1c-0.6-0.6-0.6-1.6,0-2.2l3.8-3.7c0.6-0.6,1.6-0.6,2.2,0l0,0
								c0.6,0.6,0.6,1.6,0,2.2l-3.8,3.7C159.5,67.7,158.5,67.7,157.9,67.1z"/>
							<path class="st19" d="M159,68L159,68c-0.6,0-1.1-0.2-1.4-0.6c-0.4-0.4-0.6-0.9-0.6-1.4s0.2-1,0.6-1.4l3.8-3.7
								c0.8-0.8,2.1-0.8,2.8,0c0.8,0.8,0.8,2.1,0,2.8l-3.8,3.7C160.1,67.8,159.6,68,159,68z M162.8,61.2c-0.3,0-0.5,0.1-0.8,0.3
								l-3.8,3.7c-0.4,0.4-0.4,1.1,0,1.5l0,0c0.2,0.2,0.5,0.3,0.8,0.3s0.6-0.1,0.8-0.3l3.8-3.7c0.4-0.4,0.4-1.1,0-1.5
								C163.3,61.3,163.1,61.2,162.8,61.2z"/>
						</g>
						<g>
							<path class="st20" d="M145,94.9L145,94.9c-0.8,0-1.5-0.7-1.5-1.6l0.2-5.3c0-0.8,0.7-1.5,1.6-1.5l0,0c0.8,0,1.5,0.7,1.5,1.6
								l-0.2,5.3C146.5,94.3,145.8,94.9,145,94.9z"/>
							<path class="st19" d="M145,95.4L145,95.4c-1.2,0-2-1-2-2.1l0.2-5.3c0-0.5,0.2-1,0.6-1.4c0.4-0.4,0.9-0.6,1.4-0.5
								c0.5,0,1,0.2,1.4,0.6s0.6,0.9,0.5,1.4l-0.2,5.3c0,0.5-0.2,1-0.6,1.4C146,95.2,145.5,95.4,145,95.4z M145.2,87
								c-0.3,0-0.5,0.1-0.7,0.3c-0.2,0.2-0.3,0.5-0.3,0.7l-0.2,5.3c0,0.6,0.4,1.1,1,1.1c0.3,0,0.6-0.1,0.8-0.3s0.3-0.5,0.3-0.7
								l0.2-5.3c0-0.3-0.1-0.6-0.3-0.8S145.5,87,145.2,87L145.2,87z"/>
						</g>
						<g>
							<path class="st18" d="M152.5,81.9L152.5,81.9c0.5,0.7,0.3,1.7-0.4,2.1l-4.4,3c-0.7,0.5-1.7,0.3-2.1-0.4l0,0
								c-0.5-0.7-0.3-1.7,0.4-2.1l4.4-3C151.1,81,152.1,81.2,152.5,81.9z"/>
							<path class="st19" d="M146.9,87.8c-0.6,0-1.3-0.3-1.7-0.9c-0.6-0.9-0.4-2.2,0.5-2.8l4.4-3c0.4-0.3,1-0.4,1.5-0.3
								s1,0.4,1.3,0.8l0,0c0.6,0.9,0.4,2.2-0.5,2.8l-4.4,3C147.7,87.7,147.3,87.8,146.9,87.8z M151.3,81.7c-0.2,0-0.4,0.1-0.6,0.2
								l-4.4,3c-0.5,0.3-0.6,1-0.3,1.5s1,0.6,1.5,0.3l4.4-3c0.5-0.3,0.6-1,0.3-1.5c-0.2-0.2-0.4-0.4-0.7-0.4
								C151.4,81.7,151.3,81.7,151.3,81.7z"/>
						</g>
						<g>
							<path class="st20" d="M152.3,82L152.3,82c-0.7-0.4-0.9-1.4-0.5-2.1l2.8-4.5c0.4-0.7,1.4-0.9,2.1-0.5l0,0
								c0.7,0.4,0.9,1.4,0.5,2.1l-2.8,4.5C154,82.2,153,82.4,152.3,82z"/>
							<path class="st19" d="M153.1,82.7c-0.4,0-0.7-0.1-1.1-0.3c-0.5-0.3-0.8-0.7-0.9-1.3c-0.1-0.5,0-1.1,0.2-1.5l2.8-4.5
								c0.3-0.5,0.7-0.8,1.3-0.9c0.5-0.1,1.1,0,1.5,0.2c0.5,0.3,0.8,0.7,0.9,1.3c0.1,0.5,0,1.1-0.2,1.5l-2.8,4.5
								c-0.3,0.5-0.7,0.8-1.3,0.9C153.4,82.7,153.3,82.7,153.1,82.7z M155.9,75.1c-0.4,0-0.7,0.2-0.9,0.5l-2.8,4.5
								c-0.1,0.2-0.2,0.5-0.1,0.8c0.1,0.3,0.2,0.5,0.5,0.7l0,0c0.2,0.2,0.5,0.2,0.8,0.1s0.5-0.2,0.7-0.5l2.8-4.5
								c0.1-0.2,0.2-0.5,0.1-0.8s-0.2-0.5-0.5-0.7C156.3,75.1,156.1,75.1,155.9,75.1z"/>
						</g>
					</g>
					<g>
						<g>
							<path class="st20" d="M146.8,69.1L146.8,69.1c0.5,0.7,1.5,0.8,2.2,0.3l4.2-3.2c0.7-0.5,0.8-1.5,0.3-2.2l0,0
								c-0.5-0.7-1.5-0.8-2.2-0.3l-4.2,3.2C146.4,67.5,146.3,68.4,146.8,69.1z"/>
							<path class="st19" d="M148,70.2c-0.6,0-1.2-0.3-1.6-0.8l0,0c-0.7-0.9-0.5-2.2,0.4-2.8l4.2-3.2c0.4-0.3,1-0.5,1.5-0.4
								s1,0.3,1.3,0.8c0.7,0.9,0.5,2.2-0.4,2.8l-4.2,3.2C148.9,70.1,148.4,70.2,148,70.2z M147.2,68.8c0.4,0.5,1,0.6,1.5,0.2
								l4.2-3.2c0.5-0.4,0.6-1,0.2-1.5c-0.2-0.2-0.4-0.4-0.7-0.4s-0.6,0-0.8,0.2l-4.2,3.2C146.9,67.7,146.8,68.4,147.2,68.8
								L147.2,68.8z"/>
						</g>
						<g>
							<path class="st20" d="M142.5,76.5L142.5,76.5c-0.4-0.7-1.4-0.9-2.1-0.5l-4.5,2.8c-0.7,0.4-0.9,1.4-0.5,2.1l0,0
								c0.4,0.7,1.4,0.9,2.1,0.5l4.5-2.8C142.7,78.2,142.9,77.3,142.5,76.5z"/>
							<path class="st19" d="M136.7,82.2c-0.7,0-1.3-0.3-1.7-1c-0.3-0.5-0.4-1-0.2-1.5c0.1-0.5,0.4-1,0.9-1.3l4.5-2.8
								c0.5-0.3,1-0.4,1.5-0.2c0.5,0.1,1,0.4,1.3,0.9s0.4,1,0.2,1.5c-0.1,0.5-0.4,1-0.9,1.3l-4.5,2.8
								C137.4,82.1,137,82.2,136.7,82.2z M141.2,76.3c-0.2,0-0.4,0.1-0.6,0.2l-4.5,2.8c-0.2,0.2-0.4,0.4-0.5,0.7
								c-0.1,0.3,0,0.6,0.1,0.8c0.3,0.5,1,0.7,1.5,0.3l4.5-2.8c0.2-0.2,0.4-0.4,0.5-0.7c0.1-0.3,0-0.6-0.1-0.8l0,0
								c-0.2-0.2-0.4-0.4-0.7-0.5C141.3,76.3,141.3,76.3,141.2,76.3z"/>
						</g>
						<g>
							<path class="st18" d="M142.4,76.1L142.4,76.1c0.7,0.4,1.7,0.2,2.1-0.5l2.8-4.5c0.4-0.7,0.2-1.7-0.5-2.1l0,0
								c-0.7-0.4-1.7-0.2-2.1,0.5l-2.8,4.5C141.5,74.7,141.7,75.6,142.4,76.1z"/>
							<path class="st19" d="M143.2,76.8c-0.4,0-0.7-0.1-1.1-0.3c-0.5-0.3-0.8-0.7-0.9-1.3c-0.1-0.5,0-1.1,0.2-1.5l2.8-4.5
								c0.3-0.5,0.7-0.8,1.3-0.9c0.5-0.1,1.1,0,1.5,0.2c0.5,0.3,0.8,0.7,0.9,1.3c0.1,0.5,0,1.1-0.2,1.5l-2.8,4.5
								c-0.3,0.5-0.7,0.8-1.3,0.9C143.6,76.7,143.4,76.8,143.2,76.8z M146,69.2c-0.4,0-0.7,0.2-0.9,0.5l-2.8,4.5
								c-0.1,0.2-0.2,0.5-0.1,0.8c0.1,0.3,0.2,0.5,0.5,0.7l0,0c0.2,0.1,0.5,0.2,0.8,0.1s0.5-0.2,0.7-0.5l2.8-4.5
								c0.1-0.2,0.2-0.5,0.1-0.8c-0.1-0.3-0.2-0.5-0.5-0.7C146.4,69.2,146.2,69.2,146,69.2z"/>
						</g>
					</g>
				</g>
				<g>
					<g>
						<path class="st19" d="M149.7,119.1c-0.1,0-0.1,0-0.2,0c-0.3-0.1-0.4-0.4-0.3-0.7l5.4-14.4c0.1-0.2,0.2-0.3,0.3-0.3
							c0.2-0.1,0.3,0,0.5,0.1l8.4,5.2c0.3,0.2,0.3,0.5,0.2,0.8c-0.2,0.3-0.5,0.3-0.8,0.2l-7.8-4.8l-5.2,13.8
							C150.2,118.9,150,119.1,149.7,119.1z"/>
						<path class="st19" d="M179.1,115.4c-0.2,0-0.3-0.1-0.5-0.2l-8.4-12.1l-6.4,6.6c-0.2,0.2-0.6,0.2-0.8,0s-0.2-0.6,0-0.8l6.8-7.1
							c0.1-0.1,0.3-0.2,0.4-0.2c0.2,0,0.3,0.1,0.4,0.2l8.7,12.6c0.2,0.3,0.1,0.6-0.1,0.8C179.3,115.4,179.2,115.4,179.1,115.4z"/>
						<path class="st19" d="M172.4,116.3c-0.2,0-0.4-0.1-0.5-0.4l-2.8-7.6l-4.8,1.5c-0.3,0.1-0.6-0.1-0.7-0.4
							c-0.1-0.3,0.1-0.6,0.4-0.7l5.3-1.6c0.3-0.1,0.6,0.1,0.7,0.3l3,8.1c0.1,0.3,0,0.6-0.3,0.7C172.5,116.3,172.5,116.3,172.4,116.3
							z"/>
						<path class="st19" d="M156.5,118.2C156.4,118.2,156.4,118.2,156.5,118.2c-0.4,0-0.6-0.3-0.5-0.6l0.9-8.5
							c0-0.3,0.3-0.5,0.6-0.5l5.5,0.3c0.3,0,0.5,0.3,0.5,0.6s-0.3,0.5-0.6,0.5l-5-0.3l-0.9,8C157,118,156.7,118.2,156.5,118.2z"/>
					</g>
					<path class="st21" d="M163.6,110.7L163.6,110.7c-1.3,0.2-2.6-0.8-2.7-2.1l-0.6-4.9c-0.2-1.3,0.8-2.6,2.1-2.7l0,0
						c1.3-0.2,2.6,0.8,2.7,2.1l0.6,4.9C165.9,109.3,165,110.5,163.6,110.7z"/>
					<g>
						<polygon class="st20" points="167.8,97.9 162.5,101.8 156.4,99.2 155.7,92.6 161,88.7 167,91.3 						"/>
						<path class="st19" d="M162.5,102.4c-0.1,0-0.1,0-0.2,0l-6.1-2.6c-0.2-0.1-0.3-0.2-0.3-0.4l-0.8-6.6c0-0.2,0.1-0.4,0.2-0.5
							l5.3-3.9c0.2-0.1,0.4-0.1,0.5-0.1l6.1,2.6c0.2,0.1,0.3,0.2,0.3,0.4l0.8,6.6c0,0.2-0.1,0.4-0.2,0.5l-5.3,3.9
							C162.7,102.3,162.6,102.4,162.5,102.4z M156.9,98.8l5.5,2.4l4.8-3.6l-0.7-5.9l-5.5-2.4l-4.8,3.6L156.9,98.8z"/>
					</g>
				</g>
				<path class="st22" d="M130.8,102.8c0.6,0.6,1.2,1.1,1.7,1.6c0.7-0.5,1.4-1.1,2.2-1.6c0.5-0.4,1-0.6,1.5,0.1
					c0.4,0.6,0.1,1.1-0.5,1.4c-0.8,0.4-1.6,0.8-2.3,1.2c0.1,1.2,0.6,1.7,1.8,1.6c0.5,0,1-0.1,1.5,0.1c0.4,0.2,0.6,0.6,0.9,1
					c-0.4,0.2-0.7,0.6-1.1,0.6c-0.8,0-1.6-0.3-2.3-0.4c-0.4,0.9-0.8,1.8-1.2,2.8c0.6,0.5,1.3,1.1,2,1.7c0.6,0.4,0.9,1,0.3,1.5
					c-0.2,0.2-1.1,0-1.4-0.3c-0.7-0.6-1.2-1.3-1.8-2c-0.2,0-0.3,0-0.3,0c-1.8,1.1-1.8,1.1-1.4,3.3c0.1,0.4-0.2,0.9-0.4,1.3
					c-0.1,0.1-0.7,0.2-0.8,0.1c-0.2-0.4-0.4-0.8-0.5-1.3c0-0.7,0.1-1.5,0.2-2.3c-0.8-0.2-1.4-0.4-2.3-0.6c-0.3,0.6-0.6,1.4-1.1,2
					c-0.2,0.4-0.6,0.8-1,0.9c-0.2,0.1-0.9-0.3-0.9-0.5c0-0.4,0.2-0.9,0.5-1.3c0.4-0.7,0.9-1.3,1.5-2c-0.6-0.5-1.1-1-1.7-1.6
					c-0.6,0.7-1.3,1.5-2,2.3c-0.4,0.5-0.9,0.8-1.4,0.3c-0.5-0.6-0.3-1.1,0.2-1.5c0.8-0.6,1.5-1.3,2.3-1.9c-0.8-0.8-1.5-1.4-2.3-2.2
					c-0.6,0.7-1.3,1.4-1.9,2.2c-0.5,0.6-1,0.8-1.5,0.3c-0.7-0.6-0.2-1,0.3-1.5c0.8-0.7,1.6-1.3,2.3-2c-1.6-1.7-1.6-1.7-3.5-0.4
					c-0.5,0.3-1.1,0.5-1.6,0.6c-0.1,0-0.5-0.7-0.4-0.8c0.3-0.4,0.8-0.8,1.2-1.2c0.5-0.4,1.1-0.6,1.7-0.9c0-1.3-0.8-1.7-2-1.7
					c-0.5,0-1,0.1-1.4-0.1c-0.3-0.1-0.6-0.6-0.7-1c0-0.1,0.6-0.6,0.8-0.6c0.8,0,1.6,0.3,2.5,0.4c0.4-0.9,0.7-1.8,1.2-2.7
					c-0.7-0.6-1.4-1.2-2.1-1.8c-0.5-0.4-0.8-0.9-0.3-1.4s1-0.2,1.5,0.3c0.6,0.7,1.2,1.4,1.9,2.1c0.5-0.3,1.1-0.5,1.5-0.8
					c0.2-0.2,0.4-0.6,0.4-0.9c0-0.7-0.2-1.3-0.2-2c-0.1-0.6,0.2-1.2,0.8-1c0.3,0.1,0.7,0.6,0.8,1c0.1,0.9,0,1.8,0,2.7
					c0.7,0.2,1.3,0.3,2.1,0.6c0.3-0.6,0.6-1.3,1-2c0.3-0.4,0.7-0.8,1.1-1c0.1-0.1,0.8,0.3,0.7,0.5c0,0.4-0.2,0.9-0.4,1.3
					c-0.4,0.7-0.9,1.3-1.4,2c0.6,0.5,1.1,1,1.7,1.6c0.6-0.7,1.3-1.4,1.9-2.2c0.4-0.5,0.9-0.9,1.4-0.4c0.6,0.5,0.4,1.1-0.1,1.5
					c-0.8,0.6-1.5,1.3-2.2,1.9c0.7,0.8,1.4,1.5,2.2,2.3c0.7-0.7,1.3-1.5,2-2.3c0.5-0.6,1-0.6,1.5-0.2c0.5,0.5,0.3,1-0.3,1.4
					C132.3,101.4,131.6,102.1,130.8,102.8"/>
				<path class="st23" d="M119.7,101c0,0.5-0.4,0.9-0.9,0.9s-0.9-0.4-0.9-0.9s0.4-0.9,0.9-0.9C119.3,100.1,119.7,100.5,119.7,101"/>
				<path class="st23" d="M122.5,98.4c0,0.6-0.5,1.1-1.1,1.1s-1.1-0.5-1.1-1.1s0.5-1.1,1.1-1.1C122,97.3,122.5,97.8,122.5,98.4"/>
				<path class="st23" d="M123.9,100.8c0,0.5-0.4,0.9-0.9,0.9s-0.9-0.4-0.9-0.9s0.4-0.9,0.9-0.9C123.5,99.9,123.9,100.3,123.9,100.8
					"/>
				<path class="st23" d="M122.3,104.2c0,0.5-0.4,0.9-0.9,0.9s-0.9-0.4-0.9-0.9s0.4-0.9,0.9-0.9S122.3,103.7,122.3,104.2"/>
				<path class="st23" d="M128.2,104.5c0,0.5-0.4,0.9-0.9,0.9s-0.9-0.4-0.9-0.9s0.4-0.9,0.9-0.9C127.8,103.6,128.2,104,128.2,104.5"
					/>
				<path class="st23" d="M131.9,105.6c0,0.5-0.4,0.9-0.9,0.9s-0.9-0.4-0.9-0.9s0.4-0.9,0.9-0.9
					C131.5,104.7,131.9,105.1,131.9,105.6"/>
				<path class="st23" d="M126.5,108.4c0,0.5-0.4,0.9-0.9,0.9s-0.9-0.4-0.9-0.9s0.4-0.9,0.9-0.9S126.5,107.9,126.5,108.4"/>
				<path class="st23" d="M131.7,109.7c0,0.5-0.4,0.9-0.9,0.9s-0.9-0.4-0.9-0.9s0.4-0.9,0.9-0.9S131.7,109.2,131.7,109.7"/>
				<g>
					<path class="st24" d="M111.3,89.8c0.8-0.1,1.9-0.1,3-0.3c7.1-1.3,11.7-5.5,13.8-12.4c0.8-2.6,1.2-5.2,0.2-7.8
						c-1-2.7-2.8-4.5-5.6-5c-3-0.6-5.6,0.4-7.4,2.8c-0.8,1-1.4,2.2-2,3.4c-0.9,1.6-2.1,2.6-4,2.8c-1.2,0.2-2.5,0.5-3.6,1.1
						c-4.4,2.2-5.8,7.6-3,11.6C104.7,88.8,107.6,89.8,111.3,89.8"/>
					<path class="st25" d="M110.9,87.9c0.6-0.1,1.2-0.1,1.8-0.2c5.5-0.5,9.7-3.1,12.3-8c1.4-2.7,2.3-5.6,1.8-8.8
						c-0.4-2.3-1.7-4-4-4.6c-2.4-0.7-4.5,0.1-6,2.1c-0.7,1-1.3,2.2-1.9,3.3c-1.2,2-2.9,3.3-5.2,3.6c-0.7,0.1-1.4,0.2-2.1,0.4
						c-4.6,1.6-5.8,7.3-2.2,10.4C106.9,87.5,108.9,87.9,110.9,87.9 M111.3,89.8c-3.7,0-6.6-1-8.6-3.9c-2.8-3.9-1.4-9.4,3-11.6
						c1.1-0.6,2.4-0.9,3.6-1.1c1.9-0.2,3.1-1.2,4-2.8c0.6-1.1,1.2-2.3,2-3.4c1.9-2.5,4.4-3.4,7.4-2.8c2.8,0.5,4.7,2.3,5.6,5
						c1,2.6,0.6,5.3-0.2,7.8c-2.2,6.8-6.7,11-13.8,12.4C113.2,89.7,112.1,89.8,111.3,89.8"/>
					<path class="st25" d="M111.2,81c0.1-0.6-0.4-1-0.9-1.1c-0.5,0-1,0.4-1.1,0.9s0.4,1.1,0.9,1.1C110.6,82,111.1,81.6,111.2,81
						 M110.2,78c1.7,0,2.9,1.3,2.9,2.9s-1.3,2.9-2.9,2.9s-2.9-1.3-2.9-2.9C107.2,79.3,108.5,78,110.2,78"/>
					<path class="st25" d="M115.1,81.9c0-1.1,0.8-1.9,2-1.9c1.1,0,1.9,0.9,1.9,2s-0.9,2-2,1.9C116,83.9,115.1,83,115.1,81.9"/>
					<path class="st25" d="M118.1,74.1c0.6,0,1,0.4,1,1s-0.4,1-1,0.9c-0.6,0-0.9-0.3-0.9-0.9C117.1,74.5,117.5,74.1,118.1,74.1"/>
					<path class="st23" d="M122.1,70.2c0.6,0,1,0.4,1,1s-0.4,1-1,0.9c-0.6,0-0.9-0.3-0.9-0.9C121.1,70.6,121.5,70.2,122.1,70.2"/>
					<path class="st23" d="M121.9,77.8c0.3,0,0.6,0.3,0.6,0.6c0,0.3-0.3,0.6-0.6,0.6c-0.4,0-0.6-0.2-0.6-0.6
						C121.3,78.1,121.5,77.8,121.9,77.8"/>
					<path class="st23" d="M111.2,81c0,0.5-0.5,0.9-1,0.9s-1-0.6-0.9-1.1s0.5-0.9,1.1-0.9C110.8,80,111.2,80.5,111.2,81"/>
				</g>
				<g>
					<path class="st26" d="M112.4,108.8c-0.9-0.7-2.2-0.5-2.8,0.4c-0.1,0.1-0.1,0.2-0.2,0.3l-5-0.8c0-0.3,0.1-0.7,0.1-1.1
						c0-1.4-0.4-2.8-1.1-4l3.2-2.1c0.2,0.1,0.5,0.2,0.7,0.2c0.6-0.1,1.1-0.6,1-1.2c-0.1-0.6-0.6-1-1.2-1c-0.6,0.1-1,0.6-1,1.2
						c0,0.1,0,0.1,0,0.2l-3.2,2c-0.6-0.9-1.4-1.6-2.3-2.1l2.3-3.6c0.2,0,0.5,0,0.7-0.1c0.5-0.3,0.7-1,0.4-1.5
						c-0.3-0.5-1-0.7-1.5-0.4s-0.7,1-0.4,1.5c0,0.1,0.1,0.1,0.1,0.1l-2.3,3.6c-0.8-0.4-1.6-0.6-2.5-0.7l0.5-2.7
						c0.2,0,0.3-0.1,0.5-0.3c0.3-0.4,0.2-0.9-0.2-1.1c-0.4-0.3-0.9-0.2-1.1,0.2c-0.3,0.4-0.2,0.9,0.2,1.1c0,0,0.1,0,0.1,0.1
						l-0.5,2.8c-0.1,0-0.1,0-0.2,0c-1,0-2,0.2-2.9,0.5l-2.2-4c0.2-0.3,0.3-0.6,0.3-1c0-0.9-0.7-1.5-1.6-1.5s-1.5,0.7-1.5,1.6
						c0,0.9,0.7,1.5,1.6,1.5c0.1,0,0.2,0,0.2,0l2.1,3.9c-1.1,0.6-2,1.5-2.7,2.5l-3.2-2.5c0.1-0.2,0.1-0.5-0.1-0.7
						c-0.2-0.6-0.9-0.8-1.5-0.6s-0.8,0.9-0.6,1.5c0.3,0.6,0.9,0.8,1.5,0.5c0.1,0,0.1-0.1,0.2-0.1l3.2,2.6c-0.5,0.9-0.8,1.9-0.9,3
						h-4.8c-0.1-0.3-0.4-0.6-0.7-0.8c-0.8-0.4-1.7-0.1-2.1,0.6c-0.4,0.8-0.1,1.7,0.6,2.1c0.8,0.4,1.7,0.1,2.1-0.6
						c0-0.1,0.1-0.2,0.1-0.2h4.7c0,0.6,0.1,1.2,0.3,1.8l-3.1,1.2c-0.2-0.2-0.4-0.3-0.7-0.3c-0.6-0.1-1.1,0.4-1.2,1s0.4,1.2,1,1.2
						c0.6,0.1,1.1-0.4,1.2-1c0-0.1,0-0.1,0-0.2l3-1.2c0.6,1.4,1.6,2.6,2.9,3.5l-1.5,1.5c-0.2-0.1-0.5-0.1-0.7,0
						c-0.6,0.2-0.9,0.8-0.7,1.4c0.2,0.6,0.8,0.9,1.4,0.7s0.9-0.8,0.7-1.4c0-0.1,0-0.1-0.1-0.2l1.6-1.6c0.8,0.4,1.6,0.7,2.5,0.8
						l-0.4,4c-0.2,0.1-0.5,0.2-0.6,0.4c-0.4,0.5-0.3,1.2,0.2,1.5c0.5,0.4,1.2,0.3,1.5-0.2c0.4-0.5,0.3-1.2-0.2-1.5l-0.1-0.1l0.4-4
						c0.1,0,0.3,0,0.4,0c1,0,2-0.2,2.9-0.5l0.8,3.5c-0.2,0.1-0.4,0.3-0.4,0.6c-0.2,0.6,0.2,1.2,0.8,1.3c0.6,0.2,1.2-0.2,1.3-0.8
						c0.2-0.6-0.2-1.2-0.8-1.3c-0.1,0-0.1,0-0.2,0l-0.8-3.6c0.6-0.3,1.1-0.7,1.6-1.1l1.1,1.5c-0.1,0.2-0.1,0.3-0.1,0.5
						c0.1,0.4,0.5,0.7,0.9,0.7c0.4-0.1,0.8-0.5,0.7-0.9c-0.1-0.4-0.5-0.8-0.9-0.7h-0.1L102,113c0.8-0.8,1.4-1.9,1.8-3l5.1,0.9
						c0.1,0.4,0.3,0.9,0.7,1.1c0.9,0.7,2.2,0.5,2.8-0.4C113.5,110.8,113.3,109.5,112.4,108.8"/>
					<path class="st27" d="M98.3,107.4c0,0.8-0.7,1.5-1.5,1.5s-1.5-0.7-1.5-1.5s0.7-1.5,1.5-1.5C97.7,105.9,98.3,106.5,98.3,107.4"
						/>
					<path class="st27" d="M100.9,103.6c0,0.8-0.7,1.5-1.5,1.5s-1.5-0.7-1.5-1.5s0.7-1.5,1.5-1.5
						C100.2,102.2,100.9,102.8,100.9,103.6"/>
					<path class="st23" d="M95.7,103.5c0,0.3-0.2,0.5-0.5,0.5s-0.5-0.2-0.5-0.5s0.2-0.5,0.5-0.5C95.4,102.9,95.7,103.2,95.7,103.5"
						/>
					<path class="st23" d="M102.3,106.1c0,0.3-0.2,0.5-0.5,0.5s-0.5-0.2-0.5-0.5s0.2-0.5,0.5-0.5
						C102.1,105.6,102.3,105.8,102.3,106.1"/>
					<path class="st23" d="M97.7,108c0,0.3-0.2,0.5-0.5,0.5s-0.5-0.2-0.5-0.5s0.2-0.5,0.5-0.5S97.7,107.7,97.7,108"/>
					<path class="st23" d="M101.7,112.1c0,0.3-0.2,0.5-0.5,0.5s-0.5-0.2-0.5-0.5s0.2-0.5,0.5-0.5S101.7,111.8,101.7,112.1"/>
					<path class="st23" d="M95.4,111.6c0,0.3-0.2,0.5-0.5,0.5s-0.5-0.2-0.5-0.5s0.2-0.5,0.5-0.5C95.2,111.1,95.4,111.3,95.4,111.6"
						/>
					<path class="st27" d="M102.3,109.1c0,0.6-0.5,1.1-1.2,1.1c-0.6,0-1.2-0.5-1.2-1.1s0.5-1.1,1.2-1.1S102.3,108.5,102.3,109.1"/>
					<path class="st28" d="M112.5,110.5c0,0.7-0.6,1.3-1.3,1.3c-0.7,0-1.3-0.6-1.3-1.3s0.6-1.3,1.3-1.3S112.5,109.8,112.5,110.5"/>
					<path class="st28" d="M83.9,107.6c0,0.6-0.5,1.1-1.2,1.1c-0.6,0-1.2-0.5-1.2-1.1s0.5-1.1,1.2-1.1S83.9,107,83.9,107.6"/>
					<path class="st28" d="M91.5,95.4c0,0.5-0.4,1-1,1c-0.5,0-1-0.4-1-1s0.4-1,1-1S91.5,94.8,91.5,95.4"/>
					<path class="st27" d="M92.9,110c0,0.6-0.5,1.1-1.1,1.1s-1.1-0.5-1.1-1.1s0.5-1.1,1.1-1.1S92.9,109.4,92.9,110"/>
					<path class="st27" d="M93.5,104.4c0,0.6-0.5,1.1-1.1,1.1s-1.1-0.5-1.1-1.1s0.5-1.1,1.1-1.1C92.9,103.3,93.5,103.8,93.5,104.4"
						/>
					<path class="st27" d="M99.8,112.3c0,0.7-0.5,1.2-1.2,1.2s-1.2-0.5-1.2-1.2s0.5-1.2,1.2-1.2C99.2,111.1,99.8,111.6,99.8,112.3"
						/>
				</g>
			</g>
			<g>
				<g>
					<g>
						<polygon class="st8" points="233.4,156.6 225.6,169.3 173.6,136.7 181.4,124.1 						"/>
						<path class="st29" d="M174.4,137.2l30.5,1.5l-22.7-14.2C182.2,124.6,178.6,132.1,174.4,137.2z"/>
					</g>
					<path class="st30" d="M150.5,143.2c-10.4,3-21.1,3.7-31.8,2.3c-10.2-1.4-21.2-4.5-29.8-10.5c-3.6-2.5-6.8-5.4-9.5-8.8
						c7.5,12.6,19.7,22.4,35,26.4c23.2,6.1,46.8-3.1,60.4-21.2C167.6,136.8,159.1,140.7,150.5,143.2z"/>
					<path class="st31" d="M280.1,192.1l-3.4,5.5c-2.2,3.6-6.9,4.7-10.5,2.5l-53.3-33.3c-0.6-0.4-0.8-1.1-0.4-1.7l10.1-16.4
						c0.4-0.6,1.1-0.8,1.7-0.4l53.3,33.3C281.2,183.7,282.3,188.5,280.1,192.1z"/>
					<polygon class="st32" points="233.4,153.8 222,172.4 219.8,171 231.2,152.4 					"/>
					<polygon class="st32" points="238.5,157 227.1,175.5 224.9,174.2 236.3,155.6 					"/>
					<g>
						<path class="st8" d="M181.3,130.5c-18,29.2-56.1,38.2-85.1,20.1S58.3,94,76.3,64.7c18-29.2,56.1-38.2,85.1-20.1
							S199.3,101.3,181.3,130.5z M81.1,67.8c-16.3,26.6-8.2,61.6,18.1,78c26.3,16.5,61,8.3,77.3-18.3s8.2-61.6-18.1-78
							C132.1,33,97.4,41.2,81.1,67.8z"/>
					</g>
					<path class="st30" d="M135.1,47.8c-8.2-2.1-17.3-1-25,2.5c-6.7,2.9-13.2,8.5-15.1,15.9c-0.3,1.1,1.1,2.4,2,1.4
						c4.5-4.7,9.3-8.8,15.3-11.4c6.9-2.9,14.2-2.6,21.5-2.2C137.2,54.1,138.7,48.7,135.1,47.8z"/>
				</g>
				<g>
					<path class="st33" d="M128.5,155.1c-31.4,0-57-25.8-57-57.5s25.6-57.5,57-57.5s57,25.8,57,57.5S159.9,155.1,128.5,155.1z
						 M128.5,41.2c-30.8,0-55.9,25.3-55.9,56.4S97.7,154,128.5,154s55.9-25.3,55.9-56.4S159.3,41.2,128.5,41.2z"/>
				</g>
			</g>
		</g>
	</g>
</g>
</svg>
