<?xml version="1.0" encoding="utf-8"?>
<!-- Generator: Adobe Illustrator 25.2.1, SVG Export Plug-In . SVG Version: 6.00 Build 0)  -->
<svg version="1.1" id="Layer_1" xmlns="http://www.w3.org/2000/svg" xmlns:xlink="http://www.w3.org/1999/xlink" x="0px" y="0px"
	 viewBox="0 0 283.5 283.5" style="enable-background:new 0 0 283.5 283.5;" xml:space="preserve">
<style type="text/css">
	.st0{fill:url(#SVGID_1_);}
	.st1{fill:url(#SVGID_2_);}
	
		.st2{fill:none;stroke:url(#SVGID_3_);stroke-width:3.4908;stroke-linecap:round;stroke-linejoin:round;stroke-miterlimit:10;stroke-dasharray:0,9.8079;}
	.st3{fill:#BB8965;}
	.st4{fill:#B27A52;}
	.st5{fill:#85C446;}
	.st6{fill:#B4D88E;}
	.st7{fill:url(#SVGID_4_);}
	.st8{fill:url(#SVGID_5_);}
	.st9{fill:url(#SVGID_6_);}
	.st10{fill:url(#SVGID_7_);}
	.st11{fill:url(#SVGID_8_);}
	.st12{fill:url(#SVGID_9_);}
	.st13{fill:url(#SVGID_10_);}
	.st14{fill:url(#SVGID_11_);}
	.st15{fill:url(#SVGID_12_);}
</style>
<g>
	<g>
		<g>
			<g>
				
					<linearGradient id="SVGID_1_" gradientUnits="userSpaceOnUse" x1="131.3188" y1="28.0066" x2="131.3188" y2="187.5965" gradientTransform="matrix(1 0 0 -1 0 284.7874)">
					<stop  offset="0" style="stop-color:#0090C6"/>
					<stop  offset="1" style="stop-color:#2BB673"/>
				</linearGradient>
				<path class="st0" d="M187.4,84.3c-25.9,0-52.7-24-53-24.2c-1.8-1.6-4.5-1.6-6.3,0c-0.3,0.2-27,24.2-53,24.2
					c-2.6,0-4.7,2.1-4.7,4.7v56c0,45.4,33.7,63.5,59.1,73.2c0.5,0.2,1.1,0.3,1.7,0.3s1.1-0.1,1.7-0.3c35.6-13.6,59.1-34.8,59.1-73.2
					v-56C192.1,86.3,190,84.3,187.4,84.3z"/>
			</g>
		</g>
		<g>
			<g>
				
					<linearGradient id="SVGID_2_" gradientUnits="userSpaceOnUse" x1="131.3188" y1="113.455" x2="131.3188" y2="178.9118" gradientTransform="matrix(1 0 0 -1 0 284.7874)">
					<stop  offset="0" style="stop-color:#CBE8DD"/>
					<stop  offset="0.9973" style="stop-color:#F2F8F1"/>
				</linearGradient>
				<path class="st1" d="M131.3,105.9c-18,0-32.7,14.7-32.7,32.7s14.7,32.7,32.7,32.7s32.7-14.7,32.7-32.7S149.4,105.9,131.3,105.9z
					 M144,137.2l-14,14c-0.9,0.9-2.1,1.4-3.3,1.4s-2.4-0.5-3.3-1.4l-4.7-4.7c-1.8-1.8-1.8-4.8,0-6.6c1.8-1.8,4.8-1.8,6.6,0l1.4,1.4
					l10.7-10.7c1.8-1.8,4.8-1.8,6.6,0C145.8,132.4,145.8,135.4,144,137.2z"/>
			</g>
		</g>
	</g>
	<linearGradient id="SVGID_3_" gradientUnits="userSpaceOnUse" x1="25.3187" y1="130.5174" x2="237.3189" y2="130.5174">
		<stop  offset="0" style="stop-color:#B1E0E4"/>
		<stop  offset="1" style="stop-color:#FFEEBF"/>
	</linearGradient>
	<circle class="st2" cx="131.3" cy="130.5" r="104.3"/>
	<g>
		<path class="st3" d="M57.1,249.1l37.4,14.1c16.2,6,34.3,6.2,50.7,0.5l65.3-22.7c5.9-2.1,8.8-8.1,6.5-13.5c0,0,0-0.1,0-0.1l0,0
			c-2.2-5.2-8.6-7.8-14.4-5.8c-0.1,0-0.2,0.1-0.3,0.1l-35.3,13.7c-2,0.7-4,1.2-6.1,1.4c5.7-1.2,9.3-6.3,8-11.5
			c-1.1-4.4-5.3-7.5-10.3-7.5h-32.8c-4,0-7.9-0.8-11.4-2.5c-13.1-6-27.6-9.1-42.3-9.1H57.1V249.1z"/>
		<path class="st4" d="M114.3,215.3c3.6,1.6,7.5,2.5,11.4,2.5h32.8c5.8,0,10.6,4.3,10.6,9.6c0,1.3-0.3,2.6-0.9,3.8
			c-1.7-3.5-5.5-5.7-9.7-5.7h-32.8c-4,0-7.9-0.8-11.4-2.5c-13.1-6-27.6-9.1-42.3-9.1h-15v-7.7h15
			C86.8,206.2,101.2,209.4,114.3,215.3z"/>
		<path class="st4" d="M216.9,227.5L216.9,227.5c1.1,2.5,1.1,5.2,0,7.7c-2.2-5.2-8.7-7.8-14.4-5.8c-0.1,0-0.2,0.1-0.3,0.1
			l-35.3,13.7c-2.7,1.1-5.7,1.6-8.6,1.6h-50.5V237h50.5c3,0,5.9-0.5,8.6-1.6l35.3-13.7c5.7-2.2,12.2,0.3,14.5,5.4
			C216.8,227.3,216.9,227.4,216.9,227.5z"/>
		<rect x="23.3" y="202.4" class="st5" width="33.8" height="53.9"/>
		<rect x="2.2" y="206.3" class="st6" width="21.1" height="46.2"/>
		<rect x="36" y="237" class="st6" width="8.5" height="7.7"/>
	</g>
	<linearGradient id="SVGID_4_" gradientUnits="userSpaceOnUse" x1="65.4269" y1="103.632" x2="52.1881" y2="11.6573">
		<stop  offset="0" style="stop-color:#0090C6"/>
		<stop  offset="1" style="stop-color:#6FCBD2"/>
	</linearGradient>
	<path class="st7" d="M94.7,36.9l-8.5-5.5c-0.9-0.6-2.1-0.5-2.8,0.3l-0.2,0.2l-6.7,6.8l0.8-5.1c0.2-1.1-0.2-2.3-0.9-3.1l-3.8-4.3
		c-0.4-2.1-2.5-10.4-11.1-10.5c-0.2,0-0.4,0.1-0.5,0.3c-0.1,0.2-0.1,0.4,0,0.6l3.5,5.4c0.1,0.2,0.1,0.5,0,0.6
		c-0.1,0.2-0.4,0.3-0.6,0.2l-5.2-1.3c-0.2-0.1-0.4,0-0.6,0.2c-0.1,0.2-0.2,0.4-0.1,0.6c0.7,2.1,2.9,6.8,9.1,9.4l2.4,2.7l-0.6,4.2
		c-1.5-0.7-3.2-1-5-0.7l-15.7,3c-1.8,0.3-3.2,1.2-4.4,2.5l-2.1-3.6l1.2-3.4c4.8-4.7,5.1-9.9,5-12.1c0-0.2-0.1-0.4-0.3-0.5
		c-0.2-0.1-0.4-0.1-0.6,0.1l-4.3,3.1c-0.2,0.1-0.5,0.1-0.6,0c-0.2-0.1-0.3-0.4-0.3-0.6l1.2-6.3c0-0.2,0-0.4-0.2-0.6
		c-0.2-0.1-0.4-0.2-0.6-0.1c-8,3.3-6.8,11.8-6.4,13.9l-1.9,5.4c-0.4,1.1-0.3,2.3,0.3,3.2l2.6,4.5l-8.7-3.9l-0.2-0.1
		c-1-0.4-2.1-0.1-2.7,0.8L19,51.4c-0.4,0.6-0.4,1.4,0.1,1.9c0.6,0.6,1.5,0.7,2.1,0.1l6-5.5l9.2,4.1c-0.8,1.2-1.3,2.4-1.5,3.7
		l-6.5,0.5l-0.3,0c-0.8,0.1-1.6,0.6-1.8,1.5l-2.4,8c-0.2,0.6,0,1.2,0.6,1.6c0.6,0.4,1.5,0.2,1.9-0.4l3.7-5.6l6.7-0.5
		c1.1,1.1,2.6,2.1,4.4,2.8l-3.7,3.9l-0.2,0.2C37,67.9,36.8,68.4,37,69l2,7.3c0.1,0.5,0.6,0.8,1.2,0.8c0.6-0.1,1-0.6,1-1.2l-0.7-6.4
		l5.2-4.1c1.8,2.2,4.7,3.4,7.7,2.8l15.7-3c3-0.6,5.2-2.7,6.1-5.4l6.3,1.8l1.7,6.2c0.1,0.5,0.6,0.8,1.2,0.8c0.6-0.1,1-0.6,1-1.2
		l-0.8-7.5c-0.1-0.5-0.4-0.9-0.8-1.2l-0.2-0.1l-4.9-2.2c1.4-1.4,2.5-2.8,3.1-4.2l6.4-2l5.5,3.8c0.5,0.3,1.2,0.3,1.7-0.1
		c0.6-0.5,0.7-1.3,0.2-1.9l-5.2-6.5c-0.5-0.6-1.4-0.9-2.2-0.7l-0.3,0.1l-6.2,2c-0.6-1.1-1.5-2-2.7-2.9l7.1-7.2l7.7,2.9
		c0.7,0.2,1.4,0,1.8-0.6C95.6,38.2,95.4,37.3,94.7,36.9z"/>
	<linearGradient id="SVGID_5_" gradientUnits="userSpaceOnUse" x1="47.5437" y1="188.6085" x2="9.9177" y2="127.9888">
		<stop  offset="0" style="stop-color:#0090C6"/>
		<stop  offset="1" style="stop-color:#6FCBD2"/>
	</linearGradient>
	<path class="st8" d="M49.2,148.1c-0.4-0.1-0.7-0.4-0.8-0.8c-0.2-0.4-0.2-0.8,0-1.1c0.8-1.9,0.6-4.3-0.8-6c-1.4-1.8-3.7-2.4-5.7-2
		c-0.4,0.1-0.8,0-1.1-0.2c-0.3-0.2-0.5-0.6-0.6-1c-0.2-2.1-1.6-4-3.7-4.8c-2.1-0.8-4.4-0.3-6,1.1c-0.3,0.3-0.7,0.4-1.1,0.3
		c-0.4,0-0.7-0.2-1-0.6c-1.3-1.7-3.4-2.6-5.6-2.3c-2.2,0.4-3.9,1.9-4.6,4c-0.1,0.4-0.4,0.7-0.8,0.8c-0.4,0.2-0.8,0.2-1.1,0
		c-1.9-0.8-4.3-0.6-6,0.8c-1.7,1.4-2.4,3.7-2,5.7c0.1,0.4,0,0.8-0.2,1.1c-0.2,0.3-0.6,0.5-1,0.6c-2.1,0.2-4,1.6-4.8,3.7
		c-0.8,2.1-0.3,4.4,1.1,6c0.3,0.3,0.4,0.7,0.3,1.1c0,0.4-0.2,0.7-0.6,1c-1.7,1.3-2.6,3.4-2.3,5.6c0.4,2.2,1.9,3.9,3.9,4.6
		c2.2,0.7,4.3,1.7,6.3,2.8l8.7,4.9c1.7,1,2.6,2.9,2.3,4.8c-0.1,0.4,0.1,0.9,0.4,1.2c0.3,0.3,0.8,0.5,1.2,0.4l13.7-2.2
		c0.4-0.1,0.8-0.4,1-0.8c0.2-0.4,0.2-0.9,0-1.3c-0.9-1.7-0.6-3.8,0.7-5.3l6.7-7.5c1.5-1.7,3.3-3.3,5.1-4.7c1.7-1.3,2.6-3.4,2.2-5.6
		C52.8,150.4,51.2,148.7,49.2,148.1z M20.3,163.2c-0.3,0.2-0.7,0.2-0.9,0l-10.5-8.2c-0.8-0.6-0.9-1.8-0.3-2.6
		c0.6-0.8,1.8-0.9,2.6-0.3c0.1,0.1,0.2,0.1,0.2,0.2l9,9.9C20.6,162.5,20.6,163,20.3,163.2z M23.6,162.1c-0.3,0.1-0.7,0-0.9-0.3
		l-8.8-16.3c-0.5-0.9-0.1-2,0.7-2.5c0.9-0.5,2-0.1,2.5,0.7c0,0.1,0.1,0.1,0.1,0.2l6.8,17.3C24.2,161.6,24,162,23.6,162.1z
		 M26.3,141.1l2.1,19.6c0,0.4-0.2,0.7-0.6,0.8c-0.4,0-0.7-0.2-0.8-0.6l-4.3-19.2c-0.2-1,0.4-2,1.4-2.2c1-0.2,2,0.4,2.2,1.4
		C26.3,141,26.3,141,26.3,141.1z M32.7,160.2c-0.1,0.4-0.4,0.6-0.8,0.6c-0.4-0.1-0.6-0.4-0.6-0.7l0.9-18.5c0-1,0.9-1.8,1.9-1.7
		c1,0,1.8,0.9,1.7,1.9c0,0.1,0,0.2,0,0.2L32.7,160.2z M43.9,149.1c0,0.1-0.1,0.2-0.1,0.3l-7.4,11.1c-0.2,0.3-0.7,0.4-1,0.2
		c-0.3-0.2-0.4-0.6-0.3-0.9l5.4-12.2c0.4-0.9,1.5-1.3,2.4-0.9C43.9,147.1,44.3,148.2,43.9,149.1z"/>
	<linearGradient id="SVGID_6_" gradientUnits="userSpaceOnUse" x1="199.6204" y1="73.7602" x2="197.2441" y2="28.2139">
		<stop  offset="0" style="stop-color:#0090C6"/>
		<stop  offset="1" style="stop-color:#6FCBD2"/>
	</linearGradient>
	<path class="st9" d="M244.4,47.4c-0.1-1.1-0.7-2.1-1.7-2.8c-4.6-3.1-14.1-8-28.6-8.5c-1-2.7-3.2-4.7-6.6-6
		c-0.5-0.2-1.1-0.1-1.5,0.4c-1.4,1.7-3.1,3-5.1,3.8c-0.3,0.1-0.5,0.3-0.6,0.5c-0.4,0.6-0.2,1.4,0.4,1.8c0.1,0.1,0.2,0.1,0.2,0.2
		c-12.1,1.5-19,4.9-22.2,6.5c-0.5,0.2-0.9,0.4-1.2,0.6c-1.6,0.8-3.4,1.2-5.1,1.2c-1.2,0-2.4-0.1-3.6-0.3c-0.1-0.1-0.3-0.2-0.5-0.2
		c-0.7-0.2-1.3-0.6-1.7-1.2c-1.4-1.8-6.9-6.2-11.2-6.2c-0.9,0-1.7,0.5-2.2,1.2c-0.5,0.7-0.5,1.7-0.2,2.5c0.9,1.6,2.1,3,3.4,4.2
		c1.3,1.3,3.2,3.3,3.2,4c0,0.8-2.1,2.5-3.3,3.6c-2,1.7-3.7,3.1-3.7,4.8c0,0.7,0.2,1.3,0.7,1.8c0.2,0.2,0.4,0.3,0.6,0.3
		c1,0.3,2.1,0.5,3.2,0.5c3.8-0.1,7.3-2,9.5-5.1c0.4-0.6,1.1-1,1.8-1.2c0,0,0,0,0,0c1.2-0.5,2.5-0.6,3.8-0.3c0.4,0.1,1.6,0.6,2.9,1.1
		c4.4,1.8,13.1,5.4,23.2,7c-0.7,1.6-1.8,3.2-3,3.6c-0.7,0.2-1,1-0.8,1.6c0.6,2,1.9,3.6,3.7,4.6c0.2,0.1,0.4,0.2,0.7,0.2
		c0.1,0,0.3,0,0.4-0.1c3.8-1.3,5.7-5.4,6.1-9.3c0.6,0,1.2,0,1.8,0v0c0.4,0,0.8,0,1.2,0c-0.4,0.9-1,1.7-1.7,2.4
		c-0.6,0.4-0.8,1.2-0.4,1.8c1,1.8,2.7,3.1,4.6,3.7c0.1,0,0.3,0.1,0.4,0.1v0c0.2,0,0.5-0.1,0.7-0.2c2.5-1.6,3.9-4.7,4-8.4
		c12.2-1.5,22.7-5.6,27.5-10.7C244.2,49.8,244.6,48.6,244.4,47.4z M229.3,55c-0.1,0.5-0.5,0.9-0.9,0.9v0c-0.1,0-0.2,0-0.3-0.1
		c-1.6-0.9-2.8-2.8-3.4-5.1c-0.8-2.8-0.3-7.2,1.7-9.2c0.4-0.4,1-0.3,1.3,0.3c0.3,0.6,0.2,1.4-0.2,1.8c0,0,0,0-0.1,0
		c-1.3,1.3-1.5,4.4-1,6c0.4,1.6,1.2,3,2.3,3.7C229.2,53.5,229.5,54.3,229.3,55z M235.8,48.6c-0.8,0-1.4-0.6-1.4-1.4s0.6-1.4,1.4-1.4
		c0.8,0,1.4,0.6,1.4,1.4S236.6,48.6,235.8,48.6z"/>
	<g>
		<linearGradient id="SVGID_7_" gradientUnits="userSpaceOnUse" x1="196.352" y1="209.6016" x2="261.1524" y2="128.7754">
			<stop  offset="0" style="stop-color:#0090C6"/>
			<stop  offset="1" style="stop-color:#6FCBD2"/>
		</linearGradient>
		<path class="st10" d="M280.7,136.8c-0.8-0.9-2-1.2-2.9-0.8c-0.5,0.2-0.8,0.5-0.9,0.9c-0.2,0.4-0.2,0.8-0.2,1.1
			c0,0.7,0.2,1.2,0.4,1.5c0.1,0.3,0.2,0.5,0.2,0.5s-0.1-0.2-0.2-0.5c-0.1-0.3-0.3-0.8-0.3-1.5c0-0.3,0-0.7,0.2-1.1
			c0.2-0.4,0.5-0.7,0.9-0.8c0.9-0.3,2,0,2.7,0.8c0.7,0.9,0.9,2.2,0.5,3.4c-0.4,1.2-1.1,2.4-2,3.5c-0.9,1.1-2,2-3.3,2.8
			c-1.3,0.7-2.7,1.2-4.2,1.5c-3,0.6-6,0.4-8.8-0.1c-2.8-0.5-5.4-1.2-7.5-1.9c-1.5-0.5-2.7-1-3.8-1.4c1.1-0.1,2-0.2,3-0.2
			c0.4,0.1,0.8,0.1,1.4,0.2c1.6,0.2,3.9,0.4,6.7,0.2c1.4-0.1,2.9-0.3,4.5-0.8c1.5-0.5,3.1-1.2,4.5-2.4c1.3-1.2,2.3-2.9,2.7-4.7
			c0.1-0.5,0.2-0.9,0.2-1.4c0-0.4,0.1-0.9,0.1-1.4c0-0.9,0-1.9-0.2-2.8c-0.3-1.8-1.3-3.7-2.9-4.7c-1.6-1.1-3.5-1.3-5.2-1
			c-1.7,0.3-3.3,1.3-4.1,2.7c-0.4,0.7-0.5,1.5-0.4,2.3c0.1,0.7,0.3,1.5,0.7,2.1c0.8,1.2,2.1,1.8,3.2,1.7c1.1,0,2.1-0.7,2.4-1.4
			c0.3-0.8,0.1-1.4,0-1.8c-0.1-0.2-0.1-0.3-0.2-0.4c0-0.1-0.1-0.1-0.1-0.1s0,0.1,0.1,0.2c0,0.1,0.1,0.3,0.2,0.5
			c0.1,0.4,0.3,1.1,0,1.8c-0.3,0.7-1.2,1.3-2.3,1.3c-1.1,0-2.3-0.5-3-1.7c-0.3-0.6-0.5-1.2-0.6-2c-0.1-0.7,0.1-1.5,0.4-2.1
			c0.8-1.3,2.3-2.2,3.9-2.4c1.6-0.3,3.4,0,4.8,1c1.4,1,2.2,2.6,2.5,4.4c0.2,0.9,0.2,1.8,0.2,2.6c0,0.4-0.1,0.9-0.1,1.3
			c-0.1,0.4-0.1,0.9-0.2,1.3c-0.4,1.7-1.3,3.2-2.5,4.2c-1.2,1.1-2.7,1.7-4.1,2.1c-1.5,0.4-2.9,0.6-4.2,0.7c-2.3,0.1-4.3,0-5.8-0.2
			c-2.7-0.9-6.3-2.3-8-3.7c-3.1-2.7-9.7-9.9-22.7-3.1c-11,5.7-5.1,17.1,6.6,12.6c6.2-2.4,11.7-3.6,16.3-4.2c0.2,0.1,0.5,0.2,0.8,0.3
			c1.3,0.5,3.1,1.2,5.3,1.9c2.2,0.7,4.9,1.4,7.7,1.7c2.9,0.4,6,0.5,9.1-0.2c1.5-0.3,3-0.9,4.3-1.7c1.3-0.8,2.5-1.8,3.4-3
			c0.9-1.2,1.6-2.4,2-3.7C281.7,139.1,281.5,137.7,280.7,136.8z M241,142.4c-0.9,0.2-1.8-0.3-2.1-1.2c-0.2-0.9,0.3-1.8,1.2-2.1
			c0.9-0.2,1.8,0.3,2.1,1.2C242.5,141.3,241.9,142.2,241,142.4z"/>
		<linearGradient id="SVGID_8_" gradientUnits="userSpaceOnUse" x1="181.6652" y1="197.8268" x2="246.4656" y2="117.0006">
			<stop  offset="0" style="stop-color:#0090C6"/>
			<stop  offset="1" style="stop-color:#6FCBD2"/>
		</linearGradient>
		<path class="st11" d="M226.5,153.5c-11.4-0.7-10-10.8-10-10.8s-10.7,10.1-2,14.6C222.7,161.5,226.5,153.5,226.5,153.5z"/>
		<linearGradient id="SVGID_9_" gradientUnits="userSpaceOnUse" x1="188.972" y1="203.6849" x2="253.7723" y2="122.8586">
			<stop  offset="0" style="stop-color:#0090C6"/>
			<stop  offset="1" style="stop-color:#6FCBD2"/>
		</linearGradient>
		<path class="st12" d="M224,159.9c0,0,0,0.1,0,0.3c0.1,0,0.1,0,0.1,0L224,159.9z"/>
		<linearGradient id="SVGID_10_" gradientUnits="userSpaceOnUse" x1="183.7615" y1="199.5075" x2="248.5618" y2="118.6812">
			<stop  offset="0" style="stop-color:#0090C6"/>
			<stop  offset="1" style="stop-color:#6FCBD2"/>
		</linearGradient>
		<path class="st13" d="M214.4,169.3c7.8,0.5,9.3-7.5,9.5-9.1c-1.1,0.4-11.3,3.9-15.1-5.7C208.8,154.5,203.3,168.6,214.4,169.3z"/>
		<linearGradient id="SVGID_11_" gradientUnits="userSpaceOnUse" x1="192.341" y1="206.3859" x2="257.1414" y2="125.5597">
			<stop  offset="0" style="stop-color:#0090C6"/>
			<stop  offset="1" style="stop-color:#6FCBD2"/>
		</linearGradient>
		<path class="st14" d="M211.3,172.2c0,0,4.5,8.5,12.2,5.1c5.3-2.3,1.7-11.2,1.7-11.2S221.9,174.1,211.3,172.2z"/>
		<linearGradient id="SVGID_12_" gradientUnits="userSpaceOnUse" x1="199.3991" y1="212.0446" x2="264.1995" y2="131.2183">
			<stop  offset="0" style="stop-color:#0090C6"/>
			<stop  offset="1" style="stop-color:#6FCBD2"/>
		</linearGradient>
		<path class="st15" d="M236.3,163.5c-4.6,2.7-7.3,2.8-7.3,2.8s2.3,6.5-1,9.9c11-3,14-7.7,14.6-10.6
			C243.4,161.9,241,160.7,236.3,163.5z"/>
	</g>
</g>
</svg>
