<?xml version="1.0" encoding="utf-8"?>
<!-- Generator: Adobe Illustrator 26.0.1, SVG Export Plug-In . SVG Version: 6.00 Build 0)  -->
<svg version="1.1" id="Layer_1" xmlns="http://www.w3.org/2000/svg" xmlns:xlink="http://www.w3.org/1999/xlink" x="0px" y="0px"
	 viewBox="0 0 37.5 19.7" style="enable-background:new 0 0 37.5 19.7;" xml:space="preserve">
<style type="text/css">
	.st0{fill:#1A4985;}
	.st1{fill:#FFFFFF;}
	.st2{fill:#255186;}
	.st3{fill:#E3AE23;}
	.st4{fill:#ED2849;}
	.st5{fill:#E8EDF3;}
</style>
<g>
	<g>
		<g>
			<path class="st0" d="M31.4,1.5c-0.4,0-0.8,0.3-0.8,0.8v0.3h1.5V2.3C32.1,1.9,31.8,1.5,31.4,1.5z"/>
			<rect x="30.6" y="6.9" class="st0" width="1.5" height="7.7"/>
		</g>
		<polygon class="st1" points="30.6,14.6 32.1,14.6 31.4,16.1 		"/>
		<rect x="16.2" y="2.7" class="st1" width="12.4" height="15.2"/>
		<g>
			<path class="st2" d="M25.8,4.6H23c-0.2,0-0.3-0.1-0.3-0.3c0-0.2-0.1-0.3-0.3-0.3c-0.2,0-0.3,0.1-0.3,0.3c0,0.2-0.1,0.3-0.3,0.3
				H19c-0.2,0-0.3-0.1-0.3-0.3V2.7h0.6v1.4h2.3c0.2-0.4,0.6-0.7,1.1-0.5c0.2,0.1,0.4,0.3,0.5,0.5h2.3V2.7h0.6v1.7
				C26.1,4.5,25.9,4.6,25.8,4.6z"/>
		</g>
		<g>
			<path class="st0" d="M24.9,9.6h-4c-0.2,0-0.3-0.1-0.3-0.3S20.8,9,21,9h4c0.2,0,0.3,0.1,0.3,0.3S25.1,9.6,24.9,9.6z"/>
			<path class="st0" d="M19.8,9.6h-1.1c-0.2,0-0.3-0.1-0.3-0.3S18.6,9,18.7,9h1.1c0.2,0,0.3,0.1,0.3,0.3S20,9.6,19.8,9.6z"/>
			<path class="st0" d="M26.1,9.6h-0.3c-0.2,0-0.3-0.1-0.3-0.3S25.6,9,25.8,9h0.3c0.2,0,0.3,0.1,0.3,0.3S26.2,9.6,26.1,9.6z"/>
			<path class="st0" d="M19,10.7h-0.3c-0.2,0-0.3-0.1-0.3-0.3s0.1-0.3,0.3-0.3H19c0.2,0,0.3,0.1,0.3,0.3S19.2,10.7,19,10.7z"/>
			<path class="st0" d="M26.1,10.7h-2.2c-0.2,0-0.3-0.1-0.3-0.3s0.1-0.3,0.3-0.3h2.2c0.2,0,0.3,0.1,0.3,0.3S26.2,10.7,26.1,10.7z"/>
			<path class="st0" d="M22.8,10.7H20c-0.2,0-0.3-0.1-0.3-0.3s0.1-0.3,0.3-0.3h2.8c0.2,0,0.3,0.1,0.3,0.3
				C23.1,10.6,23,10.7,22.8,10.7z"/>
		</g>
		<g>
			<path class="st0" d="M24.9,11.9h-4c-0.2,0-0.3-0.1-0.3-0.3s0.1-0.3,0.3-0.3h4c0.2,0,0.3,0.1,0.3,0.3S25.1,11.9,24.9,11.9z"/>
			<path class="st0" d="M19.8,11.9h-1.1c-0.2,0-0.3-0.1-0.3-0.3s0.1-0.3,0.3-0.3h1.1c0.2,0,0.3,0.1,0.3,0.3S20,11.9,19.8,11.9z"/>
			<path class="st0" d="M26.1,11.9h-0.3c-0.2,0-0.3-0.1-0.3-0.3s0.1-0.3,0.3-0.3h0.3c0.2,0,0.3,0.1,0.3,0.3S26.2,11.9,26.1,11.9z"/>
			<path class="st0" d="M19,13h-0.3c-0.2,0-0.3-0.1-0.3-0.3s0.1-0.3,0.3-0.3H19c0.2,0,0.3,0.1,0.3,0.3S19.2,13,19,13z"/>
			<path class="st0" d="M26.1,13h-2.2c-0.2,0-0.3-0.1-0.3-0.3s0.1-0.3,0.3-0.3h2.2c0.2,0,0.3,0.1,0.3,0.3S26.2,13,26.1,13z"/>
			<path class="st0" d="M22.8,13H20c-0.2,0-0.3-0.1-0.3-0.3s0.1-0.3,0.3-0.3h2.8c0.2,0,0.3,0.1,0.3,0.3C23.1,12.9,23,13,22.8,13z"/>
		</g>
		<g>
			<path class="st0" d="M24.9,14.2h-4c-0.2,0-0.3-0.1-0.3-0.3c0-0.2,0.1-0.3,0.3-0.3h4c0.2,0,0.3,0.1,0.3,0.3
				C25.2,14.1,25.1,14.2,24.9,14.2z"/>
			<path class="st0" d="M19.8,14.2h-1.1c-0.2,0-0.3-0.1-0.3-0.3c0-0.2,0.1-0.3,0.3-0.3h1.1c0.2,0,0.3,0.1,0.3,0.3
				C20.1,14.1,20,14.2,19.8,14.2z"/>
			<path class="st0" d="M26.1,14.2h-0.3c-0.2,0-0.3-0.1-0.3-0.3c0-0.2,0.1-0.3,0.3-0.3h0.3c0.2,0,0.3,0.1,0.3,0.3
				C26.4,14.1,26.2,14.2,26.1,14.2z"/>
			<path class="st0" d="M24.9,16.5h-4c-0.2,0-0.3-0.1-0.3-0.3S20.8,16,21,16h4c0.2,0,0.3,0.1,0.3,0.3S25.1,16.5,24.9,16.5z"/>
			<path class="st0" d="M19.8,16.5h-1.1c-0.2,0-0.3-0.1-0.3-0.3s0.1-0.3,0.3-0.3h1.1c0.2,0,0.3,0.1,0.3,0.3S20,16.5,19.8,16.5z"/>
			<path class="st0" d="M26.1,16.5h-0.3c-0.2,0-0.3-0.1-0.3-0.3s0.1-0.3,0.3-0.3h0.3c0.2,0,0.3,0.1,0.3,0.3S26.2,16.5,26.1,16.5z"/>
			<path class="st0" d="M19,15.4h-0.3c-0.2,0-0.3-0.1-0.3-0.3s0.1-0.3,0.3-0.3H19c0.2,0,0.3,0.1,0.3,0.3S19.2,15.4,19,15.4z"/>
			<path class="st0" d="M26.1,15.4h-2.2c-0.2,0-0.3-0.1-0.3-0.3s0.1-0.3,0.3-0.3h2.2c0.2,0,0.3,0.1,0.3,0.3S26.2,15.4,26.1,15.4z"/>
			<path class="st0" d="M22.8,15.4H20c-0.2,0-0.3-0.1-0.3-0.3s0.1-0.3,0.3-0.3h2.8c0.2,0,0.3,0.1,0.3,0.3
				C23.1,15.2,23,15.4,22.8,15.4z"/>
		</g>
		<rect x="30.6" y="2.5" class="st1" width="1.5" height="4.4"/>
		<path class="st3" d="M32.1,14.6v-1c0,0.4-0.1,0.7-0.3,1H32.1z"/>
		<path class="st4" d="M31.1,15.9c0,0.2,0.1,0.3,0.3,0.3c0.2,0,0.3-0.1,0.3-0.3v-0.3h-0.5V15.9z"/>
		<path class="st0" d="M16.2,18.2h12.4c0.2,0,0.3-0.1,0.3-0.3V2.7c0-0.2-0.1-0.3-0.3-0.3h-2.5V1.5c0-0.2-0.1-0.3-0.3-0.3H19
			c-0.2,0-0.3,0.1-0.3,0.3v0.8h-2.5c-0.2,0-0.3,0.1-0.3,0.3v15.2C15.9,18.1,16,18.2,16.2,18.2z M19.3,2.9h6.2v1.1h-2.3
			c-0.2-0.4-0.6-0.7-1.1-0.5c-0.2,0.1-0.4,0.3-0.5,0.5h-2.3L19.3,2.9L19.3,2.9z M19.3,1.8h6.2v0.6h-6.2V1.8z M16.5,2.9h2.2v1.4
			c0,0.2,0.1,0.3,0.3,0.3h2.8c0.2,0,0.3-0.1,0.3-0.3c0-0.2,0.1-0.3,0.3-0.3c0.2,0,0.3,0.1,0.3,0.3c0,0.2,0.1,0.3,0.3,0.3h2.8
			c0.2,0,0.3-0.1,0.3-0.3V2.9h2.2v14.7H16.5V2.9z"/>
		<path class="st0" d="M32.4,2.3L32.4,2.3c0-0.6-0.5-1-1-1s-1,0.5-1,1v12.3l0,0c0,0,0,0.1,0,0.1c0,0,0,0,0,0l0,0l0.7,1.5v0.2
			c0,0.2,0.1,0.3,0.3,0.3c0.2,0,0.3-0.1,0.3-0.3v-0.2l0.7-1.5l0,0c0,0,0,0,0,0c0,0,0-0.1,0-0.1l0,0V2.3z M30.8,7.2h1v7.2h-1V7.2z
			 M31.9,6.6h-1V2.8h1V6.6z M31.4,1.8c0.3,0,0.5,0.2,0.5,0.5h-1C30.8,2,31.1,1.8,31.4,1.8z M31.4,15.6L31,14.9h0.7L31.4,15.6z"/>
		<rect x="19.1" y="1.7" class="st0" width="6.6" height="0.8"/>
		<path class="st0" d="M20.5,7.8c0.1,0,0.4-0.4,0.5-0.4h0c0,0,0.1,0,0.1,0c0.1,0,0.2,0,0.3,0.1l0,0c0,0,0.1,0.1,0.1,0.1
			c-0.1,0.1-0.2,0.2-0.3,0.3c0.1,0,0.2,0.1,0.4,0.1c0.2,0,0.3-0.1,0.4-0.1C22.4,7.9,22.7,8,23,8c0,0.1,0,0.1,0,0.2
			c0,0.1,0,0.2,0,0.2c0.2,0,0.3-0.2,0.4-0.5c0,0,0.1,0,0.1,0c0.1,0,0.3-0.1,0.4-0.2c0.1-0.1,0.2-0.1,0.3-0.2
			c0.1-0.1,0.2-0.2,0.3-0.2c0.1-0.1,0.1-0.1,0.2-0.2c0-0.1,0.1-0.1,0.1-0.1c0-0.1,0-0.1,0-0.2c0,0-0.1-0.1-0.1-0.1
			c0-0.1-0.1-0.1-0.1-0.1c-0.2-0.3-0.5-0.4-0.7-0.5C23.8,6.1,23.7,6,23.6,6c-0.1-0.1-0.4-0.3-0.5-0.3c-0.4-0.1-0.7,0-1,0
			C21.8,5.7,21,5.9,20.9,6c0.1,0.1,0.2,0.2,0.4,0.4l0,0c-0.2,0.2-0.2,0.2-0.3,0.2l0,0c-0.1,0-0.5-0.3-0.6-0.3
			c-0.2,0-0.2,0.3-0.1,0.7C20.2,7.4,20.3,7.8,20.5,7.8z"/>
	</g>
	<g>
		<path class="st0" d="M33.7,2.2l1.7,0l0-0.8h-1.7L33.7,2.2z"/>
		<path class="st0" d="M34.4,17.9L35,18v-1h-0.6V17.9z"/>
		<path class="st0" d="M34.1,16.3v0.5h1.2v-0.5c0-0.3,0-0.9,0.1-1.1H34C34,15.4,34.1,16,34.1,16.3z"/>
		<path class="st0" d="M34.6,5.7c0.1,0,0.2-0.1,0.2-0.2l0-3h-0.5l0,3C34.4,5.6,34.5,5.7,34.6,5.7L34.6,5.7L34.6,5.7z"/>
		<path class="st0" d="M35.1,5.4c0,0.3-0.2,0.5-0.5,0.5s-0.5-0.2-0.5-0.5v-3h-0.4l-0.2,10.9l2.2,0L35.4,2.4H35L35.1,5.4z"/>
		<path class="st0" d="M33.7,13.8c0.1,0.3,0.2,0.8,0.2,1.1h1.4c0.1-0.3,0.1-0.8,0.2-1.1l0.1-0.3l-2.1,0L33.7,13.8z"/>
	</g>
	<g>
		<path class="st5" d="M10.7,3.6C10,4.2,9.7,5,9.6,5.9c-0.1,0.3-0.1,0.7-0.1,1c0,0.2-0.1,0.2-0.3,0.3c-0.1,0-0.1,0-0.1,0
			c-1.8,0-3.6,0-5.3,0c-0.1,0-0.2,0-0.3-0.1C3.4,7.1,3.4,7,3.4,6.9c0.1-0.8,0.2-1.6,0.6-2.3C4.1,4.3,4.3,4,4.5,3.8
			c0.2-0.2,0.4-0.3,0.7-0.3c1.8,0,3.6,0,5.3,0C10.6,3.5,10.6,3.6,10.7,3.6z"/>
		<path class="st5" d="M6.2,14.7c-0.9,0-1.7,0-2.6,0c-0.3,0-0.4-0.1-0.4-0.4c0-1.4,0-2.9,0-4.3c0-0.3,0.1-0.4,0.4-0.4
			c1.7,0,3.5,0,5.2,0C9,9.6,9.1,9.7,9.1,10c0,1.5,0,2.9,0,4.3c0,0.3-0.1,0.3-0.3,0.3C7.9,14.7,7.1,14.7,6.2,14.7z"/>
		<g>
			<path class="st0" d="M14.6,5.7c-0.1-0.6-0.4-1.2-0.8-1.8c-0.4-0.5-0.8-0.7-1.4-0.7c-2.8,0-5.6,0-8.4,0C3.6,3.2,3.3,3.3,3,3.6
				C2.8,3.8,2.6,4.1,2.4,4.4C2,5.2,1.8,6.1,1.8,7.1c0,1.5,0,3,0,4.6c0,0.3,0,0.6,0,0.8c0,1.2,0,2.4,0,3.5c0.1,0.1,0.2,0.2,0.2,0.3
				c0.1,0,0.1,0,0.2,0c0.1-0.1,0.1-0.2,0.2-0.2c0.1,0,0.3,0,0.3,0.2c0.1,0,0.2,0,0.3,0c0.2-0.2,0.3-0.2,0.6,0c0.1,0,0.2,0,0.3,0
				c0.1-0.1,0.1-0.2,0.3-0.2c0.2,0,0.3,0.1,0.3,0.2c0.1,0,0.2,0,0.3,0c0.1-0.1,0.1-0.2,0.3-0.2s0.2,0,0.3,0.2c0.1,0,0.2,0,0.3,0
				c0.2-0.2,0.4-0.2,0.6,0c0.1,0,0.2,0,0.3,0c0.2-0.2,0.3-0.2,0.6,0c0.1,0,0.2,0,0.3,0c0.3-0.2,0.3-0.2,0.6,0c0.1,0,0.2,0,0.3,0
				c0.1-0.1,0.1-0.2,0.2-0.2c0.1,0,0.3,0,0.3,0.2c0.1,0,0.2,0,0.3,0c0.2-0.2,0.3-0.2,0.6,0c0.1,0,0.2,0,0.3,0c0.2-0.2,0.3-0.2,0.6,0
				c0.1,0,0.1,0,0.2,0c0,0,0,0,0.1,0c0.2-0.1,0.3-0.3,0.3-0.5c0-1,0-2.1,0-3.1c0-0.3,0-0.6,0-0.9c0-0.1,0-0.1,0.1-0.1
				c0.5,0,1,0,1.5,0c0.4,0,0.7-0.1,1-0.3c0.4-0.4,0.7-0.8,0.9-1.4C14.8,8.4,14.9,7.1,14.6,5.7z M4.6,3.8C4.8,3.6,5,3.5,5.3,3.5
				c1.8,0,3.6,0,5.3,0c0,0,0.1,0,0.1,0C10,4.2,9.7,5,9.6,5.9c-0.1,0.3-0.1,0.7-0.1,1c0,0.2-0.1,0.2-0.3,0.3c-0.1,0-0.1,0-0.1,0
				c-1.8,0-3.6,0-5.3,0c-0.1,0-0.2,0-0.3-0.1C3.4,7.1,3.4,7,3.4,6.9c0.1-0.8,0.2-1.6,0.6-2.3C4.1,4.3,4.3,4,4.6,3.8z M10.7,5.6
				c-0.1,0.5-0.2,1-0.2,1.5c0,0.3,0,0.6,0,1c0,0,0,0,0,0.1h-0.1c-0.1,0-0.2,0.1-0.2,0.2c0,0.1,0.1,0.2,0.2,0.2h0.1
				c0,1.3,0,5.3,0,7.4c-2.8,0-5.5,0-8.4,0c0-0.1,0-0.1,0-0.2c0-2.3,0-4.7,0-7c0,0,0-0.1,0-0.2h0.1c0.1,0,0.2-0.1,0.2-0.2
				c0-0.1-0.1-0.2-0.2-0.2H2.1c0-0.1,0-0.1,0-0.1c0-1,0-2,0.4-3c0.2-0.4,0.3-0.7,0.6-1c0.3-0.3,0.6-0.4,1.2-0.4
				C3.5,4.4,3.2,5.4,3.1,6.5c0,0.2,0,0.3,0,0.4c0,0.3,0.2,0.6,0.6,0.6c1.9,0,3.7,0,5.6,0c0.3,0,0.5-0.2,0.6-0.5
				c0.1-0.4,0.1-0.7,0.2-1.1c0.1-0.6,0.3-1.1,0.6-1.6c0.2-0.2,0.3-0.4,0.5-0.6c0.2-0.2,0.4-0.2,0.6-0.2v0
				C11.1,4.1,10.8,4.8,10.7,5.6z M11.6,11.2c-0.3,0-0.5,0-0.7,0c-0.1,0-0.1,0-0.1-0.1c0-0.5,0-0.9,0-1.4
				C11,10.2,11.2,10.7,11.6,11.2C11.7,11.2,11.6,11.2,11.6,11.2z M13.9,9.9c-0.1,0.4-0.3,0.7-0.6,0.9c-0.5,0.4-1,0.4-1.5,0
				c-0.4-0.4-0.6-0.9-0.8-1.5c-0.2-0.7-0.3-1.3-0.3-1.9c0-1,0.2-1.9,0.5-2.8c0.1-0.3,0.3-0.6,0.5-0.8c0.5-0.4,1-0.4,1.5,0
				c0.4,0.4,0.6,0.9,0.8,1.4C14.6,6.9,14.5,8.4,13.9,9.9z"/>
			<path class="st0" d="M8.9,9.3c-1.8,0-3.6,0-5.3,0c-0.4,0-0.6,0.2-0.6,0.6c0,1.5,0,2.9,0,4.4c0,0.4,0.2,0.6,0.6,0.6
				c0.9,0,1.8,0,2.7,0s1.8,0,2.7,0c0.4,0,0.6-0.2,0.6-0.6c0-1.5,0-2.9,0-4.4C9.5,9.5,9.2,9.3,8.9,9.3z M9.1,14.3
				c0,0.3-0.1,0.3-0.3,0.3c-0.9,0-1.8,0-2.6,0s-1.7,0-2.6,0c-0.3,0-0.4-0.1-0.4-0.4c0-1.4,0-2.9,0-4.3c0-0.3,0.1-0.4,0.4-0.4
				c1.7,0,3.5,0,5.2,0C9,9.6,9.1,9.7,9.1,10C9.1,11.4,9.1,12.9,9.1,14.3z"/>
			<path class="st0" d="M13.6,6.9c0-0.3-0.1-0.6-0.2-0.8c-0.2-0.4-0.7-0.7-1.2-0.4C12.1,5.7,12,5.8,11.9,6c-0.3,0.6-0.4,1.3-0.3,1.9
				c0.1,0.3,0.2,0.7,0.4,1c0.2,0.2,0.4,0.4,0.7,0.4c0.3,0,0.5-0.2,0.6-0.5c0.3-0.5,0.4-1,0.4-1.6C13.6,7.1,13.6,7,13.6,6.9z
				 M13.3,7.7c-0.1,0.4-0.2,0.7-0.4,1c-0.1,0.1-0.2,0.2-0.3,0.2c-0.2,0-0.3-0.1-0.4-0.2C12,8.4,12,8,11.9,7.6c0-0.1,0-0.2,0-0.2
				c0-0.4,0.1-0.8,0.2-1.1C12.2,6.2,12.3,6,12.4,6C12.7,5.6,13,6,13.2,6.3C13.3,6.7,13.3,7.2,13.3,7.7z"/>
			<path class="st0" d="M3.1,8.2c0-0.1-0.1-0.2-0.2-0.2H2.7c-0.1,0-0.2,0.1-0.2,0.2c0,0.1,0.1,0.2,0.2,0.2H3
				C3.1,8.4,3.1,8.3,3.1,8.2z"/>
			<path class="st0" d="M3.6,8.4h0.2c0.1,0,0.2-0.1,0.2-0.2c0-0.1-0.1-0.2-0.2-0.2H3.6c-0.1,0-0.2,0.1-0.2,0.2
				C3.4,8.3,3.5,8.4,3.6,8.4z"/>
			<path class="st0" d="M4.4,8.4h0.2c0.1,0,0.2-0.1,0.2-0.2c0-0.1-0.1-0.2-0.2-0.2H4.4c-0.1,0-0.2,0.1-0.2,0.2
				C4.3,8.3,4.4,8.4,4.4,8.4z"/>
			<path class="st0" d="M5.3,8.4h0.2c0.1,0,0.2-0.1,0.2-0.2c0-0.1-0.1-0.2-0.2-0.2H5.3c-0.1,0-0.2,0.1-0.2,0.2
				C5.1,8.3,5.2,8.4,5.3,8.4z"/>
			<path class="st0" d="M6.1,8.4h0.2c0.1,0,0.2-0.1,0.2-0.2c0-0.1-0.1-0.2-0.2-0.2H6.1C6,8.1,6,8.2,6,8.2C6,8.3,6,8.4,6.1,8.4z"/>
			<path class="st0" d="M7,8.4h0.2c0.1,0,0.2-0.1,0.2-0.2c0-0.1-0.1-0.2-0.2-0.2H7c-0.1,0-0.2,0.1-0.2,0.2C6.8,8.3,6.9,8.4,7,8.4z"
				/>
			<path class="st0" d="M7.8,8.4H8c0.1,0,0.2-0.1,0.2-0.2c0-0.1-0.1-0.2-0.2-0.2H7.8c-0.1,0-0.2,0.1-0.2,0.2
				C7.7,8.3,7.7,8.4,7.8,8.4z"/>
			<path class="st0" d="M8.7,8.4h0.2C8.9,8.4,9,8.3,9,8.2c0-0.1-0.1-0.2-0.2-0.2H8.7c-0.1,0-0.2,0.1-0.2,0.2
				C8.5,8.3,8.6,8.4,8.7,8.4z"/>
			<path class="st0" d="M9.7,8.1H9.5c-0.1,0-0.2,0.1-0.2,0.2c0,0.1,0.1,0.2,0.2,0.2h0.2c0.1,0,0.2-0.1,0.2-0.2
				C9.8,8.2,9.8,8.1,9.7,8.1z"/>
			<path class="st0" d="M4,11h0.7c0.1,0,0.2-0.1,0.2-0.2c0-0.1-0.1-0.2-0.2-0.2H4c-0.1,0-0.2,0.1-0.2,0.2C3.8,10.9,3.9,11,4,11z"/>
			<path class="st0" d="M7.4,11.5H4c-0.1,0-0.2,0.1-0.2,0.2c0,0.1,0.1,0.2,0.2,0.2h3.4c0.1,0,0.2-0.1,0.2-0.2
				C7.6,11.6,7.5,11.5,7.4,11.5z"/>
			<path class="st0" d="M4.8,4.8h0.7c0.1,0,0.2-0.1,0.2-0.2c0-0.1-0.1-0.2-0.2-0.2H4.8c-0.1,0-0.2,0.1-0.2,0.2
				C4.6,4.7,4.7,4.8,4.8,4.8z"/>
			<path class="st0" d="M8.2,5.4H4.8c-0.1,0-0.2,0.1-0.2,0.2s0.1,0.2,0.2,0.2h3.4c0.1,0,0.2-0.1,0.2-0.2C8.3,5.5,8.3,5.4,8.2,5.4z"
				/>
			<path class="st0" d="M7.4,12.4H4c-0.1,0-0.2,0.1-0.2,0.2c0,0.1,0.1,0.2,0.2,0.2h3.4c0.1,0,0.2-0.1,0.2-0.2
				C7.6,12.5,7.5,12.4,7.4,12.4z"/>
		</g>
	</g>
</g>
</svg>
