<?xml version="1.0" encoding="utf-8"?>
<!-- Generator: Adobe Illustrator 26.0.1, SVG Export Plug-In . SVG Version: 6.00 Build 0)  -->
<svg version="1.1" id="Layer_1" xmlns="http://www.w3.org/2000/svg" xmlns:xlink="http://www.w3.org/1999/xlink" x="0px" y="0px"
	 viewBox="0 0 141.7 55.8" style="enable-background:new 0 0 141.7 55.8;" xml:space="preserve">
<style type="text/css">
	.st0{fill:#1A4985;}
	.st1{fill:#FFFFFF;}
	.st2{fill:#255186;}
	.st3{fill:#E3AE23;}
	.st4{fill:#ED2849;}
	.st5{fill:#E8EDF3;}
</style>
<g>
	<g>
		<g>
			<path class="st0" d="M101.8,4.4c-1.3,0-2.2,1-2.2,2.2v0.7h4.5V6.7C104,5.4,103.1,4.4,101.8,4.4z"/>
			<rect x="99.5" y="20.1" class="st0" width="4.5" height="22.6"/>
		</g>
		<polygon class="st1" points="99.5,42.8 104,42.8 101.8,47.3 		"/>
		<rect x="57.4" y="7.8" class="st1" width="36.4" height="44.7"/>
		<g>
			<path class="st2" d="M85.5,13.5h-8.2c-0.4,0-0.8-0.4-0.8-0.8s-0.4-0.8-0.8-0.8s-0.8,0.4-0.8,0.8s-0.4,0.8-0.8,0.8h-8.2
				c-0.4,0-0.8-0.4-0.8-0.8V7.8h1.6v4.1h6.7c0.4-1.3,1.9-1.9,3.1-1.5c0.7,0.2,1.3,0.8,1.5,1.5h6.7V7.8h1.6v4.9
				C86.3,13.2,85.9,13.5,85.5,13.5z"/>
		</g>
		<g>
			<path class="st0" d="M83,28.1H71.4c-0.4,0-0.8-0.4-0.8-0.8c0-0.4,0.4-0.8,0.8-0.8H83c0.4,0,0.8,0.4,0.8,0.8
				C83.8,27.7,83.4,28.1,83,28.1z"/>
			<path class="st0" d="M68.1,28.1h-3.3c-0.4,0-0.8-0.4-0.8-0.8c0-0.4,0.4-0.8,0.8-0.8h3.3c0.4,0,0.8,0.4,0.8,0.8
				C68.9,27.7,68.5,28.1,68.1,28.1z"/>
			<path class="st0" d="M86.4,28.1h-0.9c-0.4,0-0.8-0.4-0.8-0.8c0-0.4,0.4-0.8,0.8-0.8h0.9c0.4,0,0.8,0.4,0.8,0.8
				C87.2,27.7,86.8,28.1,86.4,28.1z"/>
			<path class="st0" d="M65.7,31.4h-0.9c-0.4,0-0.8-0.4-0.8-0.8s0.4-0.8,0.8-0.8h0.9c0.4,0,0.8,0.4,0.8,0.8S66.1,31.4,65.7,31.4z"/>
			<path class="st0" d="M86.3,31.4h-6.6c-0.4,0-0.8-0.4-0.8-0.8s0.4-0.8,0.8-0.8h6.6c0.4,0,0.8,0.4,0.8,0.8S86.7,31.4,86.3,31.4z"/>
			<path class="st0" d="M76.8,31.4h-8.2c-0.4,0-0.8-0.4-0.8-0.8s0.4-0.8,0.8-0.8h8.2c0.4,0,0.8,0.4,0.8,0.8
				C77.6,31,77.2,31.4,76.8,31.4z"/>
		</g>
		<g>
			<path class="st0" d="M83,34.8H71.4c-0.4,0-0.8-0.4-0.8-0.8c0-0.4,0.4-0.8,0.8-0.8H83c0.4,0,0.8,0.4,0.8,0.8
				C83.8,34.4,83.4,34.8,83,34.8z"/>
			<path class="st0" d="M68.1,34.8h-3.3c-0.4,0-0.8-0.4-0.8-0.8c0-0.4,0.4-0.8,0.8-0.8h3.3c0.4,0,0.8,0.4,0.8,0.8
				C68.9,34.4,68.5,34.8,68.1,34.8z"/>
			<path class="st0" d="M86.4,34.8h-0.9c-0.4,0-0.8-0.4-0.8-0.8c0-0.4,0.4-0.8,0.8-0.8h0.9c0.4,0,0.8,0.4,0.8,0.8
				C87.2,34.4,86.8,34.8,86.4,34.8z"/>
			<path class="st0" d="M65.7,38.1h-0.9c-0.4,0-0.8-0.4-0.8-0.8c0-0.4,0.4-0.8,0.8-0.8h0.9c0.4,0,0.8,0.4,0.8,0.8
				C66.5,37.7,66.1,38.1,65.7,38.1z"/>
			<path class="st0" d="M86.3,38.1h-6.6c-0.4,0-0.8-0.4-0.8-0.8c0-0.4,0.4-0.8,0.8-0.8h6.6c0.4,0,0.8,0.4,0.8,0.8
				C87.1,37.7,86.7,38.1,86.3,38.1z"/>
			<path class="st0" d="M76.8,38.1h-8.2c-0.4,0-0.8-0.4-0.8-0.8c0-0.4,0.4-0.8,0.8-0.8h8.2c0.4,0,0.8,0.4,0.8,0.8
				C77.6,37.7,77.2,38.1,76.8,38.1z"/>
		</g>
		<g>
			<path class="st0" d="M83,41.6H71.4c-0.4,0-0.8-0.4-0.8-0.8s0.4-0.8,0.8-0.8H83c0.4,0,0.8,0.4,0.8,0.8
				C83.8,41.3,83.4,41.6,83,41.6z"/>
			<path class="st0" d="M68.1,41.6h-3.3c-0.4,0-0.8-0.4-0.8-0.8s0.4-0.8,0.8-0.8h3.3c0.4,0,0.8,0.4,0.8,0.8
				C68.9,41.3,68.5,41.6,68.1,41.6z"/>
			<path class="st0" d="M86.4,41.6h-0.9c-0.4,0-0.8-0.4-0.8-0.8S85,40,85.5,40h0.9c0.4,0,0.8,0.4,0.8,0.8
				C87.2,41.3,86.8,41.6,86.4,41.6z"/>
			<path class="st0" d="M83,48.5H71.4c-0.4,0-0.8-0.4-0.8-0.8c0-0.4,0.4-0.8,0.8-0.8H83c0.4,0,0.8,0.4,0.8,0.8
				C83.8,48.1,83.4,48.5,83,48.5z"/>
			<path class="st0" d="M68.1,48.5h-3.3c-0.4,0-0.8-0.4-0.8-0.8c0-0.4,0.4-0.8,0.8-0.8h3.3c0.4,0,0.8,0.4,0.8,0.8
				C68.9,48.1,68.5,48.5,68.1,48.5z"/>
			<path class="st0" d="M86.4,48.5h-0.9c-0.4,0-0.8-0.4-0.8-0.8c0-0.4,0.4-0.8,0.8-0.8h0.9c0.4,0,0.8,0.4,0.8,0.8
				C87.2,48.1,86.8,48.5,86.4,48.5z"/>
			<path class="st0" d="M65.7,45h-0.9c-0.4,0-0.8-0.4-0.8-0.8s0.4-0.8,0.8-0.8h0.9c0.4,0,0.8,0.4,0.8,0.8S66.1,45,65.7,45z"/>
			<path class="st0" d="M86.3,45h-6.6c-0.4,0-0.8-0.4-0.8-0.8s0.4-0.8,0.8-0.8h6.6c0.4,0,0.8,0.4,0.8,0.8S86.7,45,86.3,45z"/>
			<path class="st0" d="M76.8,45h-8.2c-0.4,0-0.8-0.4-0.8-0.8s0.4-0.8,0.8-0.8h8.2c0.4,0,0.8,0.4,0.8,0.8C77.6,44.6,77.2,45,76.8,45
				z"/>
		</g>
		<rect x="99.5" y="7.4" class="st1" width="4.5" height="12.8"/>
		<path class="st3" d="M104,42.8v-3c0,1-0.3,2.1-1,3H104z"/>
		<path class="st4" d="M101,46.5c0,0.4,0.3,0.7,0.7,0.7s0.7-0.3,0.7-0.7v-0.7H101V46.5z"/>
		<path class="st0" d="M57.4,53.3h36.4c0.4,0,0.8-0.4,0.8-0.8V7.8c0-0.4-0.4-0.8-0.8-0.8h-7.4V4.5c0-0.4-0.4-0.8-0.8-0.8H65.6
			c-0.4,0-0.8,0.4-0.8,0.8V7h-7.4c-0.4,0-0.8,0.4-0.8,0.8v44.7C56.5,52.9,56.9,53.3,57.4,53.3z M66.4,8.6h18.2v3.3h-6.7
			c-0.4-1.3-1.9-1.9-3.1-1.5c-0.7,0.2-1.3,0.8-1.5,1.5h-6.7L66.4,8.6L66.4,8.6z M66.4,5.3h18.2V7H66.4V5.3z M58.2,8.6h6.6v4.1
			c0,0.4,0.4,0.8,0.8,0.8h8.2c0.4,0,0.8-0.4,0.8-0.8s0.4-0.8,0.8-0.8s0.8,0.4,0.8,0.8s0.4,0.8,0.8,0.8h8.2c0.4,0,0.8-0.4,0.8-0.8
			V8.6h6.6v43H58.2V8.6z"/>
		<path class="st0" d="M104.8,6.7L104.8,6.7c0-1.7-1.3-3.1-3-3.1c-1.6,0-3,1.3-3,3v36.1l0,0c0,0.1,0,0.1,0.1,0.2c0,0,0,0,0,0.1l0,0
			l2.2,4.3V48c0,0.4,0.3,0.7,0.7,0.7s0.7-0.3,0.7-0.7v-0.6l2.2-4.3l0,0c0,0,0,0,0-0.1c0-0.1,0.1-0.1,0.1-0.2l0,0V6.7z M100.3,21h3
			V42h-3V21z M103.3,19.4h-3V8.2h3V19.4z M101.8,5.2c0.8,0,1.5,0.7,1.5,1.5h-3C100.3,5.8,101,5.2,101.8,5.2z M101.8,45.6l-1-2.1h2.1
			L101.8,45.6z"/>
		<rect x="65.9" y="4.9" class="st0" width="19.3" height="2.3"/>
		<path class="st0" d="M69.9,22.8c0.4,0,1.2-1,1.6-1.2h0.1c0.1,0,0.1,0,0.2,0c0.3-0.1,0.5,0.1,0.8,0.2l0,0c0.1,0.1,0.2,0.1,0.4,0.2
			c-0.4,0.1-0.5,0.4-0.7,0.9c0.1,0,0.7,0.2,1.1,0.1c0.4,0,0.9-0.2,1.2-0.4c0.9,0.3,1.9,0.5,2.8,0.6c0,0.1,0,0.4,0,0.6
			c0,0.3,0,0.4,0,0.7c0.4,0,0.9-0.6,1-1.3c0.1,0,0.2,0,0.3-0.1c0.4-0.1,0.7-0.2,1.1-0.4c0.3-0.1,0.7-0.4,1-0.7
			c0.2-0.2,0.5-0.4,0.7-0.7c0.1-0.2,0.4-0.4,0.5-0.6c0.1-0.1,0.1-0.2,0.2-0.4c0.1-0.1,0.1-0.3,0.1-0.4c0-0.1-0.1-0.2-0.1-0.2
			c-0.1-0.1-0.2-0.2-0.3-0.4c-0.7-0.8-1.5-1-2.2-1.5c-0.2-0.1-0.4-0.2-0.7-0.4c-0.3-0.3-1-0.9-1.6-1c-1-0.2-2.1-0.1-2.8,0.1
			c-0.9,0.1-3.2,0.7-3.6,1c0.3,0.4,0.6,0.7,1.3,1.2l-0.1,0.1c-0.5,0.6-0.6,0.4-1,0.4l0,0c-0.4-0.1-1.3-0.8-1.9-0.9
			c-0.6-0.1-0.4,0.7-0.4,2C69.1,21.8,69.4,22.8,69.9,22.8z"/>
	</g>
	<g>
		<path class="st0" d="M108.8,6.4l5-0.1L113.7,4h-4.9L108.8,6.4z"/>
		<path class="st0" d="M110.7,52.4l1.6,0.4v-2.9h-1.6V52.4z"/>
		<path class="st0" d="M109.7,47.7v1.6h3.6v-1.6c0-0.8,0.1-2.5,0.1-3.3h-4C109.7,45.2,109.7,46.9,109.7,47.7z"/>
		<path class="st0" d="M111.4,16.6c0.4,0,0.7-0.3,0.7-0.7L112,7h-1.3l0.1,8.9C110.6,16.3,111,16.6,111.4,16.6L111.4,16.6L111.4,16.6
			z"/>
		<path class="st0" d="M112.7,15.9c0,0.7-0.6,1.3-1.3,1.3s-1.3-0.6-1.3-1.3V7h-1.2l-0.4,32.1l6.4-0.1l-0.9-32h-1.2L112.7,15.9z"/>
		<path class="st0" d="M108.7,40.4c0.3,0.7,0.5,2.5,0.7,3.2h4.2c0.1-0.8,0.4-2.5,0.7-3.3l0.2-0.7l-6.1,0.1L108.7,40.4z"/>
	</g>
	<g>
		<path class="st5" d="M41.3,10.4c-2,1.9-2.8,4.3-3.3,7c-0.1,1-0.2,1.9-0.4,2.9c-0.1,0.4-0.3,0.7-0.7,0.7c-0.1,0-0.2,0-0.4,0
			c-5.2,0-10.4,0-15.7,0c-0.2,0-0.5,0-0.7-0.1c-0.1-0.1-0.3-0.4-0.3-0.7c0.1-2.4,0.6-4.6,1.6-6.8c0.4-0.8,1-1.6,1.7-2.2
			c0.6-0.4,1.2-0.7,2-0.7c5.2,0,10.4,0,15.6,0C41,10.3,41.1,10.4,41.3,10.4z"/>
		<path class="st5" d="M28,42.9c-2.5,0-5.1,0-7.6,0c-0.8,0-1-0.2-1-1c0-4.2,0-8.4,0-12.6c0-0.8,0.2-1,1-1c5.1,0,10.2,0,15.3,0
			c0.7,0,1,0.2,1,1c0,4.3,0,8.5,0,12.7c0,0.7-0.2,1-1,1C33.2,42.9,30.6,42.9,28,42.9z"/>
		<g>
			<path class="st0" d="M52.6,16.5c-0.4-1.9-1.1-3.6-2.2-5.2c-1-1.3-2.4-2-4.2-2c-8.2,0-16.4,0-24.6,0c-1,0-1.9,0.4-2.8,1
				c-0.7,0.7-1.3,1.5-1.8,2.4c-1.3,2.5-1.8,5.1-1.9,7.9c-0.1,4.5,0,8.9-0.1,13.4c0,0.8-0.1,1.6-0.1,2.5c0,3.4,0,6.9,0,10.3
				c0.2,0.2,0.4,0.5,0.7,0.7c0.2,0,0.4,0,0.6,0c0.2-0.1,0.3-0.4,0.7-0.4s0.7,0.1,1,0.4c0.3,0,0.6,0,0.8,0c0.6-0.6,1-0.6,1.6,0
				c0.2,0,0.5,0,0.7,0c0.2-0.1,0.4-0.4,0.7-0.4c0.4,0,0.7,0.1,1,0.4c0.2,0,0.5,0,0.7,0c0.2-0.1,0.4-0.4,0.7-0.4s0.7,0.1,0.9,0.4
				c0.3,0,0.6,0,0.8,0c0.6-0.6,1-0.6,1.6,0c0.3,0,0.6,0,0.8,0c0.5-0.6,1-0.6,1.6,0c0.2,0,0.5,0,0.7,0c0.7-0.6,1-0.6,1.7,0
				c0.2,0,0.5,0,0.7,0c0.2-0.1,0.3-0.4,0.7-0.4s0.7,0.1,1,0.4c0.3,0,0.6,0,0.8,0c0.6-0.6,1-0.6,1.6,0c0.3,0,0.6,0,0.8,0
				c0.5-0.6,0.9-0.6,1.6,0c0.1,0,0.4,0,0.5,0c0.1,0,0.1-0.1,0.1-0.1c0.7-0.4,0.7-0.9,0.7-1.6c0-3.1,0-6.1,0-9.2c0-0.9,0-1.8,0-2.6
				c0-0.2,0.1-0.4,0.4-0.4c1.5,0,3,0,4.5,0c1.1,0.1,2.2-0.2,3-1c1.3-1,2-2.5,2.6-4C53.3,24.7,53.5,20.7,52.6,16.5z M23.3,11.1
				c0.6-0.4,1.2-0.7,2-0.7c5.2,0,10.4,0,15.6,0c0.1,0,0.2,0,0.4,0c-2,1.9-2.8,4.3-3.3,7c-0.1,1-0.2,1.9-0.4,2.9
				c-0.1,0.4-0.3,0.7-0.7,0.7c-0.1,0-0.2,0-0.4,0c-5.2,0-10.4,0-15.7,0c-0.2,0-0.5,0-0.7-0.1c-0.1-0.1-0.3-0.4-0.3-0.7
				c0.1-2.4,0.6-4.6,1.6-6.8C22,12.5,22.5,11.7,23.3,11.1z M41.2,16.3c-0.3,1.4-0.4,2.9-0.6,4.3c-0.1,0.9-0.1,1.9-0.1,2.8
				c0,0,0,0.1,0,0.2h-0.3c-0.2,0-0.4,0.2-0.4,0.4c0,0.2,0.2,0.4,0.4,0.4h0.3c0,3.7,0,15.5,0,21.6c-8.2,0-16.3,0-24.5,0
				c0-0.1,0-0.3,0-0.4c0-6.8,0-13.6,0-20.5c0-0.1,0-0.4,0-0.6h0.1c0.2,0,0.4-0.2,0.4-0.4c0-0.2-0.2-0.4-0.4-0.4H16
				c0-0.1,0-0.2,0-0.2c0-3,0.1-6,1.2-8.9c0.4-1.1,1-2.2,1.8-3c1-1,1.9-1.3,3.4-1.1c-2.3,2.4-3.1,5.4-3.5,8.6
				c-0.1,0.4-0.1,0.8-0.1,1.3c0,1,0.7,1.7,1.6,1.7c5.5,0,10.9,0,16.3,0c0.8,0,1.5-0.6,1.6-1.4c0.1-1,0.2-2.2,0.4-3.3
				c0.3-1.6,0.8-3.3,1.8-4.7c0.4-0.7,1-1.2,1.6-1.7c0.5-0.4,1.2-0.6,1.9-0.5v0.1C42.5,12,41.6,14.1,41.2,16.3z M43.9,32.7
				c-0.7,0-1.4,0-2.2,0c-0.2,0-0.4,0-0.4-0.3c0-1.3,0-2.8,0-4.1c0.7,1.6,1.4,3.1,2.8,4.3C44.1,32.7,44,32.7,43.9,32.7z M50.7,29
				c-0.4,1-1,1.9-1.8,2.7c-1.3,1.3-2.9,1.3-4.3,0c-1.2-1.2-1.9-2.7-2.3-4.3c-0.6-1.9-0.8-3.9-0.8-5.5c0-3.1,0.4-5.7,1.6-8.2
				c0.4-0.8,0.9-1.6,1.6-2.3c1.3-1.3,2.9-1.3,4.3,0c1.2,1.1,1.9,2.6,2.3,4.1C52.6,20.1,52.5,24.6,50.7,29z"/>
			<path class="st0" d="M35.9,27.3c-5.2,0-10.4,0-15.6,0c-1.2,0-1.9,0.7-1.9,1.8c0,4.3,0,8.6,0,13c0,1.2,0.7,1.9,1.9,1.9
				c2.6,0,5.2,0,7.8,0s5.2,0,7.8,0c1.2,0,1.9-0.7,1.9-1.9c0-4.3,0-8.6,0-12.9C37.7,27.9,37,27.3,35.9,27.3z M36.7,41.9
				c0,0.7-0.2,1-1,1c-2.5,0-5.2,0-7.7,0s-5.1,0-7.6,0c-0.8,0-1-0.2-1-1c0-4.2,0-8.4,0-12.6c0-0.8,0.2-1,1-1c5.1,0,10.2,0,15.3,0
				c0.7,0,1,0.2,1,1C36.7,33.5,36.7,37.7,36.7,41.9z"/>
			<path class="st0" d="M49.7,20.1c-0.1-0.8-0.3-1.7-0.7-2.5c-0.7-1.1-2.1-2.2-3.4-1.3c-0.4,0.3-0.7,0.7-0.9,1.1
				c-1,1.7-1.1,3.7-0.8,5.7c0.1,1,0.4,2,1,2.8c0.4,0.6,1.2,1.1,1.9,1.1c0.8-0.1,1.4-0.7,1.9-1.3c0.8-1.3,1-3,1-4.6
				C49.8,20.8,49.8,20.4,49.7,20.1z M48.8,22.5c-0.1,1-0.4,2.2-1,3c-0.2,0.3-0.4,0.5-0.8,0.6c-0.4,0.1-0.9-0.3-1.1-0.7
				c-0.7-0.9-0.9-2.1-1-3.2c0-0.2,0-0.4,0-0.7c0-1.1,0.2-2.2,0.7-3.2c0.1-0.3,0.3-0.7,0.6-0.9c1-1,1.9,0.1,2.3,1
				C48.8,19.7,49,21.2,48.8,22.5z"/>
			<path class="st0" d="M19.1,24.1c0-0.2-0.2-0.4-0.4-0.4h-0.7c-0.2,0-0.4,0.2-0.4,0.4c0,0.2,0.2,0.4,0.4,0.4h0.6
				C18.8,24.6,19.1,24.3,19.1,24.1z"/>
			<path class="st0" d="M20.4,24.6H21c0.2,0,0.4-0.2,0.4-0.4c0-0.2-0.2-0.4-0.4-0.4h-0.6c-0.2,0-0.4,0.2-0.4,0.4
				C20,24.3,20.2,24.6,20.4,24.6z"/>
			<path class="st0" d="M22.9,24.6h0.6c0.2,0,0.4-0.2,0.4-0.4c0-0.2-0.2-0.4-0.4-0.4h-0.6c-0.2,0-0.4,0.2-0.4,0.4
				C22.4,24.3,22.7,24.6,22.9,24.6z"/>
			<path class="st0" d="M25.4,24.6H26c0.2,0,0.4-0.2,0.4-0.4c0-0.2-0.2-0.4-0.4-0.4h-0.6c-0.2,0-0.4,0.2-0.4,0.4
				C24.9,24.3,25.1,24.6,25.4,24.6z"/>
			<path class="st0" d="M27.8,24.6h0.6c0.2,0,0.4-0.2,0.4-0.4c0-0.2-0.2-0.4-0.4-0.4h-0.6c-0.2,0-0.4,0.2-0.4,0.4
				C27.4,24.3,27.6,24.6,27.8,24.6z"/>
			<path class="st0" d="M30.3,24.6h0.6c0.2,0,0.4-0.2,0.4-0.4c0-0.2-0.2-0.4-0.4-0.4h-0.6c-0.2,0-0.4,0.2-0.4,0.4
				C29.9,24.3,30.1,24.6,30.3,24.6z"/>
			<path class="st0" d="M32.8,24.6h0.6c0.2,0,0.4-0.2,0.4-0.4c0-0.2-0.2-0.4-0.4-0.4h-0.6c-0.2,0-0.4,0.2-0.4,0.4
				C32.3,24.3,32.6,24.6,32.8,24.6z"/>
			<path class="st0" d="M35.3,24.6h0.6c0.2,0,0.4-0.2,0.4-0.4c0-0.2-0.2-0.4-0.4-0.4h-0.6c-0.2,0-0.4,0.2-0.4,0.4
				C34.8,24.3,35,24.6,35.3,24.6z"/>
			<path class="st0" d="M38.3,23.7h-0.6c-0.2,0-0.4,0.2-0.4,0.4c0,0.2,0.2,0.4,0.4,0.4h0.6c0.2,0,0.4-0.2,0.4-0.4
				C38.7,23.9,38.6,23.7,38.3,23.7z"/>
			<path class="st0" d="M21.6,32.2h2.1c0.3,0,0.5-0.2,0.5-0.5c0-0.3-0.2-0.5-0.5-0.5h-2.1c-0.3,0-0.5,0.2-0.5,0.5
				C21.1,32,21.3,32.2,21.6,32.2z"/>
			<path class="st0" d="M31.6,33.8h-10c-0.3,0-0.5,0.2-0.5,0.5c0,0.3,0.2,0.5,0.5,0.5h10c0.3,0,0.5-0.2,0.5-0.5S31.9,33.8,31.6,33.8
				z"/>
			<path class="st0" d="M23.9,14.1H26c0.3,0,0.5-0.2,0.5-0.5c0-0.3-0.2-0.5-0.5-0.5h-2.1c-0.3,0-0.5,0.2-0.5,0.5
				C23.4,13.8,23.6,14.1,23.9,14.1z"/>
			<path class="st0" d="M33.9,15.7h-10c-0.3,0-0.5,0.2-0.5,0.5c0,0.3,0.2,0.5,0.5,0.5h10c0.3,0,0.5-0.2,0.5-0.5
				C34.4,15.9,34.1,15.7,33.9,15.7z"/>
			<path class="st0" d="M31.6,36.4h-10c-0.3,0-0.5,0.2-0.5,0.5c0,0.3,0.2,0.5,0.5,0.5h10c0.3,0,0.5-0.2,0.5-0.5S31.9,36.4,31.6,36.4
				z"/>
		</g>
	</g>
</g>
</svg>
