<?xml version="1.0" encoding="utf-8"?>
<!-- Generator: Adobe Illustrator 25.2.1, SVG Export Plug-In . SVG Version: 6.00 Build 0)  -->
<svg version="1.1" id="Layer_1" xmlns="http://www.w3.org/2000/svg" xmlns:xlink="http://www.w3.org/1999/xlink" x="0px" y="0px"
	 viewBox="0 0 141.7 141.7" style="enable-background:new 0 0 141.7 141.7;" xml:space="preserve">
<style type="text/css">
	.st0{fill:#1A4985;}
	.st1{fill:#FFFFFF;}
	.st2{fill:#255186;}
	.st3{fill:#E3AE23;}
	.st4{fill:#ED2849;}
	.st5{fill:#E8EDF3;}
	.st6{fill:#FFCA38;}
	.st7{fill:#231F20;}
	.st8{fill:#FFEFC3;}
	.st9{fill:#FABAC8;}
	.st10{fill:#E4F5F6;}
	.st11{fill:#F36081;}
	.st12{fill:#DBF2F4;stroke:#1A4985;stroke-width:1.0554;stroke-miterlimit:10;}
	.st13{fill:#E9F7F8;stroke:#1A4985;stroke-width:1.0554;stroke-miterlimit:10;}
	.st14{fill-rule:evenodd;clip-rule:evenodd;fill:#1A4985;}
	.st15{fill:#F8A3B6;}
	.st16{fill:#FFFFFF;stroke:#1A4985;stroke-width:1.114;stroke-miterlimit:10;}
	.st17{fill:none;stroke:#1A4985;stroke-width:0.8355;stroke-linecap:round;stroke-linejoin:round;}
	.st18{fill:none;stroke:#1A4985;stroke-width:0.8355;stroke-linecap:round;stroke-linejoin:round;stroke-dasharray:2.119,2.119;}
	.st19{fill:#FFFFFF;stroke:#1A4985;stroke-width:1.2292;stroke-miterlimit:10;}
	.st20{fill:#88522E;}
	.st21{fill:#8D64AA;}
	.st22{fill:#9F532A;}
	.st23{fill:#B12E20;}
	.st24{fill:#F1FAFA;}
</style>
<g>
	<path class="st0" d="M108.4,59.4V29.2c0-1.1-1.2-1.7-2.1-1.2c-4.7,3-7.3,7.8-7.5,13.9c-0.2,5.5,1.6,10.5,2.1,11.8
		c0.7,1.7,1,3.5,1,5.4c-0.8,0.6-1.3,1.6-1.3,2.6v55.9c0,1.9,1.5,3.4,3.4,3.4h1.9c1.9,0,3.4-1.5,3.4-3.4V94.9V93c0-6.9,0-30.4,0-31.2
		C109.5,60.9,109.1,60,108.4,59.4z M106.7,61.9v3.9h-3.3v-3.9c0-0.4,0.3-0.6,0.7-0.6h1.9C106.4,61.2,106.7,61.5,106.7,61.9z
		 M105.7,32v26.5h-1c-0.1-2-0.4-3.9-1.2-5.7C102.9,51.3,98.4,39,105.7,32z M106.7,117.8c0,0.4-0.3,0.6-0.7,0.6h-1.9
		c-0.4,0-0.7-0.3-0.7-0.6V68.5h3.3V93v0.5V117.8z"/>
	<path class="st0" d="M87.8,34.7l-4.4-6.2c-1.1-1.6-3.6-0.4-3.1,1.5l2.1,7.2c0.8,2.6,0.8-0.4-5.8,52c-6.6-52.4-6.5-49.4-5.8-52
		l2.1-7.2c0.5-1.9-1.9-3.1-3.1-1.5l-4.4,6.2c-1.8,2.5-2.5,5.5-2.2,8.5l9.2,75.2c0.2,1.5,1.5,2.7,3,2.7h2.2c1.5,0,2.9-1.2,3-2.7
		l6.1-50c0-0.1,0-0.2,0-0.3l3.1-24.9C90.3,40.2,89.5,37.2,87.8,34.7z M78,118.2c0,0.2-0.2,0.3-0.3,0.3h-2.2c-0.2,0-0.3-0.1-0.3-0.3
		l-1.1-9.1c1.6,1,3.5,1,5.1,0L78,118.2z M74.4,104.9c0-1.2,1-2.2,2.2-2.2c1.2,0,2.2,1,2.2,2.2c0,1.2-1,2.2-2.2,2.2
		C75.4,107,74.4,106.1,74.4,104.9z M87.2,42.9l-3.4,27.6c0,0.1,0,0.2,0,0.3l-3.7,30.5c-1.9-1.9-5-1.9-7,0L66,42.9
		c-0.5-4,1.5-6.4,2.6-7.9c-0.5,1.8-1.2,3.6-0.8,6.4l6.9,55c0.3,2.2,3.4,2.2,3.7,0l6.9-55c0.4-2.8-0.3-4.6-0.8-6.4
		C85.6,36.5,87.7,38.9,87.2,42.9z"/>
	<path class="st0" d="M38.3,28c-1.4-0.3-2.7,0.6-3,2c0,0-1.3,6.6-3.3,16.4C30,36.7,28.7,30,28.7,30c-0.3-1.4-1.6-2.3-3-2
		c-1.4,0.3-2.3,1.6-2,3l5.7,28.4c-2.7,13.8-6,30-8.5,43l-0.5-0.5c-4.2-4.2-11-4.2-15.2,0c-2.9,2.9-5.7,9.5,0.8,15.9
		c2.8,2.8,6.9,3.8,10.7,2.7c3.8-1.2,6.6-4.3,7.4-8.2l7.9-40l8.1,40c0.8,3.9,3.6,7,7.4,8.2c3.8,1.1,7.9,0.1,10.7-2.7
		c6.5-6.5,3.6-13.1,0.7-15.9c-4.2-4.2-11-4.2-15.2,0l-0.5,0.5c-2.6-13-5.9-29.2-8.7-43L40.3,31C40.5,29.6,39.6,28.3,38.3,28z
		 M19.7,108.4c-0.2,1-0.4,2-0.6,3c-0.4,2-1.9,3.7-3.9,4.3c-2,0.6-4.1,0.1-5.6-1.4c-4.7-4.7-1.2-8.3-0.8-8.7c2.2-2.2,5.8-2.2,8,0
		L19.7,108.4z M47.4,105.5c2.2-2.2,5.8-2.2,8,0c0.4,0.4,3.9,4-0.7,8.7c-1.5,1.5-3.6,2-5.6,1.4c-2-0.6-3.5-2.2-3.9-4.3
		c-0.2-1-0.4-1.9-0.6-3L47.4,105.5L47.4,105.5z"/>
	<path class="st0" d="M132.6,116.4c0-1.6-0.2-29.9-0.2-31.3c0.2-12.5,0.9-25,2.7-34.9c0.8-4.5,1.6-8.7,2.2-13.1l0.1-0.5l-12-11.9
		c-0.5-0.5-1.4-0.6-2-0.1c-0.6,0.4-0.8,1.2-0.4,2l7.9,13c0,0.3-0.1,0.7-0.2,1l-11.4-11.2c-0.5-0.5-1.4-0.6-2.1-0.1
		c-0.7,0.5-0.9,1.3-0.5,2.1l7.7,12.6c0,0,2,70.8,2,72.4c0,2.6,0.1,4.3,3,4.3C132.9,120.8,132.6,119.1,132.6,116.4z M120.9,33.9
		l9.6,9.3c-0.1,0.8-0.3,1.6-0.4,2.4c-0.4,2.1-0.7,4.2-1.1,6.3c-0.2,1.1-0.4,2.3-0.6,3.5c0,0.1,0,0.1,0,0.2c0,0.2-0.1,0.3-0.1,0.4
		c0,0.1,0,0.2-0.1,0.3c-0.1,0.7-0.2,1.4-0.4,2.1c0,0.1,0,0.2-0.1,0.3l0,0.2c0,0,0,0,0,0.1c-0.2,1.4-0.5,2.9-0.7,4.4l-0.2-19.9
		L120.9,33.9z"/>
</g>
</svg>
