<?xml version="1.0" encoding="utf-8"?>
<!-- Generator: Adobe Illustrator 25.2.1, SVG Export Plug-In . SVG Version: 6.00 Build 0)  -->
<svg version="1.1" id="Layer_1" xmlns="http://www.w3.org/2000/svg" xmlns:xlink="http://www.w3.org/1999/xlink" x="0px" y="0px"
	 viewBox="0 0 141.7 141.7" style="enable-background:new 0 0 141.7 141.7;" xml:space="preserve">
<style type="text/css">
	.st0{fill:#1A4985;}
	.st1{fill:#FFFFFF;}
	.st2{fill:#255186;}
	.st3{fill:#E3AE23;}
	.st4{fill:#ED2849;}
	.st5{fill:#E8EDF3;}
	.st6{fill:#FFCA38;}
	.st7{fill:#231F20;}
	.st8{fill:#FFEFC3;}
	.st9{fill:#FABAC8;}
	.st10{fill:#E4F5F6;}
	.st11{fill:#F36081;}
	.st12{fill:#DBF2F4;stroke:#1A4985;stroke-width:1.0554;stroke-miterlimit:10;}
	.st13{fill:#E9F7F8;stroke:#1A4985;stroke-width:1.0554;stroke-miterlimit:10;}
	.st14{fill-rule:evenodd;clip-rule:evenodd;fill:#1A4985;}
	.st15{fill:#F8A3B6;}
	.st16{fill:#FFFFFF;stroke:#1A4985;stroke-width:1.114;stroke-miterlimit:10;}
	.st17{fill:none;stroke:#1A4985;stroke-width:0.8355;stroke-linecap:round;stroke-linejoin:round;}
	.st18{fill:none;stroke:#1A4985;stroke-width:0.8355;stroke-linecap:round;stroke-linejoin:round;stroke-dasharray:2.119,2.119;}
	.st19{fill:#FFFFFF;stroke:#1A4985;stroke-width:1.2292;stroke-miterlimit:10;}
	.st20{fill:#88522E;}
	.st21{fill:#8D64AA;}
	.st22{fill:#9F532A;}
	.st23{fill:#B12E20;}
	.st24{fill:#F1FAFA;}
</style>
<g>
	<g>
		<g>
			<path class="st0" d="M120.1,39.5c-1.7,0-3,1.3-3,3v1h6v-1C123.1,40.8,121.8,39.5,120.1,39.5z"/>
			<rect x="117.1" y="60.5" class="st0" width="6" height="30.1"/>
		</g>
		<polygon class="st1" points="117.1,90.7 123.1,90.7 120.1,96.7 		"/>
		<rect x="60.8" y="44" class="st1" width="48.6" height="59.6"/>
		<g>
			<path class="st2" d="M98.3,51.7h-11c-0.6,0-1.1-0.5-1.1-1.1c0-0.6-0.5-1.1-1.1-1.1c-0.6,0-1.1,0.5-1.1,1.1c0,0.6-0.5,1.1-1.1,1.1
				h-11c-0.6,0-1.1-0.5-1.1-1.1V44h2.2v5.5h9c0.6-1.7,2.5-2.6,4.2-2c0.9,0.3,1.7,1.1,2,2h9V44h2.2v6.6
				C99.4,51.2,98.9,51.7,98.3,51.7z"/>
		</g>
		<g>
			<path class="st0" d="M95,71.1H79.5c-0.6,0-1.1-0.5-1.1-1.1c0-0.6,0.5-1.1,1.1-1.1H95c0.6,0,1.1,0.5,1.1,1.1
				C96.1,70.6,95.6,71.1,95,71.1z"/>
			<path class="st0" d="M75.1,71.1h-4.4c-0.6,0-1.1-0.5-1.1-1.1c0-0.6,0.5-1.1,1.1-1.1h4.4c0.6,0,1.1,0.5,1.1,1.1
				C76.2,70.6,75.7,71.1,75.1,71.1z"/>
			<path class="st0" d="M99.5,71.1h-1.2c-0.6,0-1.1-0.5-1.1-1.1c0-0.6,0.5-1.1,1.1-1.1h1.2c0.6,0,1.1,0.5,1.1,1.1
				C100.6,70.6,100.1,71.1,99.5,71.1z"/>
			<path class="st0" d="M71.9,75.5h-1.2c-0.6,0-1.1-0.5-1.1-1.1c0-0.6,0.5-1.1,1.1-1.1h1.2c0.6,0,1.1,0.5,1.1,1.1
				C73,75,72.5,75.5,71.9,75.5z"/>
			<path class="st0" d="M99.4,75.5h-8.8c-0.6,0-1.1-0.5-1.1-1.1c0-0.6,0.5-1.1,1.1-1.1h8.8c0.6,0,1.1,0.5,1.1,1.1
				C100.5,75,100,75.5,99.4,75.5z"/>
			<path class="st0" d="M86.7,75.5h-11c-0.6,0-1.1-0.5-1.1-1.1c0-0.6,0.5-1.1,1.1-1.1h11c0.6,0,1.1,0.5,1.1,1.1
				C87.8,75,87.3,75.5,86.7,75.5z"/>
		</g>
		<g>
			<path class="st0" d="M95,80.1H79.5c-0.6,0-1.1-0.5-1.1-1.1c0-0.6,0.5-1.1,1.1-1.1H95c0.6,0,1.1,0.5,1.1,1.1
				C96.1,79.6,95.6,80.1,95,80.1z"/>
			<path class="st0" d="M75.1,80.1h-4.4c-0.6,0-1.1-0.5-1.1-1.1c0-0.6,0.5-1.1,1.1-1.1h4.4c0.6,0,1.1,0.5,1.1,1.1
				C76.2,79.6,75.7,80.1,75.1,80.1z"/>
			<path class="st0" d="M99.5,80.1h-1.2c-0.6,0-1.1-0.5-1.1-1.1c0-0.6,0.5-1.1,1.1-1.1h1.2c0.6,0,1.1,0.5,1.1,1.1
				C100.6,79.6,100.1,80.1,99.5,80.1z"/>
			<path class="st0" d="M71.9,84.5h-1.2c-0.6,0-1.1-0.5-1.1-1.1c0-0.6,0.5-1.1,1.1-1.1h1.2c0.6,0,1.1,0.5,1.1,1.1
				C73,84,72.5,84.5,71.9,84.5z"/>
			<path class="st0" d="M99.4,84.5h-8.8c-0.6,0-1.1-0.5-1.1-1.1c0-0.6,0.5-1.1,1.1-1.1h8.8c0.6,0,1.1,0.5,1.1,1.1
				C100.5,84,100,84.5,99.4,84.5z"/>
			<path class="st0" d="M86.7,84.5h-11c-0.6,0-1.1-0.5-1.1-1.1c0-0.6,0.5-1.1,1.1-1.1h11c0.6,0,1.1,0.5,1.1,1.1
				C87.8,84,87.3,84.5,86.7,84.5z"/>
		</g>
		<g>
			<path class="st0" d="M95,89.2H79.5c-0.6,0-1.1-0.5-1.1-1.1c0-0.6,0.5-1.1,1.1-1.1H95c0.6,0,1.1,0.5,1.1,1.1
				C96.1,88.8,95.6,89.2,95,89.2z"/>
			<path class="st0" d="M75.1,89.2h-4.4c-0.6,0-1.1-0.5-1.1-1.1c0-0.6,0.5-1.1,1.1-1.1h4.4c0.6,0,1.1,0.5,1.1,1.1
				C76.2,88.8,75.7,89.2,75.1,89.2z"/>
			<path class="st0" d="M99.5,89.2h-1.2c-0.6,0-1.1-0.5-1.1-1.1c0-0.6,0.5-1.1,1.1-1.1h1.2c0.6,0,1.1,0.5,1.1,1.1
				C100.6,88.8,100.1,89.2,99.5,89.2z"/>
			<path class="st0" d="M95,98.3H79.5c-0.6,0-1.1-0.5-1.1-1.1c0-0.6,0.5-1.1,1.1-1.1H95c0.6,0,1.1,0.5,1.1,1.1
				C96.1,97.8,95.6,98.3,95,98.3z"/>
			<path class="st0" d="M75.1,98.3h-4.4c-0.6,0-1.1-0.5-1.1-1.1c0-0.6,0.5-1.1,1.1-1.1h4.4c0.6,0,1.1,0.5,1.1,1.1
				C76.2,97.8,75.7,98.3,75.1,98.3z"/>
			<path class="st0" d="M99.5,98.3h-1.2c-0.6,0-1.1-0.5-1.1-1.1c0-0.6,0.5-1.1,1.1-1.1h1.2c0.6,0,1.1,0.5,1.1,1.1
				C100.6,97.8,100.1,98.3,99.5,98.3z"/>
			<path class="st0" d="M71.9,93.7h-1.2c-0.6,0-1.1-0.5-1.1-1.1c0-0.6,0.5-1.1,1.1-1.1h1.2c0.6,0,1.1,0.5,1.1,1.1
				C73,93.2,72.5,93.7,71.9,93.7z"/>
			<path class="st0" d="M99.4,93.7h-8.8c-0.6,0-1.1-0.5-1.1-1.1c0-0.6,0.5-1.1,1.1-1.1h8.8c0.6,0,1.1,0.5,1.1,1.1
				C100.5,93.2,100,93.7,99.4,93.7z"/>
			<path class="st0" d="M86.7,93.7h-11c-0.6,0-1.1-0.5-1.1-1.1c0-0.6,0.5-1.1,1.1-1.1h11c0.6,0,1.1,0.5,1.1,1.1
				C87.8,93.2,87.3,93.7,86.7,93.7z"/>
		</g>
		<rect x="117.1" y="43.5" class="st1" width="6" height="17.1"/>
		<path class="st3" d="M123.1,90.7v-4c0,1.4-0.4,2.8-1.3,4H123.1z"/>
		<path class="st4" d="M119.1,95.7c0,0.6,0.4,1,1,1c0.6,0,1-0.4,1-1v-1h-2V95.7z"/>
		<path class="st0" d="M60.8,104.7h48.6c0.6,0,1.1-0.5,1.1-1.1V44c0-0.6-0.5-1.1-1.1-1.1h-9.9v-3.3c0-0.6-0.5-1.1-1.1-1.1H71.8
			c-0.6,0-1.1,0.5-1.1,1.1v3.3h-9.9c-0.6,0-1.1,0.5-1.1,1.1v59.6C59.7,104.2,60.2,104.7,60.8,104.7z M72.9,45.1h24.3v4.4h-9
			c-0.6-1.7-2.5-2.6-4.2-2c-0.9,0.3-1.7,1.1-2,2h-9V45.1z M72.9,40.7h24.3v2.2H72.9V40.7z M61.9,45.1h8.8v5.5c0,0.6,0.5,1.1,1.1,1.1
			h11c0.6,0,1.1-0.5,1.1-1.1c0-0.6,0.5-1.1,1.1-1.1c0.6,0,1.1,0.5,1.1,1.1c0,0.6,0.5,1.1,1.1,1.1h11c0.6,0,1.1-0.5,1.1-1.1v-5.5h8.8
			v57.4H61.9V45.1z"/>
		<path class="st0" d="M124.1,42.6v-0.1c0-2.2-1.8-4-4-4c-2.2,0-4,1.8-4,4v48.2c0,0,0,0,0,0c0,0.1,0,0.2,0.1,0.3c0,0,0,0,0,0.1
			c0,0,0,0,0,0l2.9,5.8v0.8c0,0.6,0.4,1,1,1c0.6,0,1-0.4,1-1v-0.8l2.9-5.8c0,0,0,0,0,0c0,0,0,0,0-0.1c0-0.1,0.1-0.2,0.1-0.3
			c0,0,0,0,0,0L124.1,42.6z M118.1,61.6h4v28.1h-4V61.6z M122.1,59.5h-4V44.5h4V59.5z M120.1,40.5c1.1,0,2,0.9,2,2h-4
			C118.1,41.4,119,40.5,120.1,40.5z M120.1,94.5l-1.4-2.8h2.8L120.1,94.5z"/>
		<rect x="72.2" y="40.1" class="st0" width="25.7" height="3.1"/>
		<path class="st0" d="M77.5,64.1c0.5,0,1.6-1.4,2.1-1.6c0,0,0.1,0,0.1,0c0.1,0,0.2,0,0.3,0c0.4-0.1,0.7,0.1,1.1,0.3c0,0,0,0,0,0
			c0.1,0.1,0.3,0.2,0.5,0.3c-0.5,0.2-0.7,0.6-1,1.2c0.2,0,0.9,0.3,1.5,0.2c0.6,0,1.2-0.3,1.6-0.5c1.2,0.4,2.6,0.7,3.8,0.8
			c0,0.2,0,0.5,0,0.8c0,0.4,0,0.6,0,0.9c0.6,0,1.2-0.8,1.4-1.8c0.1,0,0.3,0,0.4-0.1c0.5-0.1,1-0.3,1.5-0.6c0.4-0.2,0.9-0.5,1.3-0.9
			c0.3-0.3,0.7-0.6,1-0.9c0.2-0.3,0.5-0.5,0.7-0.8c0.1-0.2,0.2-0.3,0.3-0.5c0.1-0.2,0.1-0.4,0.1-0.6c0-0.1-0.2-0.3-0.2-0.3
			c-0.1-0.2-0.3-0.3-0.4-0.5c-0.9-1.1-2-1.4-2.9-2c-0.3-0.2-0.6-0.3-0.9-0.5c-0.4-0.4-1.4-1.2-2.1-1.3c-1.4-0.3-2.8-0.1-3.8,0.1
			c-1.2,0.2-4.3,0.9-4.8,1.4c0.4,0.5,0.8,0.9,1.7,1.6c0,0-0.1,0.1-0.1,0.1c-0.7,0.8-0.8,0.6-1.3,0.6c0,0,0,0,0,0
			c-0.5-0.1-1.8-1.1-2.5-1.2c-0.8-0.1-0.6,1-0.5,2.7C76.5,62.7,76.9,64.1,77.5,64.1z"/>
	</g>
	<g>
		<path class="st0" d="M129.4,42.1l6.7-0.1L136,39l-6.5,0L129.4,42.1z"/>
		<path class="st0" d="M132,103.6l2.2,0.5l0-3.9l-2.2,0L132,103.6z"/>
		<path class="st0" d="M130.7,97.3l0,2.1l4.8,0l0-2.1c0-1.1,0.1-3.4,0.2-4.4l-5.3,0C130.6,93.9,130.7,96.2,130.7,97.3z"/>
		<path class="st0" d="M132.9,55.8c0.5,0,0.9-0.4,0.9-0.9L133.7,43l-1.8,0l0.1,11.9C131.9,55.4,132.4,55.8,132.9,55.8
			C132.9,55.8,132.9,55.8,132.9,55.8L132.9,55.8z"/>
		<path class="st0" d="M134.6,54.8c0,1-0.8,1.8-1.8,1.8c-1,0-1.8-0.8-1.8-1.8L131,43l-1.6,0l-0.6,42.8l8.5-0.1L136.1,43l-1.6,0
			L134.6,54.8z"/>
		<path class="st0" d="M129.3,87.6c0.4,1,0.7,3.3,0.9,4.3l5.6,0c0.2-1.1,0.5-3.3,0.9-4.4l0.3-1l-8.1,0.1L129.3,87.6z"/>
	</g>
	<g>
		<path class="st5" d="M39.3,47.5c-2.7,2.6-3.8,5.8-4.4,9.3c-0.2,1.3-0.3,2.6-0.5,3.9c-0.1,0.6-0.4,0.9-1,1c-0.2,0-0.3,0-0.5,0
			c-7,0-13.9,0-20.9,0c-0.3,0-0.7,0-1-0.2c-0.2-0.2-0.4-0.6-0.4-0.9c0.2-3.2,0.8-6.2,2.2-9.1c0.6-1.1,1.3-2.2,2.3-3
			c0.8-0.6,1.6-1,2.7-1c6.9,0,13.9,0,20.8,0C38.9,47.4,39.1,47.5,39.3,47.5z"/>
		<path class="st5" d="M21.6,90.9c-3.4,0-6.8,0-10.2,0c-1.1,0-1.4-0.3-1.4-1.4c0-5.6,0-11.2,0-16.8c0-1.1,0.3-1.4,1.4-1.4
			c6.8,0,13.6,0,20.4,0c1,0,1.4,0.3,1.4,1.3c0,5.7,0,11.3,0,17c0,1-0.3,1.3-1.3,1.3C28.5,90.9,25.1,90.9,21.6,90.9z"/>
		<g>
			<path class="st0" d="M54.4,55.7c-0.5-2.5-1.5-4.8-3-6.9c-1.4-1.8-3.2-2.7-5.6-2.7c-10.9,0-21.9,0-32.8,0c-1.4,0-2.6,0.5-3.7,1.4
				c-1,0.9-1.8,2-2.4,3.2c-1.7,3.3-2.4,6.8-2.5,10.5c-0.1,6,0,11.9-0.1,17.9c0,1.1-0.1,2.2-0.1,3.3c0,4.6,0,9.2,0,13.7
				c0.3,0.3,0.6,0.7,0.9,1c0.3,0,0.5,0,0.8,0c0.3-0.2,0.4-0.6,0.9-0.6c0.5,0,1,0.1,1.3,0.6c0.4,0,0.8,0,1.1,0c0.8-0.8,1.3-0.8,2.2,0
				c0.3,0,0.7,0,1,0c0.3-0.2,0.5-0.6,1-0.6c0.6,0,1,0.2,1.3,0.6c0.3,0,0.7,0,1,0c0.3-0.2,0.5-0.6,1-0.6c0.5,0,0.9,0.1,1.2,0.6
				c0.4,0,0.8,0,1.1,0c0.8-0.8,1.4-0.8,2.2,0c0.4,0,0.8,0,1.1,0c0.7-0.8,1.3-0.8,2.2,0c0.3,0,0.7,0,1,0c1-0.8,1.3-0.8,2.3,0
				c0.3,0,0.7,0,1,0c0.3-0.2,0.4-0.6,0.9-0.6c0.5,0,1,0.1,1.3,0.6c0.4,0,0.8,0,1.1,0c0.8-0.8,1.3-0.8,2.2,0c0.4,0,0.8,0,1.1,0
				c0.7-0.8,1.2-0.8,2.2,0c0.2,0,0.5,0,0.7,0c0.1,0,0.1-0.1,0.2-0.1c0.9-0.5,1-1.2,1-2.1c0-4.1,0-8.2,0-12.3c0-1.2,0-2.4,0-3.5
				c0-0.3,0.1-0.5,0.5-0.5c2,0,4,0,6,0c1.5,0.1,2.9-0.3,4-1.3c1.7-1.4,2.7-3.3,3.5-5.4C55.4,66.6,55.6,61.2,54.4,55.7z M15.3,48.4
				c0.8-0.6,1.6-1,2.7-1c6.9,0,13.9,0,20.8,0c0.1,0,0.3,0,0.5,0c-2.7,2.6-3.8,5.8-4.4,9.3c-0.2,1.3-0.3,2.6-0.5,3.9
				c-0.1,0.6-0.4,0.9-1,1c-0.2,0-0.3,0-0.5,0c-7,0-13.9,0-20.9,0c-0.3,0-0.7,0-1-0.2c-0.2-0.2-0.4-0.6-0.4-0.9
				c0.2-3.2,0.8-6.2,2.2-9.1C13.6,50.3,14.3,49.3,15.3,48.4z M39.2,55.4c-0.4,1.9-0.6,3.9-0.8,5.8c-0.1,1.2-0.1,2.5-0.1,3.8
				c0,0,0,0.1,0,0.3h-0.4c-0.3,0-0.6,0.3-0.6,0.6c0,0.3,0.3,0.6,0.6,0.6h0.4c0,4.9,0,20.7,0,28.8c-10.9,0-21.7,0-32.7,0
				c0-0.2,0-0.4,0-0.6c0-9.1,0-18.2,0-27.4c0-0.1,0-0.5,0-0.8h0.2c0.3,0,0.6-0.3,0.6-0.6c0-0.3-0.3-0.6-0.6-0.6H5.6
				c0-0.2,0-0.3,0-0.3c0-4,0.1-8,1.6-11.9c0.6-1.5,1.3-2.9,2.4-4c1.3-1.3,2.5-1.7,4.6-1.5c-3.1,3.2-4.2,7.2-4.7,11.5
				c-0.1,0.6-0.1,1.1-0.1,1.7c0,1.3,0.9,2.3,2.2,2.3c7.3,0,14.5,0,21.8,0c1.1,0,2-0.8,2.2-1.9c0.2-1.4,0.3-2.9,0.6-4.4
				c0.4-2.2,1.1-4.4,2.4-6.3c0.6-0.9,1.3-1.6,2.1-2.3c0.7-0.6,1.6-0.8,2.5-0.7c0,0,0,0.1,0,0.1C41,49.7,39.8,52.4,39.2,55.4z
				 M42.9,77.2c-1,0-1.9,0-2.9,0c-0.3,0-0.5,0-0.5-0.4c0-1.8,0-3.7,0-5.5c0.9,2.1,1.9,4.1,3.7,5.8C43.1,77.2,43,77.2,42.9,77.2z
				 M51.9,72.3c-0.5,1.4-1.3,2.6-2.4,3.6c-1.8,1.7-3.9,1.7-5.7,0c-1.6-1.6-2.5-3.6-3.1-5.7c-0.8-2.6-1.1-5.2-1.1-7.4
				c0-4.1,0.6-7.6,2.1-10.9c0.5-1.1,1.2-2.2,2.1-3.1c1.8-1.7,3.9-1.7,5.7,0c1.6,1.5,2.5,3.5,3.1,5.5C54.4,60.4,54.3,66.4,51.9,72.3z
				"/>
			<path class="st0" d="M32.1,70c-6.9,0-13.9,0-20.8,0c-1.6,0-2.5,0.9-2.5,2.4c0,5.8,0,11.5,0,17.3c0,1.6,0.9,2.5,2.5,2.5
				c3.5,0,6.9,0,10.4,0c3.5,0,6.9,0,10.4,0c1.6,0,2.5-0.9,2.5-2.5c0-5.7,0-11.5,0-17.2C34.5,70.9,33.6,70,32.1,70z M33.2,89.6
				c0,1-0.3,1.3-1.3,1.3c-3.4,0-6.9,0-10.3,0c-3.4,0-6.8,0-10.2,0c-1.1,0-1.4-0.3-1.4-1.4c0-5.6,0-11.2,0-16.8
				c0-1.1,0.3-1.4,1.4-1.4c6.8,0,13.6,0,20.4,0c1,0,1.4,0.3,1.4,1.3C33.2,78.3,33.2,83.9,33.2,89.6z"/>
			<path class="st0" d="M50.6,60.4c-0.1-1.1-0.4-2.3-0.9-3.3c-0.9-1.5-2.8-2.9-4.5-1.7c-0.5,0.4-0.9,0.9-1.2,1.5
				c-1.3,2.3-1.5,5-1.1,7.6c0.2,1.3,0.6,2.7,1.4,3.8c0.6,0.8,1.6,1.5,2.6,1.5c1.1-0.1,1.9-0.9,2.5-1.8c1.1-1.8,1.4-4,1.4-6.1
				C50.7,61.4,50.7,60.9,50.6,60.4z M49.4,63.7c-0.2,1.4-0.6,2.9-1.4,4c-0.3,0.4-0.6,0.7-1.1,0.8c-0.6,0.1-1.2-0.4-1.5-0.9
				c-0.9-1.2-1.2-2.8-1.3-4.3c0-0.3,0-0.6,0-0.9c0-1.5,0.3-3,0.9-4.3c0.2-0.4,0.4-0.9,0.8-1.2c1.3-1.3,2.6,0.2,3.1,1.4
				C49.4,59.9,49.6,61.9,49.4,63.7z"/>
			<path class="st0" d="M9.7,65.8c0-0.3-0.3-0.6-0.6-0.6H8.2c-0.3,0-0.6,0.3-0.6,0.6c0,0.3,0.3,0.6,0.6,0.6h0.8
				C9.4,66.4,9.7,66.1,9.7,65.8z"/>
			<path class="st0" d="M11.5,66.4h0.8c0.3,0,0.6-0.3,0.6-0.6c0-0.3-0.3-0.6-0.6-0.6h-0.8c-0.3,0-0.6,0.3-0.6,0.6
				C10.9,66.1,11.2,66.4,11.5,66.4z"/>
			<path class="st0" d="M14.8,66.4h0.8c0.3,0,0.6-0.3,0.6-0.6c0-0.3-0.3-0.6-0.6-0.6h-0.8c-0.3,0-0.6,0.3-0.6,0.6
				C14.2,66.1,14.5,66.4,14.8,66.4z"/>
			<path class="st0" d="M18.1,66.4h0.8c0.3,0,0.6-0.3,0.6-0.6c0-0.3-0.3-0.6-0.6-0.6h-0.8c-0.3,0-0.6,0.3-0.6,0.6
				C17.5,66.1,17.8,66.4,18.1,66.4z"/>
			<path class="st0" d="M21.4,66.4h0.8c0.3,0,0.6-0.3,0.6-0.6c0-0.3-0.3-0.6-0.6-0.6h-0.8c-0.3,0-0.6,0.3-0.6,0.6
				C20.8,66.1,21.1,66.4,21.4,66.4z"/>
			<path class="st0" d="M24.7,66.4h0.8c0.3,0,0.6-0.3,0.6-0.6c0-0.3-0.3-0.6-0.6-0.6h-0.8c-0.3,0-0.6,0.3-0.6,0.6
				C24.1,66.1,24.4,66.4,24.7,66.4z"/>
			<path class="st0" d="M28,66.4h0.8c0.3,0,0.6-0.3,0.6-0.6c0-0.3-0.3-0.6-0.6-0.6H28c-0.3,0-0.6,0.3-0.6,0.6
				C27.4,66.1,27.7,66.4,28,66.4z"/>
			<path class="st0" d="M31.3,66.4h0.8c0.3,0,0.6-0.3,0.6-0.6c0-0.3-0.3-0.6-0.6-0.6h-0.8c-0.3,0-0.6,0.3-0.6,0.6
				C30.7,66.1,30.9,66.4,31.3,66.4z"/>
			<path class="st0" d="M35.4,65.2h-0.8c-0.3,0-0.6,0.3-0.6,0.6c0,0.3,0.3,0.6,0.6,0.6h0.8c0.3,0,0.6-0.3,0.6-0.6
				C35.9,65.5,35.7,65.2,35.4,65.2z"/>
			<path class="st0" d="M13.1,76.6h2.8c0.4,0,0.7-0.3,0.7-0.7c0-0.4-0.3-0.7-0.7-0.7h-2.8c-0.4,0-0.7,0.3-0.7,0.7
				C12.4,76.3,12.7,76.6,13.1,76.6z"/>
			<path class="st0" d="M26.4,78.7H13.1c-0.4,0-0.7,0.3-0.7,0.7c0,0.4,0.3,0.7,0.7,0.7h13.3c0.4,0,0.7-0.3,0.7-0.7
				C27.1,79,26.8,78.7,26.4,78.7z"/>
			<path class="st0" d="M16.1,52.4H19c0.4,0,0.7-0.3,0.7-0.7c0-0.4-0.3-0.7-0.7-0.7h-2.8c-0.4,0-0.7,0.3-0.7,0.7
				C15.5,52.1,15.8,52.4,16.1,52.4z"/>
			<path class="st0" d="M29.5,54.6H16.1c-0.4,0-0.7,0.3-0.7,0.7c0,0.4,0.3,0.7,0.7,0.7h13.3c0.4,0,0.7-0.3,0.7-0.7
				C30.1,54.9,29.8,54.6,29.5,54.6z"/>
			<path class="st0" d="M26.4,82.2H13.1c-0.4,0-0.7,0.3-0.7,0.7c0,0.4,0.3,0.7,0.7,0.7h13.3c0.4,0,0.7-0.3,0.7-0.7
				C27.1,82.5,26.8,82.2,26.4,82.2z"/>
		</g>
	</g>
</g>
</svg>
