<?xml version="1.0" encoding="utf-8"?>
<!-- Generator: Adobe Illustrator 26.0.1, SVG Export Plug-In . SVG Version: 6.00 Build 0)  -->
<svg version="1.1" id="Layer_1" xmlns="http://www.w3.org/2000/svg" xmlns:xlink="http://www.w3.org/1999/xlink" x="0px" y="0px"
	 viewBox="0 0 2.1 1.2" style="enable-background:new 0 0 2.1 1.2;" xml:space="preserve">
<style type="text/css">
	.st0{fill:#1A4985;}
	.st1{fill:#FFFFFF;}
	.st2{fill:#255186;}
	.st3{fill:#E3AE23;}
	.st4{fill:#ED2849;}
	.st5{fill:#E8EDF3;}
</style>
<g>
	<g>
		<g>
			<path class="st0" d="M1.6,0.2C1.6,0.2,1.6,0.3,1.6,0.2L1.6,0.2L1.6,0.2L1.6,0.2C1.7,0.3,1.7,0.2,1.6,0.2z"/>
			<rect x="1.6" y="0.5" class="st0" width="0.1" height="0.4"/>
		</g>
		<polygon class="st1" points="1.6,0.6 1.7,0.6 1.6,0.7 		"/>
		<rect x="0.9" y="0.3" class="st1" width="0.6" height="0.8"/>
		<g>
			<path class="st2" d="M1.4,0.4H1.2c0,0,0,0,0,0s0,0,0,0s0,0,0,0s0,0,0,0H1c0,0,0,0,0,0V0.3h0v0.1h0.1c0,0,0,0,0.1,0c0,0,0,0,0,0
				L1.4,0.4L1.4,0.4L1.4,0.4L1.4,0.4C1.4,0.4,1.4,0.4,1.4,0.4z"/>
		</g>
		<g>
			<path class="st0" d="M1.3,0.7H1.1c0,0,0,0,0,0c0,0,0,0,0,0L1.3,0.7C1.3,0.6,1.3,0.6,1.3,0.7C1.3,0.6,1.3,0.7,1.3,0.7z"/>
			<path class="st0" d="M1.1,0.7L1.1,0.7C1,0.7,1,0.6,1.1,0.7C1,0.6,1,0.6,1.1,0.7L1.1,0.7C1.1,0.6,1.1,0.6,1.1,0.7
				C1.1,0.6,1.1,0.7,1.1,0.7z"/>
			<path class="st0" d="M1.4,0.7L1.4,0.7C1.4,0.7,1.4,0.6,1.4,0.7C1.4,0.6,1.4,0.6,1.4,0.7L1.4,0.7C1.4,0.6,1.4,0.6,1.4,0.7
				C1.4,0.6,1.4,0.7,1.4,0.7z"/>
			<path class="st0" d="M1,0.7L1,0.7C1,0.7,1,0.7,1,0.7C1,0.7,1,0.7,1,0.7L1,0.7C1,0.7,1,0.7,1,0.7C1,0.7,1,0.7,1,0.7z"/>
			<path class="st0" d="M1.4,0.7H1.3c0,0,0,0,0,0c0,0,0,0,0,0L1.4,0.7C1.4,0.7,1.4,0.7,1.4,0.7C1.4,0.7,1.4,0.7,1.4,0.7z"/>
			<path class="st0" d="M1.2,0.7H1.1c0,0,0,0,0,0c0,0,0,0,0,0L1.2,0.7C1.2,0.7,1.2,0.7,1.2,0.7C1.2,0.7,1.2,0.7,1.2,0.7z"/>
		</g>
		<g>
			<path class="st0" d="M1.3,0.8H1.1c0,0,0,0,0,0s0,0,0,0L1.3,0.8C1.3,0.7,1.3,0.7,1.3,0.8C1.3,0.8,1.3,0.8,1.3,0.8z"/>
			<path class="st0" d="M1.1,0.8L1.1,0.8C1,0.8,1,0.8,1.1,0.8C1,0.7,1,0.7,1.1,0.8L1.1,0.8C1.1,0.7,1.1,0.7,1.1,0.8
				C1.1,0.8,1.1,0.8,1.1,0.8z"/>
			<path class="st0" d="M1.4,0.8L1.4,0.8C1.4,0.8,1.4,0.8,1.4,0.8C1.4,0.7,1.4,0.7,1.4,0.8L1.4,0.8C1.4,0.7,1.4,0.7,1.4,0.8
				C1.4,0.8,1.4,0.8,1.4,0.8z"/>
			<path class="st0" d="M1,0.8L1,0.8C1,0.8,1,0.8,1,0.8C1,0.8,1,0.8,1,0.8L1,0.8C1,0.8,1,0.8,1,0.8C1,0.8,1,0.8,1,0.8z"/>
			<path class="st0" d="M1.4,0.8H1.3c0,0,0,0,0,0c0,0,0,0,0,0L1.4,0.8C1.4,0.8,1.4,0.8,1.4,0.8C1.4,0.8,1.4,0.8,1.4,0.8z"/>
			<path class="st0" d="M1.2,0.8H1.1c0,0,0,0,0,0c0,0,0,0,0,0L1.2,0.8C1.2,0.8,1.2,0.8,1.2,0.8C1.2,0.8,1.2,0.8,1.2,0.8z"/>
		</g>
		<g>
			<path class="st0" d="M1.3,0.9H1.1c0,0,0,0,0,0c0,0,0,0,0,0L1.3,0.9C1.3,0.9,1.3,0.9,1.3,0.9C1.3,0.9,1.3,0.9,1.3,0.9z"/>
			<path class="st0" d="M1.1,0.9L1.1,0.9C1,0.9,1,0.9,1.1,0.9C1,0.9,1,0.9,1.1,0.9L1.1,0.9C1.1,0.9,1.1,0.9,1.1,0.9
				C1.1,0.9,1.1,0.9,1.1,0.9z"/>
			<path class="st0" d="M1.4,0.9L1.4,0.9C1.4,0.9,1.4,0.9,1.4,0.9C1.4,0.9,1.4,0.9,1.4,0.9L1.4,0.9C1.4,0.9,1.4,0.9,1.4,0.9
				C1.4,0.9,1.4,0.9,1.4,0.9z"/>
			<path class="st0" d="M1.3,1H1.1c0,0,0,0,0,0s0,0,0,0L1.3,1C1.3,1,1.3,1,1.3,1C1.3,1,1.3,1,1.3,1z"/>
			<path class="st0" d="M1.1,1L1.1,1C1,1,1,1,1.1,1C1,1,1,1,1.1,1L1.1,1C1.1,1,1.1,1,1.1,1C1.1,1,1.1,1,1.1,1z"/>
			<path class="st0" d="M1.4,1L1.4,1C1.4,1,1.4,1,1.4,1C1.4,1,1.4,1,1.4,1L1.4,1C1.4,1,1.4,1,1.4,1C1.4,1,1.4,1,1.4,1z"/>
			<path class="st0" d="M1,0.9L1,0.9C1,0.9,1,0.9,1,0.9C1,0.9,1,0.9,1,0.9L1,0.9C1,0.9,1,0.9,1,0.9C1,0.9,1,0.9,1,0.9z"/>
			<path class="st0" d="M1.4,0.9H1.3c0,0,0,0,0,0s0,0,0,0L1.4,0.9C1.4,0.9,1.4,0.9,1.4,0.9C1.4,0.9,1.4,0.9,1.4,0.9z"/>
			<path class="st0" d="M1.2,0.9H1.1c0,0,0,0,0,0s0,0,0,0L1.2,0.9C1.2,0.9,1.2,0.9,1.2,0.9C1.2,0.9,1.2,0.9,1.2,0.9z"/>
		</g>
		<rect x="1.6" y="0.6" class="st1" width="0.1" height="0.2"/>
		<path class="st3" d="M1.7,0.9L1.7,0.9C1.7,0.9,1.7,0.9,1.7,0.9L1.7,0.9z"/>
		<path class="st4" d="M1.6,1C1.6,1,1.6,1,1.6,1C1.7,1,1.7,1,1.6,1L1.6,1L1.6,1L1.6,1z"/>
		<path class="st0" d="M0.9,1.1h0.6c0,0,0,0,0,0V0.3c0,0,0,0,0,0H1.4v0c0,0,0,0,0,0H1c0,0,0,0,0,0v0H0.9c0,0,0,0,0,0L0.9,1.1
			C0.9,1.1,0.9,1.1,0.9,1.1z M1,0.3h0.3v0.1H1.2c0,0,0,0-0.1,0c0,0,0,0,0,0L1,0.3L1,0.3L1,0.3z M1,0.3h0.3v0L1,0.3L1,0.3z M0.9,0.3
			H1v0.1c0,0,0,0,0,0h0.1c0,0,0,0,0,0c0,0,0,0,0,0s0,0,0,0c0,0,0,0,0,0h0.1c0,0,0,0,0,0V0.3h0.1v0.7H0.9V0.3z"/>
		<path class="st0" d="M1.7,0.3L1.7,0.3C1.7,0.3,1.7,0.2,1.7,0.3c-0.1-0.1-0.1,0-0.1,0v0.6l0,0c0,0,0,0,0,0c0,0,0,0,0,0l0,0l0,0.1v0
			c0,0,0,0,0,0s0,0,0,0v0l0-0.1l0,0c0,0,0,0,0,0s0,0,0,0l0,0V0.3z M1.6,0.5L1.6,0.5l0.1,0.4H1.6V0.5z M1.7,0.5L1.7,0.5L1.6,0.3h0.1
			V0.5z M1.6,0.3C1.7,0.3,1.7,0.3,1.6,0.3L1.6,0.3C1.6,0.3,1.6,0.3,1.6,0.3z M1.6,1L1.6,1L1.6,1L1.6,1z"/>
		<rect x="1" y="0.3" class="st0" width="0.3" height="0"/>
		<path class="st0" d="M1.1,0.6C1.1,0.6,1.1,0.5,1.1,0.6L1.1,0.6C1.1,0.5,1.1,0.5,1.1,0.6C1.1,0.5,1.1,0.5,1.1,0.6L1.1,0.6
			C1.1,0.5,1.1,0.5,1.1,0.6C1.1,0.6,1.1,0.6,1.1,0.6C1.1,0.6,1.1,0.6,1.1,0.6C1.2,0.6,1.2,0.6,1.1,0.6c0.1,0,0.1,0,0.1,0
			c0,0,0,0,0,0c0,0,0,0,0,0c0,0,0,0,0,0c0,0,0,0,0,0c0,0,0,0,0,0c0,0,0,0,0,0c0,0,0,0,0,0c0,0,0,0,0,0c0,0,0,0,0,0c0,0,0,0,0,0
			c0,0,0,0,0,0c0,0,0,0,0,0c0,0,0,0,0,0c0,0,0,0,0,0c0,0,0,0,0,0c0,0,0,0,0,0C1.2,0.5,1.1,0.5,1.1,0.6C1.1,0.5,1.1,0.5,1.1,0.6
			L1.1,0.6C1.1,0.5,1.1,0.5,1.1,0.6L1.1,0.6C1.1,0.5,1.1,0.5,1.1,0.6C1.1,0.5,1.1,0.5,1.1,0.6C1.1,0.5,1.1,0.6,1.1,0.6z"/>
	</g>
	<g>
		<path class="st0" d="M1.8,0.3L1.8,0.3L1.8,0.3L1.8,0.3L1.8,0.3z"/>
		<path class="st0" d="M1.8,1.1L1.8,1.1L1.8,1.1L1.8,1.1L1.8,1.1z"/>
		<path class="st0" d="M1.8,1L1.8,1L1.8,1L1.8,1C1.8,1,1.8,0.9,1.8,1L1.8,1C1.8,0.9,1.8,1,1.8,1z"/>
		<path class="st0" d="M1.8,0.5C1.8,0.5,1.8,0.5,1.8,0.5l0-0.2h0L1.8,0.5C1.8,0.5,1.8,0.5,1.8,0.5L1.8,0.5L1.8,0.5z"/>
		<path class="st0" d="M1.8,0.4C1.8,0.5,1.8,0.5,1.8,0.4C1.8,0.5,1.8,0.5,1.8,0.4l0-0.2h0l0,0.6l0.1,0l0-0.6h0L1.8,0.4z"/>
		<path class="st0" d="M1.8,0.9C1.8,0.9,1.8,0.9,1.8,0.9L1.8,0.9C1.9,0.9,1.9,0.9,1.8,0.9L1.8,0.9L1.8,0.9L1.8,0.9z"/>
	</g>
	<g>
		<path class="st5" d="M0.6,0.3c0,0,0,0.1-0.1,0.1c0,0,0,0,0,0.1c0,0,0,0,0,0c0,0,0,0,0,0c-0.1,0-0.2,0-0.3,0c0,0,0,0,0,0
			c0,0,0,0,0,0c0,0,0-0.1,0-0.1c0,0,0,0,0,0c0,0,0,0,0,0C0.4,0.3,0.5,0.3,0.6,0.3C0.6,0.3,0.6,0.3,0.6,0.3z"/>
		<path class="st5" d="M0.4,0.9c0,0-0.1,0-0.1,0c0,0,0,0,0,0c0-0.1,0-0.1,0-0.2c0,0,0,0,0,0c0.1,0,0.2,0,0.3,0c0,0,0,0,0,0
			c0,0.1,0,0.1,0,0.2c0,0,0,0,0,0C0.5,0.9,0.4,0.9,0.4,0.9z"/>
		<g>
			<path class="st0" d="M0.8,0.5C0.8,0.4,0.8,0.4,0.8,0.5C0.7,0.3,0.7,0.3,0.7,0.3c-0.1,0-0.3,0-0.4,0c0,0,0,0,0,0c0,0,0,0,0,0
				c0,0,0,0.1,0,0.1c0,0.1,0,0.2,0,0.2c0,0,0,0,0,0c0,0.1,0,0.1,0,0.2c0,0,0,0,0,0c0,0,0,0,0,0c0,0,0,0,0,0c0,0,0,0,0,0c0,0,0,0,0,0
				c0,0,0,0,0,0c0,0,0,0,0,0c0,0,0,0,0,0c0,0,0,0,0,0c0,0,0,0,0,0c0,0,0,0,0,0c0,0,0,0,0,0c0,0,0,0,0,0c0,0,0,0,0,0c0,0,0,0,0,0
				c0,0,0,0,0,0c0,0,0,0,0,0c0,0,0,0,0,0c0,0,0,0,0,0c0,0,0,0,0,0c0,0,0,0,0,0c0,0,0,0,0,0c0,0,0,0,0,0c0,0,0,0,0,0c0,0,0,0,0,0
				c0,0,0,0,0,0c0,0,0,0,0,0c0,0,0,0,0,0c0-0.1,0-0.1,0-0.2c0,0,0,0,0,0c0,0,0,0,0,0c0,0,0.1,0,0.1,0c0,0,0,0,0.1,0c0,0,0,0,0-0.1
				C0.8,0.6,0.8,0.5,0.8,0.5z M0.3,0.4C0.3,0.4,0.3,0.3,0.3,0.4c0.1,0,0.2,0,0.3,0c0,0,0,0,0,0c0,0,0,0.1-0.1,0.1c0,0,0,0,0,0.1
				c0,0,0,0,0,0c0,0,0,0,0,0c-0.1,0-0.2,0-0.3,0c0,0,0,0,0,0c0,0,0,0,0,0C0.2,0.5,0.2,0.4,0.3,0.4C0.3,0.4,0.3,0.4,0.3,0.4z
				 M0.6,0.5C0.6,0.5,0.6,0.5,0.6,0.5c0,0.1,0,0.1,0,0.1c0,0,0,0,0,0h0c0,0,0,0,0,0c0,0,0,0,0,0h0c0,0.1,0,0.3,0,0.4
				C0.4,1,0.3,1,0.2,1c0,0,0,0,0,0c0-0.1,0-0.2,0-0.4c0,0,0,0,0,0h0c0,0,0,0,0,0c0,0,0,0,0,0h0c0,0,0,0,0,0c0-0.1,0-0.1,0-0.2
				c0,0,0,0,0-0.1c0,0,0,0,0.1,0c0,0-0.1,0.1-0.1,0.1c0,0,0,0,0,0c0,0,0,0,0,0C0.3,0.6,0.4,0.6,0.6,0.5C0.5,0.6,0.6,0.5,0.6,0.5
				C0.6,0.5,0.6,0.5,0.6,0.5C0.6,0.4,0.6,0.4,0.6,0.5C0.6,0.4,0.6,0.4,0.6,0.5c0-0.1,0-0.1,0.1-0.1v0C0.6,0.4,0.6,0.4,0.6,0.5z
				 M0.6,0.7C0.6,0.7,0.6,0.7,0.6,0.7C0.6,0.7,0.6,0.7,0.6,0.7C0.6,0.7,0.6,0.7,0.6,0.7C0.6,0.7,0.6,0.7,0.6,0.7
				C0.7,0.7,0.7,0.7,0.6,0.7z M0.8,0.7C0.8,0.7,0.7,0.7,0.8,0.7c-0.1,0.1-0.1,0.1-0.1,0c0,0,0,0,0-0.1c0,0,0-0.1,0-0.1
				c0-0.1,0-0.1,0-0.1c0,0,0,0,0,0c0,0,0.1,0,0.1,0c0,0,0,0,0,0.1C0.8,0.5,0.8,0.6,0.8,0.7z"/>
			<path class="st0" d="M0.5,0.6c-0.1,0-0.2,0-0.3,0c0,0,0,0,0,0c0,0.1,0,0.1,0,0.2c0,0,0,0,0,0c0,0,0.1,0,0.1,0s0.1,0,0.1,0
				c0,0,0,0,0,0C0.5,0.8,0.5,0.7,0.5,0.6C0.5,0.7,0.5,0.6,0.5,0.6z M0.5,0.9C0.5,0.9,0.5,0.9,0.5,0.9c-0.1,0-0.1,0-0.2,0
				s-0.1,0-0.1,0c0,0,0,0,0,0c0-0.1,0-0.1,0-0.2c0,0,0,0,0,0c0.1,0,0.2,0,0.3,0c0,0,0,0,0,0C0.5,0.7,0.5,0.8,0.5,0.9z"/>
			<path class="st0" d="M0.7,0.5C0.7,0.5,0.7,0.5,0.7,0.5C0.7,0.5,0.7,0.4,0.7,0.5C0.7,0.5,0.7,0.5,0.7,0.5C0.6,0.5,0.6,0.5,0.7,0.5
				C0.7,0.6,0.7,0.6,0.7,0.6c0,0,0,0,0,0C0.7,0.6,0.7,0.6,0.7,0.5C0.7,0.6,0.8,0.6,0.7,0.5C0.7,0.5,0.7,0.5,0.7,0.5z M0.7,0.6
				C0.7,0.6,0.7,0.6,0.7,0.6C0.7,0.6,0.7,0.6,0.7,0.6C0.7,0.6,0.7,0.6,0.7,0.6C0.7,0.6,0.7,0.6,0.7,0.6C0.7,0.5,0.7,0.5,0.7,0.6
				C0.7,0.5,0.7,0.5,0.7,0.6C0.7,0.5,0.7,0.5,0.7,0.6C0.7,0.5,0.7,0.5,0.7,0.6C0.7,0.5,0.7,0.5,0.7,0.6z"/>
			<path class="st0" d="M0.2,0.6C0.2,0.6,0.2,0.6,0.2,0.6L0.2,0.6C0.2,0.6,0.2,0.6,0.2,0.6C0.2,0.6,0.2,0.6,0.2,0.6L0.2,0.6
				C0.2,0.6,0.2,0.6,0.2,0.6z"/>
			<path class="st0" d="M0.2,0.6L0.2,0.6C0.3,0.6,0.3,0.6,0.2,0.6C0.3,0.6,0.3,0.6,0.2,0.6L0.2,0.6C0.2,0.6,0.2,0.6,0.2,0.6
				C0.2,0.6,0.2,0.6,0.2,0.6z"/>
			<path class="st0" d="M0.3,0.6L0.3,0.6C0.3,0.6,0.3,0.6,0.3,0.6C0.3,0.6,0.3,0.6,0.3,0.6L0.3,0.6C0.3,0.6,0.3,0.6,0.3,0.6
				C0.3,0.6,0.3,0.6,0.3,0.6z"/>
			<path class="st0" d="M0.3,0.6L0.3,0.6C0.3,0.6,0.3,0.6,0.3,0.6C0.3,0.6,0.3,0.6,0.3,0.6L0.3,0.6C0.3,0.6,0.3,0.6,0.3,0.6
				C0.3,0.6,0.3,0.6,0.3,0.6z"/>
			<path class="st0" d="M0.4,0.6L0.4,0.6C0.4,0.6,0.4,0.6,0.4,0.6C0.4,0.6,0.4,0.6,0.4,0.6L0.4,0.6C0.4,0.6,0.4,0.6,0.4,0.6
				C0.4,0.6,0.4,0.6,0.4,0.6z"/>
			<path class="st0" d="M0.4,0.6L0.4,0.6C0.4,0.6,0.4,0.6,0.4,0.6C0.4,0.6,0.4,0.6,0.4,0.6L0.4,0.6C0.4,0.6,0.4,0.6,0.4,0.6
				C0.4,0.6,0.4,0.6,0.4,0.6z"/>
			<path class="st0" d="M0.5,0.6L0.5,0.6C0.5,0.6,0.5,0.6,0.5,0.6C0.5,0.6,0.5,0.6,0.5,0.6L0.5,0.6C0.5,0.6,0.4,0.6,0.5,0.6
				C0.4,0.6,0.5,0.6,0.5,0.6z"/>
			<path class="st0" d="M0.5,0.6L0.5,0.6C0.5,0.6,0.5,0.6,0.5,0.6C0.5,0.6,0.5,0.6,0.5,0.6L0.5,0.6C0.5,0.6,0.5,0.6,0.5,0.6
				C0.5,0.6,0.5,0.6,0.5,0.6z"/>
			<path class="st0" d="M0.6,0.6L0.6,0.6C0.5,0.6,0.5,0.6,0.6,0.6C0.5,0.6,0.5,0.6,0.6,0.6L0.6,0.6C0.6,0.6,0.6,0.6,0.6,0.6
				C0.6,0.6,0.6,0.6,0.6,0.6z"/>
			<path class="st0" d="M0.3,0.7L0.3,0.7C0.3,0.7,0.3,0.7,0.3,0.7C0.3,0.7,0.3,0.7,0.3,0.7L0.3,0.7C0.3,0.7,0.3,0.7,0.3,0.7
				C0.3,0.7,0.3,0.7,0.3,0.7z"/>
			<path class="st0" d="M0.4,0.8H0.3c0,0,0,0,0,0c0,0,0,0,0,0L0.4,0.8C0.4,0.8,0.4,0.8,0.4,0.8C0.4,0.8,0.4,0.8,0.4,0.8z"/>
			<path class="st0" d="M0.3,0.4L0.3,0.4C0.3,0.4,0.3,0.4,0.3,0.4C0.3,0.4,0.3,0.4,0.3,0.4L0.3,0.4C0.3,0.4,0.3,0.4,0.3,0.4
				C0.3,0.4,0.3,0.4,0.3,0.4z"/>
			<path class="st0" d="M0.5,0.4H0.3c0,0,0,0,0,0c0,0,0,0,0,0L0.5,0.4C0.5,0.5,0.5,0.5,0.5,0.4C0.5,0.4,0.5,0.4,0.5,0.4z"/>
			<path class="st0" d="M0.4,0.8H0.3c0,0,0,0,0,0c0,0,0,0,0,0L0.4,0.8C0.4,0.8,0.4,0.8,0.4,0.8C0.4,0.8,0.4,0.8,0.4,0.8z"/>
		</g>
	</g>
</g>
</svg>
